<svg version="1.1" xmlns="http://www.w3.org/2000/svg" viewBox="0 0 2782.222213745116 1241.6667175292964" width="2782.222213745116" height="1241.6667175292964" filter="invert(93%) hue-rotate(180deg)">
  <!-- svg-source:excalidraw -->
  
  <defs>
    <style class="style-fonts">
      @font-face {
        font-family: "Virgil";
        src: url("https://excalidraw.com/Virgil.woff2");
      }
      @font-face {
        font-family: "Cascadia";
        src: url("https://excalidraw.com/Cascadia.woff2");
      }
      @font-face {
        font-family: "Assistant";
        src: url("https://excalidraw.com/Assistant-Regular.woff2");
      }
    </style>
    
  </defs>
  <rect x="0" y="0" width="2782.222213745116" height="1241.6667175292964" fill="#ffffff"></rect><g stroke-linecap="round" transform="translate(510.3333435058592 621.000122070312) rotate(0 113.66665649414062 122.99999999999997)"><path d="M32 0 C66.46 -1.1, 97.12 -1.68, 195.33 0 M32 0 C90.15 0, 151.04 0.92, 195.33 0 M195.33 0 C218.46 0.87, 226.62 8.81, 227.33 32 M195.33 0 C218.84 -0.22, 227.49 11.3, 227.33 32 M227.33 32 C230.22 100.77, 227.43 168.55, 227.33 214 M227.33 32 C226.46 97.7, 226.15 162.44, 227.33 214 M227.33 214 C227.3 234.48, 217.51 245.12, 195.33 246 M227.33 214 C228.31 235.55, 218.44 248.16, 195.33 246 M195.33 246 C146.16 244.28, 98.06 245.41, 32 246 M195.33 246 C145.53 247.12, 95.89 247.52, 32 246 M32 246 C8.94 244.91, -0.73 235.64, 0 214 M32 246 C11.42 246.21, -1.61 235.78, 0 214 M0 214 C1.24 145.17, -1.1 76.55, 0 32 M0 214 C1.83 172.01, 1.33 130.29, 0 32 M0 32 C-0.03 12.67, 10.31 0.36, 32 0 M0 32 C1.64 11.93, 12.56 -0.21, 32 0" stroke="#1e1e1e" stroke-width="2" fill="none"></path></g><g transform="translate(569.6666564941404 673.000122070312) rotate(0 57.421875 33.599999999999994)"><text x="0" y="0" font-family="Cascadia, Segoe UI Emoji" font-size="28px" fill="#1e1e1e" text-anchor="start" style="white-space: pre;" direction="ltr" dominant-baseline="text-before-edge">Server </text><text x="0" y="33.6" font-family="Cascadia, Segoe UI Emoji" font-size="28px" fill="#1e1e1e" text-anchor="start" style="white-space: pre;" direction="ltr" dominant-baseline="text-before-edge">Gateway</text></g><g stroke-linecap="round" transform="translate(10 591.6667175292964) rotate(0 91.11111958821613 137.77778625488278)"><path d="M32 0 C66.34 2.23, 102.08 2.55, 150.22 0 M32 0 C78.2 0.61, 124.53 -1.09, 150.22 0 M150.22 0 C170.22 -1.27, 180.43 9.21, 182.22 32 M150.22 0 C170.45 1.34, 181.98 11.66, 182.22 32 M182.22 32 C180.59 96.28, 183.34 160.63, 182.22 243.56 M182.22 32 C182.15 96.38, 182.41 160.27, 182.22 243.56 M182.22 243.56 C183.63 264.95, 170.78 277.07, 150.22 275.56 M182.22 243.56 C181.22 264.4, 173.26 277.5, 150.22 275.56 M150.22 275.56 C112.51 276.68, 74.12 273.89, 32 275.56 M150.22 275.56 C121.27 275.96, 93.33 276.67, 32 275.56 M32 275.56 C11.63 275.57, -1.7 266.16, 0 243.56 M32 275.56 C12.21 274.5, 2 266.64, 0 243.56 M0 243.56 C0.45 184.6, 1.75 126.41, 0 32 M0 243.56 C-1.06 191.92, -1.81 141.4, 0 32 M0 32 C0.19 10.16, 11.97 1.36, 32 0 M0 32 C2.02 12.6, 10.73 -1.63, 32 0" stroke="#1e1e1e" stroke-width="2" fill="none"></path></g><g transform="translate(71.66666666666669 711.1111450195308) rotate(0 32.8125 16.799999999999983)"><text x="0" y="0" font-family="Cascadia, Segoe UI Emoji" font-size="28px" fill="#1e1e1e" text-anchor="start" style="white-space: pre;" direction="ltr" dominant-baseline="text-before-edge">User</text></g><g stroke-linecap="round"><g transform="translate(208.88890584309894 729.4444783528643) rotate(0 139.72218831380206 0.15417650727297882)"><path d="M0 0 C10.19 0, 14.54 -0.05, 61.11 0 C107.69 0.05, 243.06 0.26, 279.44 0.31" stroke="#1e1e1e" stroke-width="4.5" fill="none" stroke-dasharray="8 12"></path></g><g transform="translate(208.88890584309894 729.4444783528643) rotate(0 139.72218831380206 0.15417650727297882)"><path d="M0 0 L13.59 -6.35 L13.6 6.33 L0 0" stroke="none" stroke-width="0" fill="#1e1e1e" fill-rule="evenodd"></path><path d="M0 0 C3.51 -1.64, 7.02 -3.28, 13.59 -6.35 M13.59 -6.35 C13.59 -2.7, 13.6 0.94, 13.6 6.33 M13.6 6.33 C9.79 4.55, 5.97 2.78, 0 0 M0 0 C0 0, 0 0, 0 0" stroke="#1e1e1e" stroke-width="4.5" fill="none"></path></g><g transform="translate(208.88890584309894 729.4444783528643) rotate(0 139.72218831380206 0.15417650727297882)"><path d="M279.44 0.31 L265.84 6.63 L265.86 -6.05 L279.44 0.31" stroke="none" stroke-width="0" fill="#1e1e1e" fill-rule="evenodd"></path><path d="M279.44 0.31 C275.93 1.94, 272.42 3.57, 265.84 6.63 M265.84 6.63 C265.85 2.98, 265.85 -0.66, 265.86 -6.05 M265.86 -6.05 C269.67 -4.27, 273.48 -2.48, 279.44 0.31 M279.44 0.31 C279.44 0.31, 279.44 0.31, 279.44 0.31" stroke="#1e1e1e" stroke-width="4.5" fill="none"></path></g></g><mask></mask><g transform="translate(252.22221374511702 693.3334350585935) rotate(0 106.640625 33.60000000000002)"><text x="0" y="0" font-family="Cascadia, Segoe UI Emoji" font-size="28px" fill="#1e1e1e" text-anchor="start" style="white-space: pre;" direction="ltr" dominant-baseline="text-before-edge">HTTPS</text><text x="0" y="33.6" font-family="Cascadia, Segoe UI Emoji" font-size="28px" fill="#1e1e1e" text-anchor="start" style="white-space: pre;" direction="ltr" dominant-baseline="text-before-edge">Communication</text></g><g stroke-linecap="round" transform="translate(915.5556488037107 106.66664123535145) rotate(0 384.1667938232419 214.16664123535145)"><path d="M32 0 C308.67 0, 585.34 0, 736.33 0 M32 0 C180.6 0, 329.2 0, 736.33 0 M736.33 0 C757.67 0, 768.33 10.67, 768.33 32 M736.33 0 C757.67 0, 768.33 10.67, 768.33 32 M768.33 32 C768.33 167.63, 768.33 303.26, 768.33 396.33 M768.33 32 C768.33 114.77, 768.33 197.55, 768.33 396.33 M768.33 396.33 C768.33 417.67, 757.67 428.33, 736.33 428.33 M768.33 396.33 C768.33 417.67, 757.67 428.33, 736.33 428.33 M736.33 428.33 C537.32 428.33, 338.32 428.33, 32 428.33 M736.33 428.33 C523.28 428.33, 310.22 428.33, 32 428.33 M32 428.33 C10.67 428.33, 0 417.67, 0 396.33 M32 428.33 C10.67 428.33, 0 417.67, 0 396.33 M0 396.33 C0 296.58, 0 196.83, 0 32 M0 396.33 C0 317.54, 0 238.74, 0 32 M0 32 C0 10.67, 10.67 0, 32 0 M0 32 C0 10.67, 10.67 0, 32 0" stroke="#1e1e1e" stroke-width="4" fill="none"></path></g><g stroke-linecap="round" transform="translate(947.222213745117 174.99999999999994) rotate(0 159.9999999999999 59.99999999999997)"><path d="M30 0 C113.71 0, 197.42 0, 290 0 M290 0 C310 0, 320 10, 320 30 M320 30 C320 49.31, 320 68.62, 320 90 M320 90 C320 110, 310 120, 290 120 M290 120 C202.56 120, 115.11 120, 30 120 M30 120 C10 120, 0 110, 0 90 M0 90 C0 77.63, 0 65.26, 0 30 M0 30 C0 10, 10 0, 30 0" stroke="#1e1e1e" stroke-width="4.5" fill="none" stroke-dasharray="8 12"></path></g><g transform="translate(1032.222213745117 222.4999999999999) rotate(0 82.03125 16.8)"><text x="0" y="0" font-family="Cascadia, Segoe UI Emoji" font-size="28px" fill="#1e1e1e" text-anchor="start" style="white-space: pre;" direction="ltr" dominant-baseline="text-before-edge">Fetching  </text></g><g stroke-linecap="round" transform="translate(1332.2222137451167 183.33335876464838) rotate(0 116.6667175292967 54.99999999999997)"><path d="M27.5 0 C74.8 0, 122.11 0, 205.83 0 M205.83 0 C224.17 0, 233.33 9.17, 233.33 27.5 M233.33 27.5 C233.33 40.88, 233.33 54.26, 233.33 82.5 M233.33 82.5 C233.33 100.83, 224.17 110, 205.83 110 M205.83 110 C145.85 110, 85.87 110, 27.5 110 M27.5 110 C9.17 110, 0 100.83, 0 82.5 M0 82.5 C0 66.49, 0 50.48, 0 27.5 M0 27.5 C0 9.17, 9.17 0, 27.5 0" stroke="#1e1e1e" stroke-width="4.5" fill="none" stroke-dasharray="8 12"></path></g><g transform="translate(1422.2222137451163 229.9999999999999) rotate(0 32.8125 16.8)"><text x="0" y="0" font-family="Cascadia, Segoe UI Emoji" font-size="28px" fill="#1e1e1e" text-anchor="start" style="white-space: pre;" direction="ltr" dominant-baseline="text-before-edge">Post</text></g><g stroke-linecap="round" transform="translate(952.2223663330074 375.00007629394526) rotate(0 157.5 58.33335876464841)"><path d="M29.17 0 C119.46 0, 209.75 0, 285.83 0 M285.83 0 C305.28 0, 315 9.72, 315 29.17 M315 29.17 C315 48.12, 315 67.08, 315 87.5 M315 87.5 C315 106.94, 305.28 116.67, 285.83 116.67 M285.83 116.67 C210.22 116.67, 134.6 116.67, 29.17 116.67 M29.17 116.67 C9.72 116.67, 0 106.94, 0 87.5 M0 87.5 C0 74, 0 60.49, 0 29.17 M0 29.17 C0 9.72, 9.72 0, 29.17 0" stroke="#1e1e1e" stroke-width="4.5" fill="none" stroke-dasharray="8 12"></path></g><g transform="translate(1048.8889312744136 414.16664123535145) rotate(0 57.421875 16.799999999999997)"><text x="0" y="0" font-family="Cascadia, Segoe UI Emoji" font-size="28px" fill="#1e1e1e" text-anchor="start" style="white-space: pre;" direction="ltr" dominant-baseline="text-before-edge">Ratings</text></g><g stroke-linecap="round" transform="translate(1333.8889312744136 383.3333587646483) rotate(0 138.33335876464827 49.16667938232422)"><path d="M24.58 0 C100.99 0, 177.4 0, 252.08 0 M252.08 0 C268.47 0, 276.67 8.19, 276.67 24.58 M276.67 24.58 C276.67 44.18, 276.67 63.78, 276.67 73.75 M276.67 73.75 C276.67 90.14, 268.47 98.33, 252.08 98.33 M252.08 98.33 C195.38 98.33, 138.67 98.33, 24.58 98.33 M24.58 98.33 C8.19 98.33, 0 90.14, 0 73.75 M0 73.75 C0 61.62, 0 49.5, 0 24.58 M0 24.58 C0 8.19, 8.19 0, 24.58 0" stroke="#1e1e1e" stroke-width="4.5" fill="none" stroke-dasharray="8 12"></path></g><g transform="translate(1382.2222137451163 424.9999999999999) rotate(0 49.21875 16.799999999999997)"><text x="0" y="0" font-family="Cascadia, Segoe UI Emoji" font-size="28px" fill="#1e1e1e" text-anchor="start" style="white-space: pre;" direction="ltr" dominant-baseline="text-before-edge">Search</text></g><g stroke-linecap="round" transform="translate(928.8889312744138 663.3333587646482) rotate(0 384.1666412353513 282.5000381469726)"><path d="M32 0 C246.07 0, 460.15 0, 736.33 0 M32 0 C209.07 0, 386.14 0, 736.33 0 M736.33 0 C757.67 0, 768.33 10.67, 768.33 32 M736.33 0 C757.67 0, 768.33 10.67, 768.33 32 M768.33 32 C768.33 134.4, 768.33 236.81, 768.33 533 M768.33 32 C768.33 189.47, 768.33 346.95, 768.33 533 M768.33 533 C768.33 554.33, 757.67 565, 736.33 565 M768.33 533 C768.33 554.33, 757.67 565, 736.33 565 M736.33 565 C500.19 565, 264.06 565, 32 565 M736.33 565 C592.5 565, 448.67 565, 32 565 M32 565 C10.67 565, 0 554.33, 0 533 M32 565 C10.67 565, 0 554.33, 0 533 M0 533 C0 421.83, 0 310.67, 0 32 M0 533 C0 396.65, 0 260.3, 0 32 M0 32 C0 10.67, 10.67 0, 32 0 M0 32 C0 10.67, 10.67 0, 32 0" stroke="#1e1e1e" stroke-width="4" fill="none"></path></g><g stroke-linecap="round" transform="translate(992.222213745117 709.9999999999997) rotate(0 130.83335876464832 62.5)"><path d="M31.25 0 C101.58 0, 171.91 0, 230.42 0 M230.42 0 C251.25 0, 261.67 10.42, 261.67 31.25 M261.67 31.25 C261.67 50.8, 261.67 70.34, 261.67 93.75 M261.67 93.75 C261.67 114.58, 251.25 125, 230.42 125 M230.42 125 C151.62 125, 72.83 125, 31.25 125 M31.25 125 C10.42 125, 0 114.58, 0 93.75 M0 93.75 C0 80.69, 0 67.62, 0 31.25 M0 31.25 C0 10.42, 10.42 0, 31.25 0" stroke="#1e1e1e" stroke-width="4.5" fill="none" stroke-dasharray="8 12"></path></g><g transform="translate(1073.8889312744136 759.1667175292965) rotate(0 41.015625 16.80000000000001)"><text x="0" y="0" font-family="Cascadia, Segoe UI Emoji" font-size="28px" fill="#1e1e1e" text-anchor="start" style="white-space: pre;" direction="ltr" dominant-baseline="text-before-edge">Login</text></g><g stroke-linecap="round" transform="translate(1325.5554962158199 719.9999999999998) rotate(0 139.1666412353514 55.83335876464838)"><path d="M27.92 0 C85.27 0, 142.62 0, 250.42 0 M250.42 0 C269.03 0, 278.33 9.31, 278.33 27.92 M278.33 27.92 C278.33 47.14, 278.33 66.37, 278.33 83.75 M278.33 83.75 C278.33 102.36, 269.03 111.67, 250.42 111.67 M250.42 111.67 C178.64 111.67, 106.86 111.67, 27.92 111.67 M27.92 111.67 C9.31 111.67, 0 102.36, 0 83.75 M0 83.75 C0 68.83, 0 53.91, 0 27.92 M0 27.92 C0 9.31, 9.31 0, 27.92 0" stroke="#1e1e1e" stroke-width="4.5" fill="none" stroke-dasharray="8 12"></path></g><g stroke-linecap="round" transform="translate(1008.8889312744138 898.3334350585934) rotate(0 127.49999999999989 43.333282470703125)"><path d="M21.67 0 C102.33 0, 182.99 0, 233.33 0 M233.33 0 C247.78 0, 255 7.22, 255 21.67 M255 21.67 C255 33.63, 255 45.59, 255 65 M255 65 C255 79.44, 247.78 86.67, 233.33 86.67 M233.33 86.67 C170.95 86.67, 108.56 86.67, 21.67 86.67 M21.67 86.67 C7.22 86.67, 0 79.44, 0 65 M0 65 C0 47.85, 0 30.7, 0 21.67 M0 21.67 C0 7.22, 7.22 0, 21.67 0" stroke="#1e1e1e" stroke-width="4.5" fill="none" stroke-dasharray="8 12"></path></g><g stroke-linecap="round" transform="translate(1323.8889312744136 903.3334350585934) rotate(0 148.33335876464827 41.66664123535156)"><path d="M20.83 0 C75.58 0, 130.33 0, 275.83 0 M275.83 0 C289.72 0, 296.67 6.94, 296.67 20.83 M296.67 20.83 C296.67 30.75, 296.67 40.67, 296.67 62.5 M296.67 62.5 C296.67 76.39, 289.72 83.33, 275.83 83.33 M275.83 83.33 C210.19 83.33, 144.55 83.33, 20.83 83.33 M20.83 83.33 C6.94 83.33, 0 76.39, 0 62.5 M0 62.5 C0 51.15, 0 39.8, 0 20.83 M0 20.83 C0 6.94, 6.94 0, 20.83 0" stroke="#1e1e1e" stroke-width="4.5" fill="none" stroke-dasharray="8 12"></path></g><g stroke-linecap="round" transform="translate(1032.222213745117 1048.3334350585933) rotate(0 291.6667175292966 50.833282470703125)"><path d="M25.42 0 C165.93 0, 306.44 0, 557.92 0 M557.92 0 C574.86 0, 583.33 8.47, 583.33 25.42 M583.33 25.42 C583.33 39.01, 583.33 52.6, 583.33 76.25 M583.33 76.25 C583.33 93.19, 574.86 101.67, 557.92 101.67 M557.92 101.67 C357.17 101.67, 156.41 101.67, 25.42 101.67 M25.42 101.67 C8.47 101.67, 0 93.19, 0 76.25 M0 76.25 C0 57.38, 0 38.52, 0 25.42 M0 25.42 C0 8.47, 8.47 0, 25.42 0" stroke="#1e1e1e" stroke-width="4.5" fill="none" stroke-dasharray="8 12"></path></g><g transform="translate(1132.2222137451167 1094.9999999999995) rotate(0 131.25000000000006 16.80000000000001)"><text x="0" y="0" font-family="Cascadia, Segoe UI Emoji" font-size="28px" fill="#1e1e1e" text-anchor="start" style="white-space: pre;" direction="ltr" dominant-baseline="text-before-edge">Session Mananger</text></g><g transform="translate(1413.8889312744132 758.3332824707028) rotate(0 49.21875 16.80000000000001)"><text x="0" y="0" font-family="Cascadia, Segoe UI Emoji" font-size="28px" fill="#1e1e1e" text-anchor="start" style="white-space: pre;" direction="ltr" dominant-baseline="text-before-edge">Signin</text></g><g transform="translate(1042.2222137451167 939.9999999999997) rotate(0 90.234375 16.80000000000001)"><text x="0" y="0" font-family="Cascadia, Segoe UI Emoji" font-size="28px" fill="#1e1e1e" text-anchor="start" style="white-space: pre;" direction="ltr" dominant-baseline="text-before-edge">Change Pass</text></g><g transform="translate(1369.7222137451167 944.9999999999997) rotate(0 98.4375 16.80000000000001)"><text x="0" y="0" font-family="Cascadia, Segoe UI Emoji" font-size="28px" fill="#1e1e1e" text-anchor="start" style="white-space: pre;" direction="ltr" dominant-baseline="text-before-edge">Change Uname</text></g><g stroke-linecap="round" transform="translate(2015.55564880371 61.66667938232422) rotate(0 366.66671752929665 230.00001907348627)"><path d="M32 0 C275.62 0, 519.24 0, 701.33 0 M32 0 C256.7 0, 481.4 0, 701.33 0 M701.33 0 C722.67 0, 733.33 10.67, 733.33 32 M701.33 0 C722.67 0, 733.33 10.67, 733.33 32 M733.33 32 C733.33 186.12, 733.33 340.23, 733.33 428 M733.33 32 C733.33 126.58, 733.33 221.17, 733.33 428 M733.33 428 C733.33 449.33, 722.67 460, 701.33 460 M733.33 428 C733.33 449.33, 722.67 460, 701.33 460 M701.33 460 C443.7 460, 186.07 460, 32 460 M701.33 460 C464.72 460, 228.1 460, 32 460 M32 460 C10.67 460, 0 449.33, 0 428 M32 460 C10.67 460, 0 449.33, 0 428 M0 428 C0 346.85, 0 265.71, 0 32 M0 428 C0 320.02, 0 212.05, 0 32 M0 32 C0 10.67, 10.67 0, 32 0 M0 32 C0 10.67, 10.67 0, 32 0" stroke="#1e1e1e" stroke-width="4" fill="none"></path></g><g transform="translate(992.222213745117 50.19999999999999) rotate(0 94.921875 21.599999999999994)"><text x="0" y="0" font-family="Cascadia, Segoe UI Emoji" font-size="36px" fill="#1e1e1e" text-anchor="start" style="white-space: pre;" direction="ltr" dominant-baseline="text-before-edge">App Logic</text></g><g transform="translate(1022.222213745117 607.4999999999998) rotate(0 105.46875 21.599999999999994)"><text x="0" y="0" font-family="Cascadia, Segoe UI Emoji" font-size="36px" fill="#1e1e1e" text-anchor="start" style="white-space: pre;" direction="ltr" dominant-baseline="text-before-edge">User Logic</text></g><g transform="translate(547.222213745117 559.9999999999998) rotate(0 63.28125 21.599999999999994)"><text x="0" y="0" font-family="Cascadia, Segoe UI Emoji" font-size="36px" fill="#1e1e1e" text-anchor="start" style="white-space: pre;" direction="ltr" dominant-baseline="text-before-edge">Server</text></g><g transform="translate(2084.7222137451163 10) rotate(0 147.65625 21.599999999999994)"><text x="0" y="0" font-family="Cascadia, Segoe UI Emoji" font-size="36px" fill="#1e1e1e" text-anchor="start" style="white-space: pre;" direction="ltr" dominant-baseline="text-before-edge">HTML Templates</text></g><g transform="translate(2042.2222137451163 664.166564941406) rotate(0 84.375 21.599999999999994)"><text x="0" y="0" font-family="Cascadia, Segoe UI Emoji" font-size="36px" fill="#1e1e1e" text-anchor="start" style="white-space: pre;" direction="ltr" dominant-baseline="text-before-edge">Database</text></g><g stroke-linecap="round" transform="translate(2018.8890838623038 724.9999999999997) rotate(0 376.666564941406 253.33335876464844)"><path d="M32 0 C293.57 0, 555.14 0, 721.33 0 M32 0 C217.38 0, 402.76 0, 721.33 0 M721.33 0 C742.67 0, 753.33 10.67, 753.33 32 M721.33 0 C742.67 0, 753.33 10.67, 753.33 32 M753.33 32 C753.33 161.08, 753.33 290.15, 753.33 474.67 M753.33 32 C753.33 174.85, 753.33 317.71, 753.33 474.67 M753.33 474.67 C753.33 496, 742.67 506.67, 721.33 506.67 M753.33 474.67 C753.33 496, 742.67 506.67, 721.33 506.67 M721.33 506.67 C532.63 506.67, 343.92 506.67, 32 506.67 M721.33 506.67 C453.02 506.67, 184.7 506.67, 32 506.67 M32 506.67 C10.67 506.67, 0 496, 0 474.67 M32 506.67 C10.67 506.67, 0 496, 0 474.67 M0 474.67 C0 325.71, 0 176.75, 0 32 M0 474.67 C0 310.96, 0 147.25, 0 32 M0 32 C0 10.67, 10.67 0, 32 0 M0 32 C0 10.67, 10.67 0, 32 0" stroke="#1e1e1e" stroke-width="4" fill="none"></path></g><g stroke-linecap="round" transform="translate(2108.889083862304 814.9999999999997) rotate(0 290 100.83335876464844)"><path d="M32 0 C141.81 0, 251.62 0, 548 0 M548 0 C569.33 0, 580 10.67, 580 32 M580 32 C580 70.78, 580 109.56, 580 169.67 M580 169.67 C580 191, 569.33 201.67, 548 201.67 M548 201.67 C346.92 201.67, 145.85 201.67, 32 201.67 M32 201.67 C10.67 201.67, 0 191, 0 169.67 M0 169.67 C0 123.86, 0 78.06, 0 32 M0 32 C0 10.67, 10.67 0, 32 0" stroke="#1e1e1e" stroke-width="4.5" fill="none" stroke-dasharray="8 12"></path></g><g transform="translate(2182.2222137451163 889.9999999999997) rotate(0 168.75 21.600000000000023)"><text x="0" y="0" font-family="Cascadia, Segoe UI Emoji" font-size="36px" fill="#1e1e1e" text-anchor="start" style="white-space: pre;" direction="ltr" dominant-baseline="text-before-edge">Database Manager</text></g><g stroke-linecap="round" transform="translate(2120.55564880371 189.99999999999994) rotate(0 285.8332824707031 109.99999999999997)"><path d="M32 0 C134.04 0, 236.09 0, 539.67 0 M539.67 0 C561 0, 571.67 10.67, 571.67 32 M571.67 32 C571.67 71.46, 571.67 110.92, 571.67 188 M571.67 188 C571.67 209.33, 561 220, 539.67 220 M539.67 220 C346 220, 152.34 220, 32 220 M32 220 C10.67 220, 0 209.33, 0 188 M0 188 C0 140.76, 0 93.52, 0 32 M0 32 C0 10.67, 10.67 0, 32 0" stroke="#1e1e1e" stroke-width="4.5" fill="none" stroke-dasharray="8 12"></path></g><g transform="translate(2217.2222137451163 299.9999999999999) rotate(0 179.296875 21.599999999999994)"><text x="0" y="0" font-family="Cascadia, Segoe UI Emoji" font-size="36px" fill="#1e1e1e" text-anchor="start" style="white-space: pre;" direction="ltr" dominant-baseline="text-before-edge">Webpage Templates</text></g><g stroke-linecap="round"><g transform="translate(613.8889312744138 514.9999999999999) rotate(0 129.16664123535156 -115.83332061767578)"><path d="M0 0 C43.06 -38.61, 215.28 -193.06, 258.33 -231.67" stroke="#1e1e1e" stroke-width="4.5" fill="none" stroke-dasharray="8 12"></path></g><g transform="translate(613.8889312744138 514.9999999999999) rotate(0 129.16664123535156 -115.83332061767578)"><path d="M0 0 L5.89 -13.8 L14.35 -4.36 L0 0" stroke="none" stroke-width="0" fill="#1e1e1e" fill-rule="evenodd"></path><path d="M0 0 C1.31 -3.06, 2.61 -6.12, 5.89 -13.8 M5.89 -13.8 C8.73 -10.63, 11.56 -7.47, 14.35 -4.36 M14.35 -4.36 C8.94 -2.71, 3.53 -1.07, 0 0 M0 0 C0 0, 0 0, 0 0" stroke="#1e1e1e" stroke-width="4.5" fill="none"></path></g><g transform="translate(613.8889312744138 514.9999999999999) rotate(0 129.16664123535156 -115.83332061767578)"><path d="M258.33 -231.67 L252.44 -217.87 L243.98 -227.31 L258.33 -231.67" stroke="none" stroke-width="0" fill="#1e1e1e" fill-rule="evenodd"></path><path d="M258.33 -231.67 C257.03 -228.61, 255.72 -225.55, 252.44 -217.87 M252.44 -217.87 C249.61 -221.03, 246.77 -224.2, 243.98 -227.31 M243.98 -227.31 C249.39 -228.95, 254.8 -230.59, 258.33 -231.67 M258.33 -231.67 C258.33 -231.67, 258.33 -231.67, 258.33 -231.67" stroke="#1e1e1e" stroke-width="4.5" fill="none"></path></g></g><mask></mask><g stroke-linecap="round"><g transform="translate(627.222213745117 909.9999999999997) rotate(0 128.33335876464844 78.33335876464844)"><path d="M0 0 C42.78 26.11, 213.89 130.56, 256.67 156.67" stroke="#1e1e1e" stroke-width="4.5" fill="none" stroke-dasharray="8 12"></path></g><g transform="translate(627.222213745117 909.9999999999997) rotate(0 128.33335876464844 78.33335876464844)"><path d="M0 0 L14.91 1.67 L8.3 12.49 L0 0" stroke="none" stroke-width="0" fill="#1e1e1e" fill-rule="evenodd"></path><path d="M0 0 C3.35 0.38, 6.7 0.75, 14.91 1.67 M14.91 1.67 C12.28 5.98, 9.64 10.29, 8.3 12.49 M8.3 12.49 C6.39 9.61, 4.47 6.73, 0 0 M0 0 C0 0, 0 0, 0 0" stroke="#1e1e1e" stroke-width="4.5" fill="none"></path></g><g transform="translate(627.222213745117 909.9999999999997) rotate(0 128.33335876464844 78.33335876464844)"><path d="M256.67 156.67 L241.76 154.99 L248.37 144.17 L256.67 156.67" stroke="none" stroke-width="0" fill="#1e1e1e" fill-rule="evenodd"></path><path d="M256.67 156.67 C253.32 156.29, 249.97 155.92, 241.76 154.99 M241.76 154.99 C244.39 150.68, 247.02 146.37, 248.37 144.17 M248.37 144.17 C250.28 147.05, 252.19 149.93, 256.67 156.67 M256.67 156.67 C256.67 156.67, 256.67 156.67, 256.67 156.67" stroke="#1e1e1e" stroke-width="4.5" fill="none"></path></g></g><mask></mask><g stroke-linecap="round"><g transform="translate(1715.55564880371 299.9999999999999) rotate(0 136.66671752929688 0)"><path d="M0 0 C45.56 0, 227.78 0, 273.33 0" stroke="#1e1e1e" stroke-width="4.5" fill="none" stroke-dasharray="8 12"></path></g><g transform="translate(1715.55564880371 299.9999999999999) rotate(0 136.66671752929688 0)"><path d="M0 0 L13.59 -6.34 L13.59 6.34 L0 0" stroke="none" stroke-width="0" fill="#1e1e1e" fill-rule="evenodd"></path><path d="M0 0 C3.26 -1.52, 6.51 -3.04, 13.59 -6.34 M13.59 -6.34 C13.59 -3.77, 13.59 -1.19, 13.59 6.34 M13.59 6.34 C8.78 4.09, 3.97 1.85, 0 0 M0 0 C0 0, 0 0, 0 0" stroke="#1e1e1e" stroke-width="4.5" fill="none"></path></g><g transform="translate(1715.55564880371 299.9999999999999) rotate(0 136.66671752929688 0)"><path d="M273.33 0 L259.74 6.34 L259.74 -6.34 L273.33 0" stroke="none" stroke-width="0" fill="#1e1e1e" fill-rule="evenodd"></path><path d="M273.33 0 C270.08 1.52, 266.82 3.04, 259.74 6.34 M259.74 6.34 C259.74 3.77, 259.74 1.19, 259.74 -6.34 M259.74 -6.34 C264.55 -4.09, 269.37 -1.85, 273.33 0 M273.33 0 C273.33 0, 273.33 0, 273.33 0" stroke="#1e1e1e" stroke-width="4.5" fill="none"></path></g></g><mask></mask><g stroke-linecap="round"><g transform="translate(1728.8889312744132 969.9999999999997) rotate(0 134.16664123535156 0)"><path d="M0 0 C44.72 0, 223.61 0, 268.33 0" stroke="#1e1e1e" stroke-width="4.5" fill="none" stroke-dasharray="8 12"></path></g><g transform="translate(1728.8889312744132 969.9999999999997) rotate(0 134.16664123535156 0)"><path d="M0 0 L13.59 -6.34 L13.59 6.34 L0 0" stroke="none" stroke-width="0" fill="#1e1e1e" fill-rule="evenodd"></path><path d="M0 0 C4.89 -2.28, 9.77 -4.56, 13.59 -6.34 M13.59 -6.34 C13.59 -1.54, 13.59 3.26, 13.59 6.34 M13.59 6.34 C9.4 4.38, 5.21 2.43, 0 0 M0 0 C0 0, 0 0, 0 0" stroke="#1e1e1e" stroke-width="4.5" fill="none"></path></g><g transform="translate(1728.8889312744132 969.9999999999997) rotate(0 134.16664123535156 0)"><path d="M268.33 0 L254.74 6.34 L254.74 -6.34 L268.33 0" stroke="none" stroke-width="0" fill="#1e1e1e" fill-rule="evenodd"></path><path d="M268.33 0 C263.45 2.28, 258.56 4.56, 254.74 6.34 M254.74 6.34 C254.74 1.54, 254.74 -3.26, 254.74 -6.34 M254.74 -6.34 C258.93 -4.38, 263.13 -2.43, 268.33 0 M268.33 0 C268.33 0, 268.33 0, 268.33 0" stroke="#1e1e1e" stroke-width="4.5" fill="none"></path></g></g><mask></mask><g stroke-linecap="round"><g transform="translate(1718.8889312744132 553.3333587646482) rotate(0 135.0000762939453 93.33332061767572)"><path d="M0 0 C45 31.11, 225 155.56, 270 186.67" stroke="#1e1e1e" stroke-width="4.5" fill="none" stroke-dasharray="8 12"></path></g><g transform="translate(1718.8889312744132 553.3333587646482) rotate(0 135.0000762939453 93.33332061767572)"><path d="M0 0 L14.79 2.52 L7.58 12.95 L0 0" stroke="none" stroke-width="0" fill="#1e1e1e" fill-rule="evenodd"></path><path d="M0 0 C3.58 0.61, 7.15 1.22, 14.79 2.52 M14.79 2.52 C12.96 5.15, 11.14 7.79, 7.58 12.95 M7.58 12.95 C5.4 9.22, 3.22 5.5, 0 0 M0 0 C0 0, 0 0, 0 0" stroke="#1e1e1e" stroke-width="4.5" fill="none"></path></g><g transform="translate(1718.8889312744132 553.3333587646482) rotate(0 135.0000762939453 93.33332061767572)"><path d="M270 186.67 L255.21 184.15 L262.42 173.72 L270 186.67" stroke="none" stroke-width="0" fill="#1e1e1e" fill-rule="evenodd"></path><path d="M270 186.67 C266.42 186.06, 262.85 185.45, 255.21 184.15 M255.21 184.15 C257.04 181.51, 258.86 178.88, 262.42 173.72 M262.42 173.72 C264.6 177.44, 266.78 181.17, 270 186.67 M270 186.67 C270 186.67, 270 186.67, 270 186.67" stroke="#1e1e1e" stroke-width="4.5" fill="none"></path></g></g><mask></mask><g stroke-linecap="round"><g transform="translate(1733.8889312744132 748.3334350585934) rotate(0 127.50007629394531 -101.66671752929682)"><path d="M0 0 C42.5 -33.89, 212.5 -169.44, 255 -203.33" stroke="#1e1e1e" stroke-width="4.5" fill="none" stroke-dasharray="8 12"></path></g><g transform="translate(1733.8889312744132 748.3334350585934) rotate(0 127.50007629394531 -101.66671752929682)"><path d="M0 0 L6.68 -13.43 L14.58 -3.52 L0 0" stroke="none" stroke-width="0" fill="#1e1e1e" fill-rule="evenodd"></path><path d="M0 0 C2.36 -4.74, 4.71 -9.48, 6.68 -13.43 M6.68 -13.43 C9.19 -10.28, 11.7 -7.13, 14.58 -3.52 M14.58 -3.52 C9.09 -2.19, 3.61 -0.87, 0 0 M0 0 C0 0, 0 0, 0 0" stroke="#1e1e1e" stroke-width="4.5" fill="none"></path></g><g transform="translate(1733.8889312744132 748.3334350585934) rotate(0 127.50007629394531 -101.66671752929682)"><path d="M255 -203.33 L248.32 -189.9 L240.42 -199.81 L255 -203.33" stroke="none" stroke-width="0" fill="#1e1e1e" fill-rule="evenodd"></path><path d="M255 -203.33 C252.65 -198.6, 250.29 -193.86, 248.32 -189.9 M248.32 -189.9 C245.81 -193.05, 243.3 -196.2, 240.42 -199.81 M240.42 -199.81 C245.91 -201.14, 251.39 -202.46, 255 -203.33 M255 -203.33 C255 -203.33, 255 -203.33, 255 -203.33" stroke="#1e1e1e" stroke-width="4.5" fill="none"></path></g></g><mask></mask></svg>