<?xml version="1.0" encoding="us-ascii" standalone="no"?><svg xmlns="http://www.w3.org/2000/svg" xmlns:xlink="http://www.w3.org/1999/xlink" contentStyleType="text/css" height="1449px" preserveAspectRatio="none" style="width:3451px;height:1449px;background:#FFFFFF;" version="1.1" viewBox="0 0 3451 1449" width="3451px" zoomAndPan="magnify"><defs/><g><!--cluster user_logic--><g id="cluster_user_logic"><path d="M725.5,150 L805.5,150 A5.25,5.25 0 0 1 809,153.5 L816,172.2969 L1936.5,172.2969 A3.5,3.5 0 0 1 1940,175.7969 L1940,392.5 A3.5,3.5 0 0 1 1936.5,396 L725.5,396 A3.5,3.5 0 0 1 722,392.5 L722,153.5 A3.5,3.5 0 0 1 725.5,150 " fill="none" style="stroke:#696969;stroke-width:1.0;"/><line style="stroke:#696969;stroke-width:1.0;" x1="722" x2="816" y1="172.2969" y2="172.2969"/><text fill="#000000" font-family="sans-serif" font-size="14" font-weight="bold" lengthAdjust="spacing" textLength="81" x="726" y="164.9951">user_logic</text></g><!--cluster dataHandler--><g id="cluster_dataHandler"><path d="M1829.5,453 L1928.5,453 A5.25,5.25 0 0 1 1932,456.5 L1939,475.2969 L2647.5,475.2969 A3.5,3.5 0 0 1 2651,478.7969 L2651,1145.5 A3.5,3.5 0 0 1 2647.5,1149 L1829.5,1149 A3.5,3.5 0 0 1 1826,1145.5 L1826,456.5 A3.5,3.5 0 0 1 1829.5,453 " fill="none" style="stroke:#696969;stroke-width:1.0;"/><line style="stroke:#696969;stroke-width:1.0;" x1="1826" x2="1939" y1="475.2969" y2="475.2969"/><text fill="#000000" font-family="sans-serif" font-size="14" font-weight="bold" lengthAdjust="spacing" textLength="100" x="1830" y="467.9951">dataHandler</text></g><!--cluster HTML_Templates--><g id="cluster_HTML_Templates"><path d="M9.5,572.5 L146.5,572.5 A5.25,5.25 0 0 1 150,576 L157,594.7969 L1322.5,594.7969 A3.5,3.5 0 0 1 1326,598.2969 L1326,768 A3.5,3.5 0 0 1 1322.5,771.5 L9.5,771.5 A3.5,3.5 0 0 1 6,768 L6,576 A3.5,3.5 0 0 1 9.5,572.5 " fill="none" style="stroke:#696969;stroke-width:1.0;"/><line style="stroke:#696969;stroke-width:1.0;" x1="6" x2="157" y1="594.7969" y2="594.7969"/><text fill="#000000" font-family="sans-serif" font-size="14" font-weight="bold" lengthAdjust="spacing" textLength="138" x="10" y="587.4951">HTML_Templates</text></g><!--cluster Templates--><g id="cluster_Templates"><path d="M33.5,615.5 L118.5,615.5 A5.25,5.25 0 0 1 122,619 L129,637.7969 L1298.5,637.7969 A3.5,3.5 0 0 1 1302,641.2969 L1302,744 A3.5,3.5 0 0 1 1298.5,747.5 L33.5,747.5 A3.5,3.5 0 0 1 30,744 L30,619 A3.5,3.5 0 0 1 33.5,615.5 " fill="none" style="stroke:#696969;stroke-width:1.0;"/><line style="stroke:#696969;stroke-width:1.0;" x1="30" x2="129" y1="637.7969" y2="637.7969"/><text fill="#000000" font-family="sans-serif" font-size="14" font-weight="bold" lengthAdjust="spacing" textLength="86" x="34" y="630.4951">Templates</text></g><!--cluster Server--><g id="cluster_Server"><path d="M454.5,142 L504.5,142 A5.25,5.25 0 0 1 508,145.5 L515,164.2969 L686.5,164.2969 A3.5,3.5 0 0 1 690,167.7969 L690,400.5 A3.5,3.5 0 0 1 686.5,404 L454.5,404 A3.5,3.5 0 0 1 451,400.5 L451,145.5 A3.5,3.5 0 0 1 454.5,142 " fill="none" style="stroke:#696969;stroke-width:1.0;"/><line style="stroke:#696969;stroke-width:1.0;" x1="451" x2="515" y1="164.2969" y2="164.2969"/><text fill="#000000" font-family="sans-serif" font-size="14" font-weight="bold" lengthAdjust="spacing" textLength="51" x="455" y="156.9951">Server</text></g><!--cluster logic--><g id="cluster_logic"><path d="M2686.5,952.5 L2724.5,952.5 A5.25,5.25 0 0 1 2728,956 L2735,974.7969 L3337.5,974.7969 A3.5,3.5 0 0 1 3341,978.2969 L3341,1438.5 A3.5,3.5 0 0 1 3337.5,1442 L2686.5,1442 A3.5,3.5 0 0 1 2683,1438.5 L2683,956 A3.5,3.5 0 0 1 2686.5,952.5 " fill="none" style="stroke:#696969;stroke-width:1.0;"/><line style="stroke:#696969;stroke-width:1.0;" x1="2683" x2="2735" y1="974.7969" y2="974.7969"/><text fill="#000000" font-family="sans-serif" font-size="14" font-weight="bold" lengthAdjust="spacing" textLength="39" x="2687" y="967.4951">logic</text></g><!--class session_check--><g id="elem_session_check"><rect codeLine="12" fill="#F1F1F1" height="64.2969" id="session_check" rx="3.5" ry="3.5" style="stroke:#181818;stroke-width:0.5;" width="236" x="738" y="250.5"/><ellipse cx="800.75" cy="266.5" fill="#ADD1B2" rx="11" ry="11" style="stroke:#181818;stroke-width:1.0;"/><path d="M803.0938,262.1719 C802.1563,261.7344 801.5625,261.5938 800.6875,261.5938 C798.0625,261.5938 796.0625,263.6719 796.0625,266.3906 L796.0625,267.5156 C796.0625,270.0938 798.1719,271.9844 801.0625,271.9844 C802.2813,271.9844 803.4375,271.6875 804.1875,271.1406 C804.7656,270.7344 805.0938,270.2813 805.0938,269.8906 C805.0938,269.4375 804.7031,269.0469 804.2344,269.0469 C804.0156,269.0469 803.8125,269.125 803.625,269.3125 C803.1719,269.7969 803.1719,269.7969 802.9844,269.8906 C802.5625,270.1563 801.875,270.2813 801.1094,270.2813 C799.0625,270.2813 797.7656,269.1875 797.7656,267.4844 L797.7656,266.3906 C797.7656,264.6094 799.0156,263.2969 800.75,263.2969 C801.3281,263.2969 801.9375,263.4531 802.4063,263.7031 C802.8906,263.9844 803.0625,264.2031 803.1563,264.6094 C803.2188,265.0156 803.25,265.1406 803.3906,265.2656 C803.5313,265.4063 803.7656,265.5156 803.9844,265.5156 C804.25,265.5156 804.5156,265.375 804.6875,265.1563 C804.7969,265 804.8281,264.8125 804.8281,264.3906 L804.8281,262.9688 C804.8281,262.5313 804.8125,262.4063 804.7188,262.25 C804.5625,261.9844 804.2813,261.8438 803.9844,261.8438 C803.6875,261.8438 803.4844,261.9375 803.2656,262.25 L803.0938,262.1719 Z " fill="#000000"/><text fill="#000000" font-family="sans-serif" font-size="14" lengthAdjust="spacing" textLength="102" x="821.25" y="271.3467">session_check</text><line style="stroke:#181818;stroke-width:0.5;" x1="739" x2="973" y1="282.5" y2="282.5"/><line style="stroke:#181818;stroke-width:0.5;" x1="739" x2="973" y1="290.5" y2="290.5"/><ellipse cx="749" cy="304.1484" fill="#84BE84" rx="3" ry="3" style="stroke:#038048;stroke-width:1.0;"/><text fill="#000000" font-family="sans-serif" font-size="14" lengthAdjust="spacing" textLength="210" x="758" y="307.4951">index(session_data: dict) : str</text></g><!--class login--><g id="elem_login"><rect codeLine="16" fill="#F1F1F1" height="178.375" id="login" rx="3.5" ry="3.5" style="stroke:#181818;stroke-width:0.5;" width="521" x="1009.5" y="193.5"/><ellipse cx="1248.25" cy="209.5" fill="#ADD1B2" rx="11" ry="11" style="stroke:#181818;stroke-width:1.0;"/><path d="M1250.5938,205.1719 C1249.6563,204.7344 1249.0625,204.5938 1248.1875,204.5938 C1245.5625,204.5938 1243.5625,206.6719 1243.5625,209.3906 L1243.5625,210.5156 C1243.5625,213.0938 1245.6719,214.9844 1248.5625,214.9844 C1249.7813,214.9844 1250.9375,214.6875 1251.6875,214.1406 C1252.2656,213.7344 1252.5938,213.2813 1252.5938,212.8906 C1252.5938,212.4375 1252.2031,212.0469 1251.7344,212.0469 C1251.5156,212.0469 1251.3125,212.125 1251.125,212.3125 C1250.6719,212.7969 1250.6719,212.7969 1250.4844,212.8906 C1250.0625,213.1563 1249.375,213.2813 1248.6094,213.2813 C1246.5625,213.2813 1245.2656,212.1875 1245.2656,210.4844 L1245.2656,209.3906 C1245.2656,207.6094 1246.5156,206.2969 1248.25,206.2969 C1248.8281,206.2969 1249.4375,206.4531 1249.9063,206.7031 C1250.3906,206.9844 1250.5625,207.2031 1250.6563,207.6094 C1250.7188,208.0156 1250.75,208.1406 1250.8906,208.2656 C1251.0313,208.4063 1251.2656,208.5156 1251.4844,208.5156 C1251.75,208.5156 1252.0156,208.375 1252.1875,208.1563 C1252.2969,208 1252.3281,207.8125 1252.3281,207.3906 L1252.3281,205.9688 C1252.3281,205.5313 1252.3125,205.4063 1252.2188,205.25 C1252.0625,204.9844 1251.7813,204.8438 1251.4844,204.8438 C1251.1875,204.8438 1250.9844,204.9375 1250.7656,205.25 L1250.5938,205.1719 Z " fill="#000000"/><text fill="#000000" font-family="sans-serif" font-size="14" lengthAdjust="spacing" textLength="35" x="1268.75" y="214.3467">login</text><line style="stroke:#181818;stroke-width:0.5;" x1="1010.5" x2="1529.5" y1="225.5" y2="225.5"/><rect fill="none" height="6" style="stroke:#C82930;stroke-width:1.0;" width="6" x="1017.5" y="236.1484"/><text fill="#000000" font-family="sans-serif" font-size="14" lengthAdjust="spacing" textLength="183" x="1029.5" y="242.4951">dataHandler: dataHandler</text><rect fill="none" height="6" style="stroke:#C82930;stroke-width:1.0;" width="6" x="1017.5" y="252.4453"/><text fill="#000000" font-family="sans-serif" font-size="14" lengthAdjust="spacing" textLength="76" x="1029.5" y="258.792">key: bytes</text><rect fill="none" height="6" style="stroke:#C82930;stroke-width:1.0;" width="6" x="1017.5" y="268.7422"/><text fill="#000000" font-family="sans-serif" font-size="14" lengthAdjust="spacing" textLength="103" x="1029.5" y="275.0889">fernet: Fernet</text><line style="stroke:#181818;stroke-width:0.5;" x1="1010.5" x2="1529.5" y1="282.3906" y2="282.3906"/><ellipse cx="1020.5" cy="296.0391" fill="#84BE84" rx="3" ry="3" style="stroke:#038048;stroke-width:1.0;"/><text fill="#000000" font-family="sans-serif" font-size="14" lengthAdjust="spacing" textLength="495" x="1029.5" y="299.3857">verify_password(stored_password: str, provided_password: str) : bool</text><ellipse cx="1020.5" cy="312.3359" fill="#84BE84" rx="3" ry="3" style="stroke:#038048;stroke-width:1.0;"/><text fill="#000000" font-family="sans-serif" font-size="14" lengthAdjust="spacing" textLength="121" x="1029.5" y="315.6826">login_page() : str</text><ellipse cx="1020.5" cy="328.6328" fill="#84BE84" rx="3" ry="3" style="stroke:#038048;stroke-width:1.0;"/><text fill="#000000" font-family="sans-serif" font-size="14" lengthAdjust="spacing" textLength="293" x="1029.5" y="331.9795">login(username: str, password: str) : bool</text><ellipse cx="1020.5" cy="344.9297" fill="#84BE84" rx="3" ry="3" style="stroke:#038048;stroke-width:1.0;"/><text fill="#000000" font-family="sans-serif" font-size="14" lengthAdjust="spacing" textLength="291" x="1029.5" y="348.2764">do_login(session_data: dict) : str or None</text><ellipse cx="1020.5" cy="361.2266" fill="#84BE84" rx="3" ry="3" style="stroke:#038048;stroke-width:1.0;"/><text fill="#000000" font-family="sans-serif" font-size="14" lengthAdjust="spacing" textLength="234" x="1029.5" y="364.5732">logout(session_data: dict) : None</text></g><!--class signin--><g id="elem_signin"><rect codeLine="28" fill="#F1F1F1" height="194.6719" id="signin" rx="3.5" ry="3.5" style="stroke:#181818;stroke-width:0.5;" width="358" x="1566" y="185"/><ellipse cx="1719.75" cy="201" fill="#ADD1B2" rx="11" ry="11" style="stroke:#181818;stroke-width:1.0;"/><path d="M1722.0938,196.6719 C1721.1563,196.2344 1720.5625,196.0938 1719.6875,196.0938 C1717.0625,196.0938 1715.0625,198.1719 1715.0625,200.8906 L1715.0625,202.0156 C1715.0625,204.5938 1717.1719,206.4844 1720.0625,206.4844 C1721.2813,206.4844 1722.4375,206.1875 1723.1875,205.6406 C1723.7656,205.2344 1724.0938,204.7813 1724.0938,204.3906 C1724.0938,203.9375 1723.7031,203.5469 1723.2344,203.5469 C1723.0156,203.5469 1722.8125,203.625 1722.625,203.8125 C1722.1719,204.2969 1722.1719,204.2969 1721.9844,204.3906 C1721.5625,204.6563 1720.875,204.7813 1720.1094,204.7813 C1718.0625,204.7813 1716.7656,203.6875 1716.7656,201.9844 L1716.7656,200.8906 C1716.7656,199.1094 1718.0156,197.7969 1719.75,197.7969 C1720.3281,197.7969 1720.9375,197.9531 1721.4063,198.2031 C1721.8906,198.4844 1722.0625,198.7031 1722.1563,199.1094 C1722.2188,199.5156 1722.25,199.6406 1722.3906,199.7656 C1722.5313,199.9063 1722.7656,200.0156 1722.9844,200.0156 C1723.25,200.0156 1723.5156,199.875 1723.6875,199.6563 C1723.7969,199.5 1723.8281,199.3125 1723.8281,198.8906 L1723.8281,197.4688 C1723.8281,197.0313 1723.8125,196.9063 1723.7188,196.75 C1723.5625,196.4844 1723.2813,196.3438 1722.9844,196.3438 C1722.6875,196.3438 1722.4844,196.4375 1722.2656,196.75 L1722.0938,196.6719 Z " fill="#000000"/><text fill="#000000" font-family="sans-serif" font-size="14" lengthAdjust="spacing" textLength="42" x="1740.25" y="205.8467">signin</text><line style="stroke:#181818;stroke-width:0.5;" x1="1567" x2="1923" y1="217" y2="217"/><rect fill="none" height="6" style="stroke:#C82930;stroke-width:1.0;" width="6" x="1574" y="227.6484"/><text fill="#000000" font-family="sans-serif" font-size="14" lengthAdjust="spacing" textLength="183" x="1586" y="233.9951">dataHandler: dataHandler</text><rect fill="none" height="6" style="stroke:#C82930;stroke-width:1.0;" width="6" x="1574" y="243.9453"/><text fill="#000000" font-family="sans-serif" font-size="14" lengthAdjust="spacing" textLength="76" x="1586" y="250.292">key: bytes</text><rect fill="none" height="6" style="stroke:#C82930;stroke-width:1.0;" width="6" x="1574" y="260.2422"/><text fill="#000000" font-family="sans-serif" font-size="14" lengthAdjust="spacing" textLength="103" x="1586" y="266.5889">fernet: Fernet</text><line style="stroke:#181818;stroke-width:0.5;" x1="1567" x2="1923" y1="273.8906" y2="273.8906"/><ellipse cx="1577" cy="287.5391" fill="#84BE84" rx="3" ry="3" style="stroke:#038048;stroke-width:1.0;"/><text fill="#000000" font-family="sans-serif" font-size="14" lengthAdjust="spacing" textLength="256" x="1586" y="290.8857">is_user_id_unique(user_id: str) : bool</text><ellipse cx="1577" cy="303.8359" fill="#84BE84" rx="3" ry="3" style="stroke:#038048;stroke-width:1.0;"/><text fill="#000000" font-family="sans-serif" font-size="14" lengthAdjust="spacing" textLength="296" x="1586" y="307.1826">generate_unique_user_id(length: int) : str</text><ellipse cx="1577" cy="320.1328" fill="#84BE84" rx="3" ry="3" style="stroke:#038048;stroke-width:1.0;"/><text fill="#000000" font-family="sans-serif" font-size="14" lengthAdjust="spacing" textLength="294" x="1586" y="323.4795">username_available(username: str) : bool</text><ellipse cx="1577" cy="336.4297" fill="#84BE84" rx="3" ry="3" style="stroke:#038048;stroke-width:1.0;"/><text fill="#000000" font-family="sans-serif" font-size="14" lengthAdjust="spacing" textLength="332" x="1586" y="339.7764">save_user(username: str, password: str) : None</text><ellipse cx="1577" cy="352.7266" fill="#84BE84" rx="3" ry="3" style="stroke:#038048;stroke-width:1.0;"/><text fill="#000000" font-family="sans-serif" font-size="14" lengthAdjust="spacing" textLength="133" x="1586" y="356.0732">signup_page() : str</text><ellipse cx="1577" cy="369.0234" fill="#84BE84" rx="3" ry="3" style="stroke:#038048;stroke-width:1.0;"/><text fill="#000000" font-family="sans-serif" font-size="14" lengthAdjust="spacing" textLength="278" x="1586" y="372.3701">signup(session_data: dict) : str or None</text></g><!--class dataBaseHandler--><g id="elem_dataBaseHandler"><rect codeLine="94" fill="#F1F1F1" height="390.2344" id="dataBaseHandler" rx="3.5" ry="3.5" style="stroke:#181818;stroke-width:0.5;" width="758" x="1869" y="496"/><ellipse cx="2183.25" cy="512" fill="#ADD1B2" rx="11" ry="11" style="stroke:#181818;stroke-width:1.0;"/><path d="M2185.5938,507.6719 C2184.6563,507.2344 2184.0625,507.0938 2183.1875,507.0938 C2180.5625,507.0938 2178.5625,509.1719 2178.5625,511.8906 L2178.5625,513.0156 C2178.5625,515.5938 2180.6719,517.4844 2183.5625,517.4844 C2184.7813,517.4844 2185.9375,517.1875 2186.6875,516.6406 C2187.2656,516.2344 2187.5938,515.7813 2187.5938,515.3906 C2187.5938,514.9375 2187.2031,514.5469 2186.7344,514.5469 C2186.5156,514.5469 2186.3125,514.625 2186.125,514.8125 C2185.6719,515.2969 2185.6719,515.2969 2185.4844,515.3906 C2185.0625,515.6563 2184.375,515.7813 2183.6094,515.7813 C2181.5625,515.7813 2180.2656,514.6875 2180.2656,512.9844 L2180.2656,511.8906 C2180.2656,510.1094 2181.5156,508.7969 2183.25,508.7969 C2183.8281,508.7969 2184.4375,508.9531 2184.9063,509.2031 C2185.3906,509.4844 2185.5625,509.7031 2185.6563,510.1094 C2185.7188,510.5156 2185.75,510.6406 2185.8906,510.7656 C2186.0313,510.9063 2186.2656,511.0156 2186.4844,511.0156 C2186.75,511.0156 2187.0156,510.875 2187.1875,510.6563 C2187.2969,510.5 2187.3281,510.3125 2187.3281,509.8906 L2187.3281,508.4688 C2187.3281,508.0313 2187.3125,507.9063 2187.2188,507.75 C2187.0625,507.4844 2186.7813,507.3438 2186.4844,507.3438 C2186.1875,507.3438 2185.9844,507.4375 2185.7656,507.75 L2185.5938,507.6719 Z " fill="#000000"/><text fill="#000000" font-family="sans-serif" font-size="14" lengthAdjust="spacing" textLength="121" x="2203.75" y="516.8467">dataBaseHandler</text><line style="stroke:#181818;stroke-width:0.5;" x1="1870" x2="2626" y1="528" y2="528"/><text fill="#000000" font-family="sans-serif" font-size="14" lengthAdjust="spacing" textLength="109" x="1875" y="544.9951">_userItems: list</text><text fill="#000000" font-family="sans-serif" font-size="14" lengthAdjust="spacing" textLength="117" x="1875" y="561.292">_topicItems: list</text><line style="stroke:#181818;stroke-width:0.5;" x1="1870" x2="2626" y1="568.5938" y2="568.5938"/><ellipse cx="1880" cy="582.2422" fill="#84BE84" rx="3" ry="3" style="stroke:#038048;stroke-width:1.0;"/><text fill="#000000" font-family="sans-serif" font-size="14" lengthAdjust="spacing" textLength="34" x="1889" y="585.5889">init()</text><ellipse cx="1880" cy="598.5391" fill="#84BE84" rx="3" ry="3" style="stroke:#038048;stroke-width:1.0;"/><text fill="#000000" font-family="sans-serif" font-size="14" lengthAdjust="spacing" textLength="32" x="1889" y="601.8857">len()</text><ellipse cx="1880" cy="614.8359" fill="#84BE84" rx="3" ry="3" style="stroke:#038048;stroke-width:1.0;"/><text fill="#000000" font-family="sans-serif" font-size="14" lengthAdjust="spacing" textLength="36" x="1889" y="618.1826">iter()</text><ellipse cx="1880" cy="631.1328" fill="#84BE84" rx="3" ry="3" style="stroke:#038048;stroke-width:1.0;"/><text fill="#000000" font-family="sans-serif" font-size="14" lengthAdjust="spacing" textLength="186" x="1889" y="634.4795">addUser(new_item: Tuple)</text><ellipse cx="1880" cy="647.4297" fill="#84BE84" rx="3" ry="3" style="stroke:#038048;stroke-width:1.0;"/><text fill="#000000" font-family="sans-serif" font-size="14" lengthAdjust="spacing" textLength="161" x="1889" y="650.7764">lookUpUserID(key: int)</text><ellipse cx="1880" cy="663.7266" fill="#84BE84" rx="3" ry="3" style="stroke:#038048;stroke-width:1.0;"/><text fill="#000000" font-family="sans-serif" font-size="14" lengthAdjust="spacing" textLength="232" x="1889" y="667.0732">lookUpUserName(userName: str)</text><ellipse cx="1880" cy="680.0234" fill="#84BE84" rx="3" ry="3" style="stroke:#038048;stroke-width:1.0;"/><text fill="#000000" font-family="sans-serif" font-size="14" lengthAdjust="spacing" textLength="151" x="1889" y="683.3701">removeUser(key: int)</text><ellipse cx="1880" cy="696.3203" fill="#84BE84" rx="3" ry="3" style="stroke:#038048;stroke-width:1.0;"/><text fill="#000000" font-family="sans-serif" font-size="14" lengthAdjust="spacing" textLength="135" x="1889" y="699.667">deleteTableUsers()</text><ellipse cx="1880" cy="712.6172" fill="#84BE84" rx="3" ry="3" style="stroke:#038048;stroke-width:1.0;"/><text fill="#000000" font-family="sans-serif" font-size="14" lengthAdjust="spacing" textLength="138" x="1889" y="715.9639">displayTableUsers()</text><ellipse cx="1880" cy="728.9141" fill="#84BE84" rx="3" ry="3" style="stroke:#038048;stroke-width:1.0;"/><text fill="#000000" font-family="sans-serif" font-size="14" lengthAdjust="spacing" textLength="193" x="1889" y="732.2607">addtopic(new_item: Tuple)</text><ellipse cx="1880" cy="745.2109" fill="#84BE84" rx="3" ry="3" style="stroke:#038048;stroke-width:1.0;"/><text fill="#000000" font-family="sans-serif" font-size="14" lengthAdjust="spacing" textLength="235" x="1889" y="748.5576">lookUpusertopics(userName: str)</text><ellipse cx="1880" cy="761.5078" fill="#84BE84" rx="3" ry="3" style="stroke:#038048;stroke-width:1.0;"/><text fill="#000000" font-family="sans-serif" font-size="14" lengthAdjust="spacing" textLength="346" x="1889" y="764.8545">lookUpSpecifictopic(userName: str, topicID: int)</text><ellipse cx="1880" cy="777.8047" fill="#84BE84" rx="3" ry="3" style="stroke:#038048;stroke-width:1.0;"/><text fill="#000000" font-family="sans-serif" font-size="14" lengthAdjust="spacing" textLength="223" x="1889" y="781.1514">lookUpSpecificSubstring(s: str)</text><ellipse cx="1880" cy="794.1016" fill="#84BE84" rx="3" ry="3" style="stroke:#038048;stroke-width:1.0;"/><text fill="#000000" font-family="sans-serif" font-size="14" lengthAdjust="spacing" textLength="732" x="1889" y="797.4482">updatetopicRating(userName: str, topicID: int, structure: int, quality: int, likeStat: int, dislikeStat: int)</text><ellipse cx="1880" cy="810.3984" fill="#84BE84" rx="3" ry="3" style="stroke:#038048;stroke-width:1.0;"/><text fill="#000000" font-family="sans-serif" font-size="14" lengthAdjust="spacing" textLength="375" x="1889" y="813.7451">getSpecifictopicRatings(userName: str, topicID: int)</text><ellipse cx="1880" cy="826.6953" fill="#84BE84" rx="3" ry="3" style="stroke:#038048;stroke-width:1.0;"/><text fill="#000000" font-family="sans-serif" font-size="14" lengthAdjust="spacing" textLength="285" x="1889" y="830.042">deletetopic(userName: str, topicID: int)</text><ellipse cx="1880" cy="842.9922" fill="#84BE84" rx="3" ry="3" style="stroke:#038048;stroke-width:1.0;"/><text fill="#000000" font-family="sans-serif" font-size="14" lengthAdjust="spacing" textLength="142" x="1889" y="846.3389">deleteTabletopics()</text><ellipse cx="1880" cy="859.2891" fill="#84BE84" rx="3" ry="3" style="stroke:#038048;stroke-width:1.0;"/><text fill="#000000" font-family="sans-serif" font-size="14" lengthAdjust="spacing" textLength="145" x="1889" y="862.6357">displayTabletopics()</text><ellipse cx="1880" cy="875.5859" fill="#84BE84" rx="3" ry="3" style="stroke:#038048;stroke-width:1.0;"/><text fill="#000000" font-family="sans-serif" font-size="14" lengthAdjust="spacing" textLength="192" x="1889" y="878.9326">displayTabletopicRatings()</text></g><!--class users--><g id="elem_users"><rect codeLine="120" fill="#F1F1F1" height="129.4844" id="users" rx="3.5" ry="3.5" style="stroke:#181818;stroke-width:0.5;" width="145" x="1995.5" y="971.5"/><ellipse cx="2045.25" cy="987.5" fill="#ADD1B2" rx="11" ry="11" style="stroke:#181818;stroke-width:1.0;"/><path d="M2047.5938,983.1719 C2046.6563,982.7344 2046.0625,982.5938 2045.1875,982.5938 C2042.5625,982.5938 2040.5625,984.6719 2040.5625,987.3906 L2040.5625,988.5156 C2040.5625,991.0938 2042.6719,992.9844 2045.5625,992.9844 C2046.7813,992.9844 2047.9375,992.6875 2048.6875,992.1406 C2049.2656,991.7344 2049.5938,991.2813 2049.5938,990.8906 C2049.5938,990.4375 2049.2031,990.0469 2048.7344,990.0469 C2048.5156,990.0469 2048.3125,990.125 2048.125,990.3125 C2047.6719,990.7969 2047.6719,990.7969 2047.4844,990.8906 C2047.0625,991.1563 2046.375,991.2813 2045.6094,991.2813 C2043.5625,991.2813 2042.2656,990.1875 2042.2656,988.4844 L2042.2656,987.3906 C2042.2656,985.6094 2043.5156,984.2969 2045.25,984.2969 C2045.8281,984.2969 2046.4375,984.4531 2046.9063,984.7031 C2047.3906,984.9844 2047.5625,985.2031 2047.6563,985.6094 C2047.7188,986.0156 2047.75,986.1406 2047.8906,986.2656 C2048.0313,986.4063 2048.2656,986.5156 2048.4844,986.5156 C2048.75,986.5156 2049.0156,986.375 2049.1875,986.1563 C2049.2969,986 2049.3281,985.8125 2049.3281,985.3906 L2049.3281,983.9688 C2049.3281,983.5313 2049.3125,983.4063 2049.2188,983.25 C2049.0625,982.9844 2048.7813,982.8438 2048.4844,982.8438 C2048.1875,982.8438 2047.9844,982.9375 2047.7656,983.25 L2047.5938,983.1719 Z " fill="#000000"/><text fill="#000000" font-family="sans-serif" font-size="14" lengthAdjust="spacing" textLength="37" x="2065.75" y="992.3467">users</text><line style="stroke:#181818;stroke-width:0.5;" x1="1996.5" x2="2139.5" y1="1003.5" y2="1003.5"/><text fill="#000000" font-family="sans-serif" font-size="14" lengthAdjust="spacing" textLength="81" x="2001.5" y="1020.4951">user_ID: int</text><text fill="#000000" font-family="sans-serif" font-size="14" lengthAdjust="spacing" textLength="133" x="2001.5" y="1036.792">userName: varchar</text><text fill="#000000" font-family="sans-serif" font-size="14" lengthAdjust="spacing" textLength="129" x="2001.5" y="1053.0889">password: varchar</text><line style="stroke:#181818;stroke-width:0.5;" x1="1996.5" x2="2139.5" y1="1060.3906" y2="1060.3906"/><ellipse cx="2006.5" cy="1074.0391" fill="#84BE84" rx="3" ry="3" style="stroke:#038048;stroke-width:1.0;"/><text fill="#000000" font-family="sans-serif" font-size="14" lengthAdjust="spacing" textLength="34" x="2015.5" y="1077.3857">init()</text><ellipse cx="2006.5" cy="1090.3359" fill="#84BE84" rx="3" ry="3" style="stroke:#038048;stroke-width:1.0;"/><text fill="#000000" font-family="sans-serif" font-size="14" lengthAdjust="spacing" textLength="30" x="2015.5" y="1093.6826">str()</text></g><!--class topics--><g id="elem_topics"><rect codeLine="130" fill="#F1F1F1" height="145.7813" id="topics" rx="3.5" ry="3.5" style="stroke:#181818;stroke-width:0.5;" width="145" x="2175.5" y="963"/><ellipse cx="2221.25" cy="979" fill="#ADD1B2" rx="11" ry="11" style="stroke:#181818;stroke-width:1.0;"/><path d="M2223.5938,974.6719 C2222.6563,974.2344 2222.0625,974.0938 2221.1875,974.0938 C2218.5625,974.0938 2216.5625,976.1719 2216.5625,978.8906 L2216.5625,980.0156 C2216.5625,982.5938 2218.6719,984.4844 2221.5625,984.4844 C2222.7813,984.4844 2223.9375,984.1875 2224.6875,983.6406 C2225.2656,983.2344 2225.5938,982.7813 2225.5938,982.3906 C2225.5938,981.9375 2225.2031,981.5469 2224.7344,981.5469 C2224.5156,981.5469 2224.3125,981.625 2224.125,981.8125 C2223.6719,982.2969 2223.6719,982.2969 2223.4844,982.3906 C2223.0625,982.6563 2222.375,982.7813 2221.6094,982.7813 C2219.5625,982.7813 2218.2656,981.6875 2218.2656,979.9844 L2218.2656,978.8906 C2218.2656,977.1094 2219.5156,975.7969 2221.25,975.7969 C2221.8281,975.7969 2222.4375,975.9531 2222.9063,976.2031 C2223.3906,976.4844 2223.5625,976.7031 2223.6563,977.1094 C2223.7188,977.5156 2223.75,977.6406 2223.8906,977.7656 C2224.0313,977.9063 2224.2656,978.0156 2224.4844,978.0156 C2224.75,978.0156 2225.0156,977.875 2225.1875,977.6563 C2225.2969,977.5 2225.3281,977.3125 2225.3281,976.8906 L2225.3281,975.4688 C2225.3281,975.0313 2225.3125,974.9063 2225.2188,974.75 C2225.0625,974.4844 2224.7813,974.3438 2224.4844,974.3438 C2224.1875,974.3438 2223.9844,974.4375 2223.7656,974.75 L2223.5938,974.6719 Z " fill="#000000"/><text fill="#000000" font-family="sans-serif" font-size="14" lengthAdjust="spacing" textLength="45" x="2241.75" y="983.8467">topics</text><line style="stroke:#181818;stroke-width:0.5;" x1="2176.5" x2="2319.5" y1="995" y2="995"/><text fill="#000000" font-family="sans-serif" font-size="14" lengthAdjust="spacing" textLength="95" x="2181.5" y="1011.9951">date: varchar</text><text fill="#000000" font-family="sans-serif" font-size="14" lengthAdjust="spacing" textLength="133" x="2181.5" y="1028.292">userName: varchar</text><text fill="#000000" font-family="sans-serif" font-size="14" lengthAdjust="spacing" textLength="100" x="2181.5" y="1044.5889">topic: varchar</text><text fill="#000000" font-family="sans-serif" font-size="14" lengthAdjust="spacing" textLength="89" x="2181.5" y="1060.8857">topic_ID: int</text><line style="stroke:#181818;stroke-width:0.5;" x1="2176.5" x2="2319.5" y1="1068.1875" y2="1068.1875"/><ellipse cx="2186.5" cy="1081.8359" fill="#84BE84" rx="3" ry="3" style="stroke:#038048;stroke-width:1.0;"/><text fill="#000000" font-family="sans-serif" font-size="14" lengthAdjust="spacing" textLength="34" x="2195.5" y="1085.1826">init()</text><ellipse cx="2186.5" cy="1098.1328" fill="#84BE84" rx="3" ry="3" style="stroke:#038048;stroke-width:1.0;"/><text fill="#000000" font-family="sans-serif" font-size="14" lengthAdjust="spacing" textLength="30" x="2195.5" y="1101.4795">str()</text></g><!--class topicRatingData--><g id="elem_topicRatingData"><rect codeLine="141" fill="#F1F1F1" height="178.375" id="topicRatingData" rx="3.5" ry="3.5" style="stroke:#181818;stroke-width:0.5;" width="151" x="2355.5" y="947"/><ellipse cx="2370.5" cy="963" fill="#ADD1B2" rx="11" ry="11" style="stroke:#181818;stroke-width:1.0;"/><path d="M2372.8438,958.6719 C2371.9063,958.2344 2371.3125,958.0938 2370.4375,958.0938 C2367.8125,958.0938 2365.8125,960.1719 2365.8125,962.8906 L2365.8125,964.0156 C2365.8125,966.5938 2367.9219,968.4844 2370.8125,968.4844 C2372.0313,968.4844 2373.1875,968.1875 2373.9375,967.6406 C2374.5156,967.2344 2374.8438,966.7813 2374.8438,966.3906 C2374.8438,965.9375 2374.4531,965.5469 2373.9844,965.5469 C2373.7656,965.5469 2373.5625,965.625 2373.375,965.8125 C2372.9219,966.2969 2372.9219,966.2969 2372.7344,966.3906 C2372.3125,966.6563 2371.625,966.7813 2370.8594,966.7813 C2368.8125,966.7813 2367.5156,965.6875 2367.5156,963.9844 L2367.5156,962.8906 C2367.5156,961.1094 2368.7656,959.7969 2370.5,959.7969 C2371.0781,959.7969 2371.6875,959.9531 2372.1563,960.2031 C2372.6406,960.4844 2372.8125,960.7031 2372.9063,961.1094 C2372.9688,961.5156 2373,961.6406 2373.1406,961.7656 C2373.2813,961.9063 2373.5156,962.0156 2373.7344,962.0156 C2374,962.0156 2374.2656,961.875 2374.4375,961.6563 C2374.5469,961.5 2374.5781,961.3125 2374.5781,960.8906 L2374.5781,959.4688 C2374.5781,959.0313 2374.5625,958.9063 2374.4688,958.75 C2374.3125,958.4844 2374.0313,958.3438 2373.7344,958.3438 C2373.4375,958.3438 2373.2344,958.4375 2373.0156,958.75 L2372.8438,958.6719 Z " fill="#000000"/><text fill="#000000" font-family="sans-serif" font-size="14" lengthAdjust="spacing" textLength="119" x="2384.5" y="967.8467">topicRatingData</text><line style="stroke:#181818;stroke-width:0.5;" x1="2356.5" x2="2505.5" y1="979" y2="979"/><text fill="#000000" font-family="sans-serif" font-size="14" lengthAdjust="spacing" textLength="133" x="2361.5" y="995.9951">userName: varchar</text><text fill="#000000" font-family="sans-serif" font-size="14" lengthAdjust="spacing" textLength="89" x="2361.5" y="1012.292">topic_ID: int</text><text fill="#000000" font-family="sans-serif" font-size="14" lengthAdjust="spacing" textLength="95" x="2361.5" y="1028.5889">structure: int</text><text fill="#000000" font-family="sans-serif" font-size="14" lengthAdjust="spacing" textLength="77" x="2361.5" y="1044.8857">quality: int</text><text fill="#000000" font-family="sans-serif" font-size="14" lengthAdjust="spacing" textLength="86" x="2361.5" y="1061.1826">likeStat: int</text><text fill="#000000" font-family="sans-serif" font-size="14" lengthAdjust="spacing" textLength="106" x="2361.5" y="1077.4795">dislikeStat: int</text><line style="stroke:#181818;stroke-width:0.5;" x1="2356.5" x2="2505.5" y1="1084.7813" y2="1084.7813"/><ellipse cx="2366.5" cy="1098.4297" fill="#84BE84" rx="3" ry="3" style="stroke:#038048;stroke-width:1.0;"/><text fill="#000000" font-family="sans-serif" font-size="14" lengthAdjust="spacing" textLength="34" x="2375.5" y="1101.7764">init()</text><ellipse cx="2366.5" cy="1114.7266" fill="#84BE84" rx="3" ry="3" style="stroke:#038048;stroke-width:1.0;"/><text fill="#000000" font-family="sans-serif" font-size="14" lengthAdjust="spacing" textLength="30" x="2375.5" y="1118.0732">str()</text></g><!--class login_page--><g id="elem_login_page"><rect codeLine="80" fill="#F1F1F1" height="80.5938" id="login_page" rx="3.5" ry="3.5" style="stroke:#181818;stroke-width:0.5;" width="189" x="720.5" y="650.5"/><ellipse cx="771.75" cy="666.5" fill="#ADD1B2" rx="11" ry="11" style="stroke:#181818;stroke-width:1.0;"/><path d="M774.0938,662.1719 C773.1563,661.7344 772.5625,661.5938 771.6875,661.5938 C769.0625,661.5938 767.0625,663.6719 767.0625,666.3906 L767.0625,667.5156 C767.0625,670.0938 769.1719,671.9844 772.0625,671.9844 C773.2813,671.9844 774.4375,671.6875 775.1875,671.1406 C775.7656,670.7344 776.0938,670.2813 776.0938,669.8906 C776.0938,669.4375 775.7031,669.0469 775.2344,669.0469 C775.0156,669.0469 774.8125,669.125 774.625,669.3125 C774.1719,669.7969 774.1719,669.7969 773.9844,669.8906 C773.5625,670.1563 772.875,670.2813 772.1094,670.2813 C770.0625,670.2813 768.7656,669.1875 768.7656,667.4844 L768.7656,666.3906 C768.7656,664.6094 770.0156,663.2969 771.75,663.2969 C772.3281,663.2969 772.9375,663.4531 773.4063,663.7031 C773.8906,663.9844 774.0625,664.2031 774.1563,664.6094 C774.2188,665.0156 774.25,665.1406 774.3906,665.2656 C774.5313,665.4063 774.7656,665.5156 774.9844,665.5156 C775.25,665.5156 775.5156,665.375 775.6875,665.1563 C775.7969,665 775.8281,664.8125 775.8281,664.3906 L775.8281,662.9688 C775.8281,662.5313 775.8125,662.4063 775.7188,662.25 C775.5625,661.9844 775.2813,661.8438 774.9844,661.8438 C774.6875,661.8438 774.4844,661.9375 774.2656,662.25 L774.0938,662.1719 Z " fill="#000000"/><text fill="#000000" font-family="sans-serif" font-size="14" lengthAdjust="spacing" textLength="78" x="792.25" y="671.3467">login_page</text><line style="stroke:#181818;stroke-width:0.5;" x1="721.5" x2="908.5" y1="682.5" y2="682.5"/><line style="stroke:#181818;stroke-width:0.5;" x1="721.5" x2="908.5" y1="690.5" y2="690.5"/><ellipse cx="731.5" cy="704.1484" fill="#84BE84" rx="3" ry="3" style="stroke:#038048;stroke-width:1.0;"/><text fill="#000000" font-family="sans-serif" font-size="14" lengthAdjust="spacing" textLength="163" x="740.5" y="707.4951">return_template() : str</text><ellipse cx="731.5" cy="720.4453" fill="#84BE84" rx="3" ry="3" style="stroke:#038048;stroke-width:1.0;"/><text fill="#000000" font-family="sans-serif" font-size="14" lengthAdjust="spacing" textLength="163" x="740.5" y="723.792">return_template() : str</text></g><!--class signin_page--><g id="elem_signin_page"><rect fill="#F1F1F1" height="48" id="signin_page" rx="3.5" ry="3.5" style="stroke:#181818;stroke-width:0.5;" width="117" x="944.5" y="667"/><ellipse cx="959.5" cy="683" fill="#ADD1B2" rx="11" ry="11" style="stroke:#181818;stroke-width:1.0;"/><path d="M961.8438,678.6719 C960.9063,678.2344 960.3125,678.0938 959.4375,678.0938 C956.8125,678.0938 954.8125,680.1719 954.8125,682.8906 L954.8125,684.0156 C954.8125,686.5938 956.9219,688.4844 959.8125,688.4844 C961.0313,688.4844 962.1875,688.1875 962.9375,687.6406 C963.5156,687.2344 963.8438,686.7813 963.8438,686.3906 C963.8438,685.9375 963.4531,685.5469 962.9844,685.5469 C962.7656,685.5469 962.5625,685.625 962.375,685.8125 C961.9219,686.2969 961.9219,686.2969 961.7344,686.3906 C961.3125,686.6563 960.625,686.7813 959.8594,686.7813 C957.8125,686.7813 956.5156,685.6875 956.5156,683.9844 L956.5156,682.8906 C956.5156,681.1094 957.7656,679.7969 959.5,679.7969 C960.0781,679.7969 960.6875,679.9531 961.1563,680.2031 C961.6406,680.4844 961.8125,680.7031 961.9063,681.1094 C961.9688,681.5156 962,681.6406 962.1406,681.7656 C962.2813,681.9063 962.5156,682.0156 962.7344,682.0156 C963,682.0156 963.2656,681.875 963.4375,681.6563 C963.5469,681.5 963.5781,681.3125 963.5781,680.8906 L963.5781,679.4688 C963.5781,679.0313 963.5625,678.9063 963.4688,678.75 C963.3125,678.4844 963.0313,678.3438 962.7344,678.3438 C962.4375,678.3438 962.2344,678.4375 962.0156,678.75 L961.8438,678.6719 Z " fill="#000000"/><text fill="#000000" font-family="sans-serif" font-size="14" lengthAdjust="spacing" textLength="85" x="973.5" y="687.8467">signin_page</text><line style="stroke:#181818;stroke-width:0.5;" x1="945.5" x2="1060.5" y1="699" y2="699"/><line style="stroke:#181818;stroke-width:0.5;" x1="945.5" x2="1060.5" y1="707" y2="707"/></g><!--class sign_in_page--><g id="elem_sign_in_page"><rect codeLine="66" fill="#F1F1F1" height="64.2969" id="sign_in_page" rx="3.5" ry="3.5" style="stroke:#181818;stroke-width:0.5;" width="189" x="1096.5" y="659"/><ellipse cx="1140.75" cy="675" fill="#ADD1B2" rx="11" ry="11" style="stroke:#181818;stroke-width:1.0;"/><path d="M1143.0938,670.6719 C1142.1563,670.2344 1141.5625,670.0938 1140.6875,670.0938 C1138.0625,670.0938 1136.0625,672.1719 1136.0625,674.8906 L1136.0625,676.0156 C1136.0625,678.5938 1138.1719,680.4844 1141.0625,680.4844 C1142.2813,680.4844 1143.4375,680.1875 1144.1875,679.6406 C1144.7656,679.2344 1145.0938,678.7813 1145.0938,678.3906 C1145.0938,677.9375 1144.7031,677.5469 1144.2344,677.5469 C1144.0156,677.5469 1143.8125,677.625 1143.625,677.8125 C1143.1719,678.2969 1143.1719,678.2969 1142.9844,678.3906 C1142.5625,678.6563 1141.875,678.7813 1141.1094,678.7813 C1139.0625,678.7813 1137.7656,677.6875 1137.7656,675.9844 L1137.7656,674.8906 C1137.7656,673.1094 1139.0156,671.7969 1140.75,671.7969 C1141.3281,671.7969 1141.9375,671.9531 1142.4063,672.2031 C1142.8906,672.4844 1143.0625,672.7031 1143.1563,673.1094 C1143.2188,673.5156 1143.25,673.6406 1143.3906,673.7656 C1143.5313,673.9063 1143.7656,674.0156 1143.9844,674.0156 C1144.25,674.0156 1144.5156,673.875 1144.6875,673.6563 C1144.7969,673.5 1144.8281,673.3125 1144.8281,672.8906 L1144.8281,671.4688 C1144.8281,671.0313 1144.8125,670.9063 1144.7188,670.75 C1144.5625,670.4844 1144.2813,670.3438 1143.9844,670.3438 C1143.6875,670.3438 1143.4844,670.4375 1143.2656,670.75 L1143.0938,670.6719 Z " fill="#000000"/><text fill="#000000" font-family="sans-serif" font-size="14" lengthAdjust="spacing" textLength="92" x="1161.25" y="679.8467">sign_in_page</text><line style="stroke:#181818;stroke-width:0.5;" x1="1097.5" x2="1284.5" y1="691" y2="691"/><line style="stroke:#181818;stroke-width:0.5;" x1="1097.5" x2="1284.5" y1="699" y2="699"/><ellipse cx="1107.5" cy="712.6484" fill="#84BE84" rx="3" ry="3" style="stroke:#038048;stroke-width:1.0;"/><text fill="#000000" font-family="sans-serif" font-size="14" lengthAdjust="spacing" textLength="163" x="1116.5" y="715.9951">return_template() : str</text></g><!--class home_page--><g id="elem_home_page"><rect codeLine="76" fill="#F1F1F1" height="64.2969" id="home_page" rx="3.5" ry="3.5" style="stroke:#181818;stroke-width:0.5;" width="248" x="437" y="659"/><ellipse cx="514.75" cy="675" fill="#ADD1B2" rx="11" ry="11" style="stroke:#181818;stroke-width:1.0;"/><path d="M517.0938,670.6719 C516.1563,670.2344 515.5625,670.0938 514.6875,670.0938 C512.0625,670.0938 510.0625,672.1719 510.0625,674.8906 L510.0625,676.0156 C510.0625,678.5938 512.1719,680.4844 515.0625,680.4844 C516.2813,680.4844 517.4375,680.1875 518.1875,679.6406 C518.7656,679.2344 519.0938,678.7813 519.0938,678.3906 C519.0938,677.9375 518.7031,677.5469 518.2344,677.5469 C518.0156,677.5469 517.8125,677.625 517.625,677.8125 C517.1719,678.2969 517.1719,678.2969 516.9844,678.3906 C516.5625,678.6563 515.875,678.7813 515.1094,678.7813 C513.0625,678.7813 511.7656,677.6875 511.7656,675.9844 L511.7656,674.8906 C511.7656,673.1094 513.0156,671.7969 514.75,671.7969 C515.3281,671.7969 515.9375,671.9531 516.4063,672.2031 C516.8906,672.4844 517.0625,672.7031 517.1563,673.1094 C517.2188,673.5156 517.25,673.6406 517.3906,673.7656 C517.5313,673.9063 517.7656,674.0156 517.9844,674.0156 C518.25,674.0156 518.5156,673.875 518.6875,673.6563 C518.7969,673.5 518.8281,673.3125 518.8281,672.8906 L518.8281,671.4688 C518.8281,671.0313 518.8125,670.9063 518.7188,670.75 C518.5625,670.4844 518.2813,670.3438 517.9844,670.3438 C517.6875,670.3438 517.4844,670.4375 517.2656,670.75 L517.0938,670.6719 Z " fill="#000000"/><text fill="#000000" font-family="sans-serif" font-size="14" lengthAdjust="spacing" textLength="84" x="535.25" y="679.8467">home_page</text><line style="stroke:#181818;stroke-width:0.5;" x1="438" x2="684" y1="691" y2="691"/><line style="stroke:#181818;stroke-width:0.5;" x1="438" x2="684" y1="699" y2="699"/><ellipse cx="448" cy="712.6484" fill="#84BE84" rx="3" ry="3" style="stroke:#038048;stroke-width:1.0;"/><text fill="#000000" font-family="sans-serif" font-size="14" lengthAdjust="spacing" textLength="222" x="457" y="715.9951">return_template(user: str) : str</text></g><!--class search_page--><g id="elem_search_page"><rect codeLine="89" fill="#F1F1F1" height="64.2969" id="search_page" rx="3.5" ry="3.5" style="stroke:#181818;stroke-width:0.5;" width="356" x="46" y="659"/><ellipse cx="174.75" cy="675" fill="#ADD1B2" rx="11" ry="11" style="stroke:#181818;stroke-width:1.0;"/><path d="M177.0938,670.6719 C176.1563,670.2344 175.5625,670.0938 174.6875,670.0938 C172.0625,670.0938 170.0625,672.1719 170.0625,674.8906 L170.0625,676.0156 C170.0625,678.5938 172.1719,680.4844 175.0625,680.4844 C176.2813,680.4844 177.4375,680.1875 178.1875,679.6406 C178.7656,679.2344 179.0938,678.7813 179.0938,678.3906 C179.0938,677.9375 178.7031,677.5469 178.2344,677.5469 C178.0156,677.5469 177.8125,677.625 177.625,677.8125 C177.1719,678.2969 177.1719,678.2969 176.9844,678.3906 C176.5625,678.6563 175.875,678.7813 175.1094,678.7813 C173.0625,678.7813 171.7656,677.6875 171.7656,675.9844 L171.7656,674.8906 C171.7656,673.1094 173.0156,671.7969 174.75,671.7969 C175.3281,671.7969 175.9375,671.9531 176.4063,672.2031 C176.8906,672.4844 177.0625,672.7031 177.1563,673.1094 C177.2188,673.5156 177.25,673.6406 177.3906,673.7656 C177.5313,673.9063 177.7656,674.0156 177.9844,674.0156 C178.25,674.0156 178.5156,673.875 178.6875,673.6563 C178.7969,673.5 178.8281,673.3125 178.8281,672.8906 L178.8281,671.4688 C178.8281,671.0313 178.8125,670.9063 178.7188,670.75 C178.5625,670.4844 178.2813,670.3438 177.9844,670.3438 C177.6875,670.3438 177.4844,670.4375 177.2656,670.75 L177.0938,670.6719 Z " fill="#000000"/><text fill="#000000" font-family="sans-serif" font-size="14" lengthAdjust="spacing" textLength="90" x="195.25" y="679.8467">search_page</text><line style="stroke:#181818;stroke-width:0.5;" x1="47" x2="401" y1="691" y2="691"/><line style="stroke:#181818;stroke-width:0.5;" x1="47" x2="401" y1="699" y2="699"/><ellipse cx="57" cy="712.6484" fill="#84BE84" rx="3" ry="3" style="stroke:#038048;stroke-width:1.0;"/><text fill="#000000" font-family="sans-serif" font-size="14" lengthAdjust="spacing" textLength="330" x="66" y="715.9951">return_template(search_results: List[str]) : str</text></g><!--class Server--><g id="elem_Server"><rect codeLine="160" fill="#F1F1F1" height="194.6719" id="Server" rx="3.5" ry="3.5" style="stroke:#181818;stroke-width:0.5;" width="171" x="494.5" y="185"/><ellipse cx="552.25" cy="201" fill="#ADD1B2" rx="11" ry="11" style="stroke:#181818;stroke-width:1.0;"/><path d="M554.5938,196.6719 C553.6563,196.2344 553.0625,196.0938 552.1875,196.0938 C549.5625,196.0938 547.5625,198.1719 547.5625,200.8906 L547.5625,202.0156 C547.5625,204.5938 549.6719,206.4844 552.5625,206.4844 C553.7813,206.4844 554.9375,206.1875 555.6875,205.6406 C556.2656,205.2344 556.5938,204.7813 556.5938,204.3906 C556.5938,203.9375 556.2031,203.5469 555.7344,203.5469 C555.5156,203.5469 555.3125,203.625 555.125,203.8125 C554.6719,204.2969 554.6719,204.2969 554.4844,204.3906 C554.0625,204.6563 553.375,204.7813 552.6094,204.7813 C550.5625,204.7813 549.2656,203.6875 549.2656,201.9844 L549.2656,200.8906 C549.2656,199.1094 550.5156,197.7969 552.25,197.7969 C552.8281,197.7969 553.4375,197.9531 553.9063,198.2031 C554.3906,198.4844 554.5625,198.7031 554.6563,199.1094 C554.7188,199.5156 554.75,199.6406 554.8906,199.7656 C555.0313,199.9063 555.2656,200.0156 555.4844,200.0156 C555.75,200.0156 556.0156,199.875 556.1875,199.6563 C556.2969,199.5 556.3281,199.3125 556.3281,198.8906 L556.3281,197.4688 C556.3281,197.0313 556.3125,196.9063 556.2188,196.75 C556.0625,196.4844 555.7813,196.3438 555.4844,196.3438 C555.1875,196.3438 554.9844,196.4375 554.7656,196.75 L554.5938,196.6719 Z " fill="#000000"/><text fill="#000000" font-family="sans-serif" font-size="14" lengthAdjust="spacing" textLength="47" x="572.75" y="205.8467">Server</text><line style="stroke:#181818;stroke-width:0.5;" x1="495.5" x2="664.5" y1="217" y2="217"/><line style="stroke:#181818;stroke-width:0.5;" x1="495.5" x2="664.5" y1="225" y2="225"/><ellipse cx="505.5" cy="238.6484" fill="#84BE84" rx="3" ry="3" style="stroke:#038048;stroke-width:1.0;"/><text fill="#000000" font-family="sans-serif" font-size="14" lengthAdjust="spacing" textLength="121" x="514.5" y="241.9951">login_page() : str</text><ellipse cx="505.5" cy="254.9453" fill="#84BE84" rx="3" ry="3" style="stroke:#038048;stroke-width:1.0;"/><text fill="#000000" font-family="sans-serif" font-size="14" lengthAdjust="spacing" textLength="103" x="514.5" y="258.292">do_login() : str</text><ellipse cx="505.5" cy="271.2422" fill="#84BE84" rx="3" ry="3" style="stroke:#038048;stroke-width:1.0;"/><text fill="#000000" font-family="sans-serif" font-size="14" lengthAdjust="spacing" textLength="133" x="514.5" y="274.5889">signup_page() : str</text><ellipse cx="505.5" cy="287.5391" fill="#84BE84" rx="3" ry="3" style="stroke:#038048;stroke-width:1.0;"/><text fill="#000000" font-family="sans-serif" font-size="14" lengthAdjust="spacing" textLength="90" x="514.5" y="290.8857">signup() : str</text><ellipse cx="505.5" cy="303.8359" fill="#84BE84" rx="3" ry="3" style="stroke:#038048;stroke-width:1.0;"/><text fill="#000000" font-family="sans-serif" font-size="14" lengthAdjust="spacing" textLength="84" x="514.5" y="307.1826">home() : str</text><ellipse cx="505.5" cy="320.1328" fill="#84BE84" rx="3" ry="3" style="stroke:#038048;stroke-width:1.0;"/><text fill="#000000" font-family="sans-serif" font-size="14" lengthAdjust="spacing" textLength="89" x="514.5" y="323.4795">logout() : str</text><ellipse cx="505.5" cy="336.4297" fill="#84BE84" rx="3" ry="3" style="stroke:#038048;stroke-width:1.0;"/><text fill="#000000" font-family="sans-serif" font-size="14" lengthAdjust="spacing" textLength="109" x="514.5" y="339.7764">add_post() : str</text><ellipse cx="505.5" cy="352.7266" fill="#84BE84" rx="3" ry="3" style="stroke:#038048;stroke-width:1.0;"/><text fill="#000000" font-family="sans-serif" font-size="14" lengthAdjust="spacing" textLength="145" x="514.5" y="356.0732">search_results() : str</text><ellipse cx="505.5" cy="369.0234" fill="#84BE84" rx="3" ry="3" style="stroke:#038048;stroke-width:1.0;"/><text fill="#000000" font-family="sans-serif" font-size="14" lengthAdjust="spacing" textLength="33" x="514.5" y="372.3701">run()</text></g><!--class fetching--><g id="elem_fetching"><rect codeLine="188" fill="#F1F1F1" height="64.2969" id="fetching" rx="3.5" ry="3.5" style="stroke:#181818;stroke-width:0.5;" width="381" x="2943.5" y="1004"/><ellipse cx="3099.25" cy="1020" fill="#ADD1B2" rx="11" ry="11" style="stroke:#181818;stroke-width:1.0;"/><path d="M3101.5938,1015.6719 C3100.6563,1015.2344 3100.0625,1015.0938 3099.1875,1015.0938 C3096.5625,1015.0938 3094.5625,1017.1719 3094.5625,1019.8906 L3094.5625,1021.0156 C3094.5625,1023.5938 3096.6719,1025.4844 3099.5625,1025.4844 C3100.7813,1025.4844 3101.9375,1025.1875 3102.6875,1024.6406 C3103.2656,1024.2344 3103.5938,1023.7813 3103.5938,1023.3906 C3103.5938,1022.9375 3103.2031,1022.5469 3102.7344,1022.5469 C3102.5156,1022.5469 3102.3125,1022.625 3102.125,1022.8125 C3101.6719,1023.2969 3101.6719,1023.2969 3101.4844,1023.3906 C3101.0625,1023.6563 3100.375,1023.7813 3099.6094,1023.7813 C3097.5625,1023.7813 3096.2656,1022.6875 3096.2656,1020.9844 L3096.2656,1019.8906 C3096.2656,1018.1094 3097.5156,1016.7969 3099.25,1016.7969 C3099.8281,1016.7969 3100.4375,1016.9531 3100.9063,1017.2031 C3101.3906,1017.4844 3101.5625,1017.7031 3101.6563,1018.1094 C3101.7188,1018.5156 3101.75,1018.6406 3101.8906,1018.7656 C3102.0313,1018.9063 3102.2656,1019.0156 3102.4844,1019.0156 C3102.75,1019.0156 3103.0156,1018.875 3103.1875,1018.6563 C3103.2969,1018.5 3103.3281,1018.3125 3103.3281,1017.8906 L3103.3281,1016.4688 C3103.3281,1016.0313 3103.3125,1015.9063 3103.2188,1015.75 C3103.0625,1015.4844 3102.7813,1015.3438 3102.4844,1015.3438 C3102.1875,1015.3438 3101.9844,1015.4375 3101.7656,1015.75 L3101.5938,1015.6719 Z " fill="#000000"/><text fill="#000000" font-family="sans-serif" font-size="14" lengthAdjust="spacing" textLength="61" x="3119.75" y="1024.8467">fetching</text><line style="stroke:#181818;stroke-width:0.5;" x1="2944.5" x2="3323.5" y1="1036" y2="1036"/><line style="stroke:#181818;stroke-width:0.5;" x1="2944.5" x2="3323.5" y1="1044" y2="1044"/><ellipse cx="2954.5" cy="1057.6484" fill="#84BE84" rx="3" ry="3" style="stroke:#038048;stroke-width:1.0;"/><text fill="#000000" font-family="sans-serif" font-size="14" lengthAdjust="spacing" textLength="355" x="2963.5" y="1060.9951">post_data_formatter(message_table: Tuple): dict</text></g><!--class post--><g id="elem_post"><rect codeLine="192" fill="#F1F1F1" height="96.8906" id="post" rx="3.5" ry="3.5" style="stroke:#181818;stroke-width:0.5;" width="290" x="2989" y="1204"/><ellipse cx="3113.25" cy="1220" fill="#ADD1B2" rx="11" ry="11" style="stroke:#181818;stroke-width:1.0;"/><path d="M3115.5938,1215.6719 C3114.6563,1215.2344 3114.0625,1215.0938 3113.1875,1215.0938 C3110.5625,1215.0938 3108.5625,1217.1719 3108.5625,1219.8906 L3108.5625,1221.0156 C3108.5625,1223.5938 3110.6719,1225.4844 3113.5625,1225.4844 C3114.7813,1225.4844 3115.9375,1225.1875 3116.6875,1224.6406 C3117.2656,1224.2344 3117.5938,1223.7813 3117.5938,1223.3906 C3117.5938,1222.9375 3117.2031,1222.5469 3116.7344,1222.5469 C3116.5156,1222.5469 3116.3125,1222.625 3116.125,1222.8125 C3115.6719,1223.2969 3115.6719,1223.2969 3115.4844,1223.3906 C3115.0625,1223.6563 3114.375,1223.7813 3113.6094,1223.7813 C3111.5625,1223.7813 3110.2656,1222.6875 3110.2656,1220.9844 L3110.2656,1219.8906 C3110.2656,1218.1094 3111.5156,1216.7969 3113.25,1216.7969 C3113.8281,1216.7969 3114.4375,1216.9531 3114.9063,1217.2031 C3115.3906,1217.4844 3115.5625,1217.7031 3115.6563,1218.1094 C3115.7188,1218.5156 3115.75,1218.6406 3115.8906,1218.7656 C3116.0313,1218.9063 3116.2656,1219.0156 3116.4844,1219.0156 C3116.75,1219.0156 3117.0156,1218.875 3117.1875,1218.6563 C3117.2969,1218.5 3117.3281,1218.3125 3117.3281,1217.8906 L3117.3281,1216.4688 C3117.3281,1216.0313 3117.3125,1215.9063 3117.2188,1215.75 C3117.0625,1215.4844 3116.7813,1215.3438 3116.4844,1215.3438 C3116.1875,1215.3438 3115.9844,1215.4375 3115.7656,1215.75 L3115.5938,1215.6719 Z " fill="#000000"/><text fill="#000000" font-family="sans-serif" font-size="14" lengthAdjust="spacing" textLength="33" x="3133.75" y="1224.8467">post</text><line style="stroke:#181818;stroke-width:0.5;" x1="2990" x2="3278" y1="1236" y2="1236"/><line style="stroke:#181818;stroke-width:0.5;" x1="2990" x2="3278" y1="1244" y2="1244"/><ellipse cx="3000" cy="1257.6484" fill="#84BE84" rx="3" ry="3" style="stroke:#038048;stroke-width:1.0;"/><text fill="#000000" font-family="sans-serif" font-size="14" lengthAdjust="spacing" textLength="264" x="3009" y="1260.9951">make_post(session_data: dict): None</text><ellipse cx="3000" cy="1273.9453" fill="#84BE84" rx="3" ry="3" style="stroke:#038048;stroke-width:1.0;"/><text fill="#000000" font-family="sans-serif" font-size="14" lengthAdjust="spacing" textLength="172" x="3009" y="1277.292">display_posts(): List[str]</text><ellipse cx="3000" cy="1290.2422" fill="#84BE84" rx="3" ry="3" style="stroke:#038048;stroke-width:1.0;"/><text fill="#000000" font-family="sans-serif" font-size="14" lengthAdjust="spacing" textLength="220" x="3009" y="1293.5889">post_formatter(data: dict): str</text></g><!--class ratings--><g id="elem_ratings"><rect codeLine="198" fill="#F1F1F1" height="64.2969" id="ratings" rx="3.5" ry="3.5" style="stroke:#181818;stroke-width:0.5;" width="108" x="3182" y="1362"/><ellipse cx="3208.7" cy="1378" fill="#ADD1B2" rx="11" ry="11" style="stroke:#181818;stroke-width:1.0;"/><path d="M3211.0438,1373.6719 C3210.1063,1373.2344 3209.5125,1373.0938 3208.6375,1373.0938 C3206.0125,1373.0938 3204.0125,1375.1719 3204.0125,1377.8906 L3204.0125,1379.0156 C3204.0125,1381.5938 3206.1219,1383.4844 3209.0125,1383.4844 C3210.2313,1383.4844 3211.3875,1383.1875 3212.1375,1382.6406 C3212.7156,1382.2344 3213.0438,1381.7813 3213.0438,1381.3906 C3213.0438,1380.9375 3212.6531,1380.5469 3212.1844,1380.5469 C3211.9656,1380.5469 3211.7625,1380.625 3211.575,1380.8125 C3211.1219,1381.2969 3211.1219,1381.2969 3210.9344,1381.3906 C3210.5125,1381.6563 3209.825,1381.7813 3209.0594,1381.7813 C3207.0125,1381.7813 3205.7156,1380.6875 3205.7156,1378.9844 L3205.7156,1377.8906 C3205.7156,1376.1094 3206.9656,1374.7969 3208.7,1374.7969 C3209.2781,1374.7969 3209.8875,1374.9531 3210.3563,1375.2031 C3210.8406,1375.4844 3211.0125,1375.7031 3211.1063,1376.1094 C3211.1688,1376.5156 3211.2,1376.6406 3211.3406,1376.7656 C3211.4813,1376.9063 3211.7156,1377.0156 3211.9344,1377.0156 C3212.2,1377.0156 3212.4656,1376.875 3212.6375,1376.6563 C3212.7469,1376.5 3212.7781,1376.3125 3212.7781,1375.8906 L3212.7781,1374.4688 C3212.7781,1374.0313 3212.7625,1373.9063 3212.6688,1373.75 C3212.5125,1373.4844 3212.2313,1373.3438 3211.9344,1373.3438 C3211.6375,1373.3438 3211.4344,1373.4375 3211.2156,1373.75 L3211.0438,1373.6719 Z " fill="#000000"/><text fill="#000000" font-family="sans-serif" font-size="14" lengthAdjust="spacing" textLength="50" x="3225.3" y="1382.8467">ratings</text><line style="stroke:#181818;stroke-width:0.5;" x1="3183" x2="3289" y1="1394" y2="1394"/><line style="stroke:#181818;stroke-width:0.5;" x1="3183" x2="3289" y1="1402" y2="1402"/><ellipse cx="3193" cy="1415.6484" fill="#84BE84" rx="3" ry="3" style="stroke:#038048;stroke-width:1.0;"/><text fill="#000000" font-family="sans-serif" font-size="14" lengthAdjust="spacing" textLength="82" x="3202" y="1418.9951">like(): None</text></g><!--class search--><g id="elem_search"><rect codeLine="202" fill="#F1F1F1" height="96.8906" id="search" rx="3.5" ry="3.5" style="stroke:#181818;stroke-width:0.5;" width="209" x="2699.5" y="987.5"/><ellipse cx="2776.25" cy="1003.5" fill="#ADD1B2" rx="11" ry="11" style="stroke:#181818;stroke-width:1.0;"/><path d="M2778.5938,999.1719 C2777.6563,998.7344 2777.0625,998.5938 2776.1875,998.5938 C2773.5625,998.5938 2771.5625,1000.6719 2771.5625,1003.3906 L2771.5625,1004.5156 C2771.5625,1007.0938 2773.6719,1008.9844 2776.5625,1008.9844 C2777.7813,1008.9844 2778.9375,1008.6875 2779.6875,1008.1406 C2780.2656,1007.7344 2780.5938,1007.2813 2780.5938,1006.8906 C2780.5938,1006.4375 2780.2031,1006.0469 2779.7344,1006.0469 C2779.5156,1006.0469 2779.3125,1006.125 2779.125,1006.3125 C2778.6719,1006.7969 2778.6719,1006.7969 2778.4844,1006.8906 C2778.0625,1007.1563 2777.375,1007.2813 2776.6094,1007.2813 C2774.5625,1007.2813 2773.2656,1006.1875 2773.2656,1004.4844 L2773.2656,1003.3906 C2773.2656,1001.6094 2774.5156,1000.2969 2776.25,1000.2969 C2776.8281,1000.2969 2777.4375,1000.4531 2777.9063,1000.7031 C2778.3906,1000.9844 2778.5625,1001.2031 2778.6563,1001.6094 C2778.7188,1002.0156 2778.75,1002.1406 2778.8906,1002.2656 C2779.0313,1002.4063 2779.2656,1002.5156 2779.4844,1002.5156 C2779.75,1002.5156 2780.0156,1002.375 2780.1875,1002.1563 C2780.2969,1002 2780.3281,1001.8125 2780.3281,1001.3906 L2780.3281,999.9688 C2780.3281,999.5313 2780.3125,999.4063 2780.2188,999.25 C2780.0625,998.9844 2779.7813,998.8438 2779.4844,998.8438 C2779.1875,998.8438 2778.9844,998.9375 2778.7656,999.25 L2778.5938,999.1719 Z " fill="#000000"/><text fill="#000000" font-family="sans-serif" font-size="14" lengthAdjust="spacing" textLength="47" x="2796.75" y="1008.3467">search</text><line style="stroke:#181818;stroke-width:0.5;" x1="2700.5" x2="2907.5" y1="1019.5" y2="1019.5"/><rect fill="none" height="6" style="stroke:#C82930;stroke-width:1.0;" width="6" x="2707.5" y="1030.1484"/><text fill="#000000" font-family="sans-serif" font-size="14" lengthAdjust="spacing" textLength="183" x="2719.5" y="1036.4951">dataHandler: dataHandler</text><line style="stroke:#181818;stroke-width:0.5;" x1="2700.5" x2="2907.5" y1="1043.7969" y2="1043.7969"/><ellipse cx="2710.5" cy="1057.4453" fill="#84BE84" rx="3" ry="3" style="stroke:#038048;stroke-width:1.0;"/><text fill="#000000" font-family="sans-serif" font-size="14" lengthAdjust="spacing" textLength="177" x="2719.5" y="1060.792">search_results(): List[str]</text><ellipse cx="2710.5" cy="1073.7422" fill="#84BE84" rx="3" ry="3" style="stroke:#038048;stroke-width:1.0;"/><text fill="#000000" font-family="sans-serif" font-size="14" lengthAdjust="spacing" textLength="181" x="2719.5" y="1077.0889">return_search_page(): str</text></g><!--class Fernet--><g id="elem_Fernet"><rect codeLine="3" fill="#F1F1F1" height="96.8906" id="Fernet" rx="3.5" ry="3.5" style="stroke:#181818;stroke-width:0.5;" width="240" x="1559" y="642.5"/><ellipse cx="1650.75" cy="658.5" fill="#ADD1B2" rx="11" ry="11" style="stroke:#181818;stroke-width:1.0;"/><path d="M1653.0938,654.1719 C1652.1563,653.7344 1651.5625,653.5938 1650.6875,653.5938 C1648.0625,653.5938 1646.0625,655.6719 1646.0625,658.3906 L1646.0625,659.5156 C1646.0625,662.0938 1648.1719,663.9844 1651.0625,663.9844 C1652.2813,663.9844 1653.4375,663.6875 1654.1875,663.1406 C1654.7656,662.7344 1655.0938,662.2813 1655.0938,661.8906 C1655.0938,661.4375 1654.7031,661.0469 1654.2344,661.0469 C1654.0156,661.0469 1653.8125,661.125 1653.625,661.3125 C1653.1719,661.7969 1653.1719,661.7969 1652.9844,661.8906 C1652.5625,662.1563 1651.875,662.2813 1651.1094,662.2813 C1649.0625,662.2813 1647.7656,661.1875 1647.7656,659.4844 L1647.7656,658.3906 C1647.7656,656.6094 1649.0156,655.2969 1650.75,655.2969 C1651.3281,655.2969 1651.9375,655.4531 1652.4063,655.7031 C1652.8906,655.9844 1653.0625,656.2031 1653.1563,656.6094 C1653.2188,657.0156 1653.25,657.1406 1653.3906,657.2656 C1653.5313,657.4063 1653.7656,657.5156 1653.9844,657.5156 C1654.25,657.5156 1654.5156,657.375 1654.6875,657.1563 C1654.7969,657 1654.8281,656.8125 1654.8281,656.3906 L1654.8281,654.9688 C1654.8281,654.5313 1654.8125,654.4063 1654.7188,654.25 C1654.5625,653.9844 1654.2813,653.8438 1653.9844,653.8438 C1653.6875,653.8438 1653.4844,653.9375 1653.2656,654.25 L1653.0938,654.1719 Z " fill="#000000"/><text fill="#000000" font-family="sans-serif" font-size="14" lengthAdjust="spacing" textLength="48" x="1671.25" y="663.3467">Fernet</text><line style="stroke:#181818;stroke-width:0.5;" x1="1560" x2="1798" y1="674.5" y2="674.5"/><line style="stroke:#181818;stroke-width:0.5;" x1="1560" x2="1798" y1="682.5" y2="682.5"/><ellipse cx="1570" cy="696.1484" fill="#84BE84" rx="3" ry="3" style="stroke:#038048;stroke-width:1.0;"/><text fill="#000000" font-family="sans-serif" font-size="14" lengthAdjust="spacing" textLength="134" x="1579" y="699.4951">Fernet(key: bytes)</text><ellipse cx="1570" cy="712.4453" fill="#84BE84" rx="3" ry="3" style="stroke:#038048;stroke-width:1.0;"/><text fill="#000000" font-family="sans-serif" font-size="14" lengthAdjust="spacing" textLength="203" x="1579" y="715.792">encrypt(data: bytes) : bytes</text><ellipse cx="1570" cy="728.7422" fill="#84BE84" rx="3" ry="3" style="stroke:#038048;stroke-width:1.0;"/><text fill="#000000" font-family="sans-serif" font-size="14" lengthAdjust="spacing" textLength="214" x="1579" y="732.0889">decrypt(token: bytes) : bytes</text></g><!--class Bottle--><g id="elem_Bottle"><rect codeLine="47" fill="#F1F1F1" height="80.5938" id="Bottle" rx="3.5" ry="3.5" style="stroke:#181818;stroke-width:0.5;" width="181" x="1342.5" y="650.5"/><ellipse cx="1405.75" cy="666.5" fill="#ADD1B2" rx="11" ry="11" style="stroke:#181818;stroke-width:1.0;"/><path d="M1408.0938,662.1719 C1407.1563,661.7344 1406.5625,661.5938 1405.6875,661.5938 C1403.0625,661.5938 1401.0625,663.6719 1401.0625,666.3906 L1401.0625,667.5156 C1401.0625,670.0938 1403.1719,671.9844 1406.0625,671.9844 C1407.2813,671.9844 1408.4375,671.6875 1409.1875,671.1406 C1409.7656,670.7344 1410.0938,670.2813 1410.0938,669.8906 C1410.0938,669.4375 1409.7031,669.0469 1409.2344,669.0469 C1409.0156,669.0469 1408.8125,669.125 1408.625,669.3125 C1408.1719,669.7969 1408.1719,669.7969 1407.9844,669.8906 C1407.5625,670.1563 1406.875,670.2813 1406.1094,670.2813 C1404.0625,670.2813 1402.7656,669.1875 1402.7656,667.4844 L1402.7656,666.3906 C1402.7656,664.6094 1404.0156,663.2969 1405.75,663.2969 C1406.3281,663.2969 1406.9375,663.4531 1407.4063,663.7031 C1407.8906,663.9844 1408.0625,664.2031 1408.1563,664.6094 C1408.2188,665.0156 1408.25,665.1406 1408.3906,665.2656 C1408.5313,665.4063 1408.7656,665.5156 1408.9844,665.5156 C1409.25,665.5156 1409.5156,665.375 1409.6875,665.1563 C1409.7969,665 1409.8281,664.8125 1409.8281,664.3906 L1409.8281,662.9688 C1409.8281,662.5313 1409.8125,662.4063 1409.7188,662.25 C1409.5625,661.9844 1409.2813,661.8438 1408.9844,661.8438 C1408.6875,661.8438 1408.4844,661.9375 1408.2656,662.25 L1408.0938,662.1719 Z " fill="#000000"/><text fill="#000000" font-family="sans-serif" font-size="14" lengthAdjust="spacing" textLength="46" x="1426.25" y="671.3467">Bottle</text><line style="stroke:#181818;stroke-width:0.5;" x1="1343.5" x2="1522.5" y1="682.5" y2="682.5"/><ellipse cx="1353.5" cy="696.1484" fill="none" rx="3" ry="3" style="stroke:#038048;stroke-width:1.0;"/><text fill="#000000" font-family="sans-serif" font-size="14" lengthAdjust="spacing" textLength="55" x="1362.5" y="699.4951">request</text><line style="stroke:#181818;stroke-width:0.5;" x1="1343.5" x2="1522.5" y1="706.7969" y2="706.7969"/><ellipse cx="1353.5" cy="720.4453" fill="#84BE84" rx="3" ry="3" style="stroke:#038048;stroke-width:1.0;"/><text fill="#000000" font-family="sans-serif" font-size="14" lengthAdjust="spacing" textLength="155" x="1362.5" y="723.792">redirect(location: str)</text></g><!--class Main--><g id="elem_Main"><rect codeLine="179" fill="#F1F1F1" height="64.2969" id="Main" rx="3.5" ry="3.5" style="stroke:#181818;stroke-width:0.5;" width="71" x="423.5" y="7"/><ellipse cx="441.2" cy="23" fill="#ADD1B2" rx="11" ry="11" style="stroke:#181818;stroke-width:1.0;"/><path d="M443.5438,18.6719 C442.6063,18.2344 442.0125,18.0938 441.1375,18.0938 C438.5125,18.0938 436.5125,20.1719 436.5125,22.8906 L436.5125,24.0156 C436.5125,26.5938 438.6219,28.4844 441.5125,28.4844 C442.7313,28.4844 443.8875,28.1875 444.6375,27.6406 C445.2156,27.2344 445.5438,26.7813 445.5438,26.3906 C445.5438,25.9375 445.1531,25.5469 444.6844,25.5469 C444.4656,25.5469 444.2625,25.625 444.075,25.8125 C443.6219,26.2969 443.6219,26.2969 443.4344,26.3906 C443.0125,26.6563 442.325,26.7813 441.5594,26.7813 C439.5125,26.7813 438.2156,25.6875 438.2156,23.9844 L438.2156,22.8906 C438.2156,21.1094 439.4656,19.7969 441.2,19.7969 C441.7781,19.7969 442.3875,19.9531 442.8563,20.2031 C443.3406,20.4844 443.5125,20.7031 443.6063,21.1094 C443.6688,21.5156 443.7,21.6406 443.8406,21.7656 C443.9813,21.9063 444.2156,22.0156 444.4344,22.0156 C444.7,22.0156 444.9656,21.875 445.1375,21.6563 C445.2469,21.5 445.2781,21.3125 445.2781,20.8906 L445.2781,19.4688 C445.2781,19.0313 445.2625,18.9063 445.1688,18.75 C445.0125,18.4844 444.7313,18.3438 444.4344,18.3438 C444.1375,18.3438 443.9344,18.4375 443.7156,18.75 L443.5438,18.6719 Z " fill="#000000"/><text fill="#000000" font-family="sans-serif" font-size="14" lengthAdjust="spacing" textLength="33" x="455.8" y="27.8467">Main</text><line style="stroke:#181818;stroke-width:0.5;" x1="424.5" x2="493.5" y1="39" y2="39"/><line style="stroke:#181818;stroke-width:0.5;" x1="424.5" x2="493.5" y1="47" y2="47"/><ellipse cx="434.5" cy="60.6484" fill="#84BE84" rx="3" ry="3" style="stroke:#038048;stroke-width:1.0;"/><text fill="#000000" font-family="sans-serif" font-size="14" lengthAdjust="spacing" textLength="45" x="443.5" y="63.9951">main()</text></g><!--reverse link login to Fernet--><g id="link_login_Fernet"><path codeLine="53" d="M1468.1774,378.057 C1498.0074,397.017 1516.82,412.43 1541,437 C1599.96,496.91 1640.97,587.146 1662.19,642.104 " fill="none" id="login-backto-Fernet" style="stroke:#454645;stroke-width:1.0;"/><polygon fill="#454645" points="1458.05,371.62,1460.968,378.2143,1468.1774,378.057,1465.2594,371.4627,1458.05,371.62" style="stroke:#454645;stroke-width:1.0;"/></g><!--reverse link login to dataHandler--><g id="link_login_dataHandler"><path codeLine="54" d="M1433.1835,376.8335 C1472.8935,396.0335 1505.65,408.74 1548,420 C1576.84,427.67 1794.82,415.98 1816,437 C1818.4613,439.4426 1820.6878,442.5423 1822.6991,446.209 C1823.7048,448.0424 1824.6567,450.0175 1825.5573,452.123 C1825.6698,452.3862 1825.7816,452.6515 1825.8926,452.9187 " fill="none" id="login-backto-dataHandler" style="stroke:#454645;stroke-width:1.0;"/><polygon fill="#454645" points="1422.38,371.61,1426.0406,377.8229,1433.1835,376.8335,1429.5229,370.6206,1422.38,371.61" style="stroke:#454645;stroke-width:1.0;"/></g><!--reverse link signin to Fernet--><g id="link_signin_Fernet"><path codeLine="55" d="M1727.3968,391.9349 C1713.9768,474.5899 1697.15,578.23 1686.74,642.337 " fill="none" id="signin-backto-Fernet" style="stroke:#454645;stroke-width:1.0;"/><polygon fill="#454645" points="1729.32,380.09,1724.4101,385.3714,1727.3968,391.9349,1732.3067,386.6535,1729.32,380.09" style="stroke:#454645;stroke-width:1.0;"/></g><!--link Fernet to signin--><g id="link_Fernet_signin"><path codeLine="72" d="M1684.21,642.498 C1690.24,589.877 1701.04,502.601 1714,428 C1716.7,412.45 1716.2475,413.6676 1719.5475,397.6976 " fill="none" id="Fernet-to-signin" style="stroke:#454645;stroke-width:1.0;"/><polygon fill="none" points="1723.19,380.07,1713.6716,396.4834,1725.4233,398.9118,1723.19,380.07" style="stroke:#454645;stroke-width:1.0;"/></g><!--reverse link signin to dataHandler--><g id="link_signin_dataHandler"><path codeLine="56" d="M1803.6295,391.214 C1810.4495,406.804 1811.72,412.07 1816,428 C1819.7288,441.8694 1822.8123,456.2924 1825.3531,470.9229 C1825.5119,471.8373 1825.6686,472.7525 1825.8232,473.6684 " fill="none" id="signin-backto-dataHandler" style="stroke:#454645;stroke-width:1.0;"/><polygon fill="#454645" points="1798.82,380.22,1797.56,387.3202,1803.6295,391.214,1804.8894,384.1139,1798.82,380.22" style="stroke:#454645;stroke-width:1.0;"/></g><!--link dataHandler to signin--><g id="link_dataHandler_signin"><path codeLine="73" d="M1825.8193,485.1849 C1825.7492,484.7411 1825.6787,484.2974 1825.6077,483.8539 C1825.3238,482.0798 1825.0324,480.3081 1824.7334,478.5394 C1822.3411,464.3897 1819.46,450.4324 1816,437 C1811.13,418.09 1811.0873,415.196 1803.1973,396.776 " fill="none" id="dataHandler-to-signin" style="stroke:#454645;stroke-width:1.0;"/><polygon fill="none" points="1796.11,380.23,1797.682,399.1384,1808.7126,394.4136,1796.11,380.23" style="stroke:#454645;stroke-width:1.0;"/></g><!--reverse link login to login_page--><g id="link_login_login_page"><path codeLine="57" d="M1092.5712,376.7408 C1056.1112,394.1508 1028.13,406.14 991,420 C963.428,430.29 949.38,417.89 927,437 C861.617,492.84 832.91,594.285 821.557,650.258 " fill="none" id="login-backto-login_page" style="stroke:#454645;stroke-width:1.0;"/><polygon fill="#454645" points="1103.4,371.57,1096.262,370.5458,1092.5712,376.7408,1099.7092,377.765,1103.4,371.57" style="stroke:#454645;stroke-width:1.0;"/></g><!--reverse link login to signin_page--><g id="link_login_signin_page"><path codeLine="58" d="M1128.9219,379.8081 C1106.9019,399.1881 1095.04,413.18 1079,437 C1028.91,511.362 1011,619.696 1005.33,666.747 " fill="none" id="login-backto-signin_page" style="stroke:#454645;stroke-width:1.0;"/><polygon fill="#454645" points="1137.93,371.88,1130.7833,372.8414,1128.9219,379.8081,1136.0687,378.8467,1137.93,371.88" style="stroke:#454645;stroke-width:1.0;"/></g><!--reverse link session_check to login_page--><g id="link_session_check_login_page"><path codeLine="59" d="M851.6469,326.6594 C844.2779,399.7294 827.124,569.79 818.989,650.447 " fill="none" id="session_check-backto-login_page" style="stroke:#454645;stroke-width:1.0;"/><polygon fill="#454645" points="852.851,314.72,848.2691,320.2884,851.6469,326.6594,856.2288,321.0911,852.851,314.72" style="stroke:#454645;stroke-width:1.0;"/></g><!--link login_page to session_check--><g id="link_login_page_session_check"><path codeLine="87" d="M817.74,650.441 C821.431,599.094 828.522,506.741 837,428 C841.212,388.88 844.7898,361.7917 848.9348,332.5617 " fill="none" id="login_page-to-session_check" style="stroke:#454645;stroke-width:1.0;"/><polygon fill="none" points="851.462,314.74,842.9942,331.7193,854.8753,333.4041,851.462,314.74" style="stroke:#454645;stroke-width:1.0;"/></g><!--reverse link session_check to signin_page--><g id="link_session_check_signin_page"><path codeLine="60" d="M877.3894,325.4192 C892.7324,356.0492 910.548,393.62 927,437 C958.472,519.976 985.788,622.06 997.25,666.961 " fill="none" id="session_check-backto-signin_page" style="stroke:#454645;stroke-width:1.0;"/><polygon fill="#454645" points="872.015,314.69,871.1258,321.8461,877.3894,325.4192,878.2786,318.2631,872.015,314.69" style="stroke:#454645;stroke-width:1.0;"/></g><!--reverse link login to Bottle--><g id="link_login_Bottle"><path codeLine="61" d="M1309.8359,382.838 C1344.5259,469.356 1391.38,586.197 1417.09,650.328 " fill="none" id="login-backto-Bottle" style="stroke:#454645;stroke-width:1.0;"/><polygon fill="#454645" points="1305.37,371.7,1303.8903,378.7576,1309.8359,382.838,1311.3156,375.7804,1305.37,371.7" style="stroke:#454645;stroke-width:1.0;"/></g><!--link sign_in_page to signin--><g id="link_sign_in_page_signin"><path codeLine="74" d="M1197.27,658.977 C1210.27,603.647 1245.79,488.882 1325,437 C1366.57,409.77 1501.16,436.62 1548,420 C1575.16,410.36 1586.8822,405.6734 1611.6522,389.7734 " fill="none" id="sign_in_page-to-signin" style="stroke:#454645;stroke-width:1.0;"/><polygon fill="none" points="1626.8,380.05,1608.4111,384.7242,1614.8934,394.8227,1626.8,380.05" style="stroke:#454645;stroke-width:1.0;"/></g><!--link home_page to session_check--><g id="link_home_page_session_check"><path codeLine="86" d="M575.111,658.759 C598.192,609.277 647.088,510.914 703,437 C738.184,390.49 773.4287,356.0234 806.3537,326.6034 " fill="none" id="home_page-to-session_check" style="stroke:#454645;stroke-width:1.0;"/><polygon fill="none" points="819.776,314.61,802.3559,322.1293,810.3515,331.0775,819.776,314.61" style="stroke:#454645;stroke-width:1.0;"/></g><!--link dataBaseHandler to users--><g id="link_dataBaseHandler_users"><path codeLine="155" d="M2146.17,886.052 C2130.02,916.822 2122.7567,930.6707 2109.7667,955.4147 " fill="none" id="dataBaseHandler-to-users" style="stroke:#454645;stroke-width:1.0;"/><polygon fill="none" points="2101.4,971.352,2115.0791,958.2036,2104.4543,952.6258,2101.4,971.352" style="stroke:#454645;stroke-width:1.0;"/></g><!--link dataBaseHandler to topics--><g id="link_dataBaseHandler_topics"><path codeLine="156" d="M2248,886.052 C2248,913.336 2248,921.846 2248,944.753 " fill="none" id="dataBaseHandler-to-topics" style="stroke:#454645;stroke-width:1.0;"/><polygon fill="none" points="2248,962.753,2254,944.753,2242,944.753,2248,962.753" style="stroke:#454645;stroke-width:1.0;"/></g><!--link dataBaseHandler to topicRatingData--><g id="link_dataBaseHandler_topicRatingData"><path codeLine="157" d="M2351.53,886.052 C2362.85,907.273 2365.4586,912.1431 2375.5686,931.0971 " fill="none" id="dataBaseHandler-to-topicRatingData" style="stroke:#454645;stroke-width:1.0;"/><polygon fill="none" points="2384.04,946.979,2380.8626,928.2733,2370.2747,933.9209,2384.04,946.979" style="stroke:#454645;stroke-width:1.0;"/></g><!--link Server to login_page--><g id="link_Server_login_page"><path codeLine="174" d="M465.554,404.212 C465.6699,404.4113 465.7868,404.6101 465.9045,404.8084 C466.3755,405.6015 466.8607,406.3858 467.3604,407.161 C468.3598,408.7112 469.4173,410.2245 470.5358,411.6966 C472.7727,414.6408 475.2533,417.42 478,420 C514.386,454.18 661.175,408.27 702,437 C773.206,487.111 799.2133,586.9184 808.9243,644.5654 " fill="none" id="Server-to-login_page" style="stroke:#454645;stroke-width:1.0;"/><polygon fill="#454645" points="809.921,650.482,812.3704,640.9426,809.0904,645.5515,804.4815,642.2715,809.921,650.482" style="stroke:#454645;stroke-width:1.0;"/></g><!--link Server to search_page--><g id="link_Server_search_page"><path codeLine="175" d="M450.5547,298.106 C450.4024,298.3696 450.2481,298.6364 450.092,298.9065 C449.7798,299.4466 449.4602,299.9995 449.1332,300.5651 C448.4793,301.6963 447.7961,302.8781 447.0848,304.1087 C445.662,306.5699 444.1263,309.2265 442.4856,312.0646 C439.2042,317.7409 435.503,324.1435 431.4457,331.1618 C415.2168,359.235 393.2922,397.1604 369.7599,437.8665 C322.6953,519.2788 272.2029,606.6195 244.9819,653.7065 " fill="none" id="Server-to-search_page" style="stroke:#454645;stroke-width:1.0;"/><polygon fill="#454645" points="241.979,658.901,249.9464,653.1112,244.4814,654.5723,243.0204,649.1074,241.979,658.901" style="stroke:#454645;stroke-width:1.0;"/></g><!--link Server to sign_in_page--><g id="link_Server_sign_in_page"><path codeLine="176" d="M465.2945,404.4939 C465.4128,404.6908 465.5319,404.8872 465.6519,405.083 C466.132,405.8661 466.6267,406.6401 467.1363,407.4045 C468.1555,408.9331 469.2345,410.4232 470.3761,411.8701 C472.6592,414.764 475.1929,417.4856 478,420 C490.441,431.14 1065.13,427.69 1079,437 C1154.98,487.999 1179.0687,597.2529 1186.8487,652.8619 " fill="none" id="Server-to-sign_in_page" style="stroke:#454645;stroke-width:1.0;"/><polygon fill="#454645" points="1187.68,658.804,1190.3944,649.3366,1186.9872,653.8522,1182.4716,650.445,1187.68,658.804" style="stroke:#454645;stroke-width:1.0;"/></g><!--link Main to Server--><g id="link_Main_Server"><path codeLine="183" d="M459,71.08 C459,87.13 459,108.0237 459,130.4052 C459,133.2028 459,136.0238 459,138.8614 C459,139.5708 459,134.2812 459,134.9926 " fill="none" id="Main-to-Server" style="stroke:#454645;stroke-width:1.0;"/><polygon fill="#454645" points="459,140.9926,463,131.9926,459,135.9926,455,131.9926,459,140.9926" style="stroke:#454645;stroke-width:1.0;"/><text fill="#000000" font-family="sans-serif" font-size="13" lengthAdjust="spacing" textLength="48" x="460" y="114.0669">creates</text></g><!--link dataBaseHandler to fetching--><g id="link_dataBaseHandler_fetching"><path codeLine="210" d="M2627.28,829.144 C2725.01,865.606 2829.75,905.673 2926,944.5 C2972.75,963.359 3024.75,985.984 3065.06,1003.894 " fill="none" id="dataBaseHandler-fetching" style="stroke:#454645;stroke-width:1.0;"/></g><!--link dataBaseHandler to post--><g id="link_dataBaseHandler_post"><path codeLine="211" d="M2468.71,886.076 C2487.93,905.303 2506.65,924.948 2524,944.5 C2604.02,1034.677 2580.44,1100.036 2682,1165 C2732.06,1197.02 2876.55,1221.034 2988.83,1235.535 " fill="none" id="dataBaseHandler-post" style="stroke:#454645;stroke-width:1.0;"/></g><!--link dataBaseHandler to ratings--><g id="link_dataBaseHandler_ratings"><path codeLine="212" d="M2627.02,729.553 C2906.51,765.993 3252.96,832.57 3342,944.5 C3444.11,1072.86 3314.71,1283.244 3259.1,1361.975 " fill="none" id="dataBaseHandler-ratings" style="stroke:#454645;stroke-width:1.0;"/></g><!--link dataBaseHandler to search--><g id="link_dataBaseHandler_search"><path codeLine="213" d="M2580.99,886.039 C2597.28,896.075 2613.36,906.099 2629,916 C2664.86,938.697 2703.98,965.137 2736.12,987.322 " fill="none" id="dataBaseHandler-search" style="stroke:#454645;stroke-width:1.0;"/></g><!--link fetching to post--><g id="link_fetching_post"><path codeLine="215" d="M3134,1068.19 C3134,1103.745 3134,1162.278 3134,1203.623 " fill="none" id="fetching-post" style="stroke:#454645;stroke-width:1.0;"/></g><!--link post to ratings--><g id="link_post_ratings"><path codeLine="217" d="M3168.82,1301.118 C3183.48,1321.166 3200.12,1343.936 3213.18,1361.7925 " fill="none" id="post-ratings" style="stroke:#454645;stroke-width:1.0;"/></g><!--SRC=[hLVBRjiw4DtpAtXtQXFd0xpeeWWkMg3DeabNnON0I6ERi4Ig9ENMwCs_T_YII5csbQ915k8ypvmXX_G_PWSjq0D_LamOGgg6QKt_1IN0q5_a9dmMUpYkwVFHW7w3GX2LEdQcg9bXKKp31wfhy6eZzo1Ez2-4TApQiotGNeCg6xdb5UOYbEA_1w11Qov5MUsWsgEEqXlAHGq_YwZngMjU6HjP6sNZHdSRKZYt5RM67vYe6r3hTE6KOrbkkN75haFHnAKzWEAROzbXt1zIrOKsKa4zh5tkMzefUU3rLEwAbh9nWHmer6-XY907SM6P4Ao56Evib5gMtkCi4LGg-Y05nEYoDsUCdTLBnZlVYh_67DUbQp2lorxmxpqKONbQrHO4A6OW64Q_eW6nDRirzjwad4MsIdPWl67F3UG4Ph4rE_Y0LqaUMBCqzDrfhxny0VKlTZUwFy_hUsbC0s4ZAy0IjGdVDLTGcQAH5JCOr8DnxkFfkFCR-krg5GcUrQKzIWn2K-Uz4-KPzp7-XwVFdyedQBi6MwNlngznQx_IqMS_ySoF_n-aVaM0Cn16yBvteP4BS0nTDhqIfGaMHJAcheIoYCh5mGW9qtgr-lzTEC0aQMKcNvOpzRW6TYVn65v0QYaT3jYo-bz39I4BaFbwqYr1bYIVSRlQEc2gsbt27YmKwBunUaq_SMs-OJ7_9KN5wp7jugzXHblfUwOXrU08ToFk8-R1e0q69QMH7QzIYJEq5oatnPkmm0axV7E3Gp8kM5r_jKDJm8yI5UsQFlLT0uEVbFkldRNuUEzV1tP6doWVSDowFV0mpEPWew2L1t0ffkurD63WoSvrgzS3fffhPF4ueq6qhjpBS2qGPwRdCNchnmugli6fxW9cXhVKate_KsvqU-oVqPABRQ6pu7s7dGFd_mL7FUelXBwrehx2lGDX_Rrd3JV7i6hu7XuDCs69n6IIc7CB9gl69zPBYl9DMCn1qhF0y5pJhgaYFckGlETiVXqtkXlI8JiPaHtikMAAZBTwbCnjUwnZciHZYrbihyOGfscSzMGve7fDHb_oFHxgjC2PP4FqV6UGT6EGR1UGwRQu0WoXJOUBcu6E_dcL9-s2RYnld6kFe0xPI4i4Pr_AsUCt5yy_rv87Mowq5yD459x9kH1dIjb9FHNd4toYLBqOoIIXhjNgNL9JAatkYqoStCR36_8p2o_p6zeoou5DuOJM9NYlQQN0NaKZsyFlAmVHnzg0gNRObq2vnsvhTM_QSYDLouoz3Lgy_Z18QUmHZJFLltcTvqiQrGR88hPi3vx2cIVpyDwErc4QE0VaDRaRfo17V5cys8OCbF8Z9SDb3qMH0iWyV5CIXmi_XPAWqtqnZp-y1vB65ndoS0P3_BlJW-NxUHSxkCpQihRCCj2rpDXNGKWEQPAMZDydQNu3]--></g></svg>