<?xml version="1.0" encoding="us-ascii" standalone="no"?><svg xmlns="http://www.w3.org/2000/svg" xmlns:xlink="http://www.w3.org/1999/xlink" contentStyleType="text/css" height="1960px" preserveAspectRatio="none" style="width:2316px;height:1960px;background:#FFFFFF;" version="1.1" viewBox="0 0 2316 1960" width="2316px" zoomAndPan="magnify"><defs/><g><!--cluster user_logic--><g id="cluster_user_logic"><path d="M9.5,677 L89.5,677 A5.25,5.25 0 0 1 93,680.5 L100,699.2969 L1220.5,699.2969 A3.5,3.5 0 0 1 1224,702.7969 L1224,919.5 A3.5,3.5 0 0 1 1220.5,923 L9.5,923 A3.5,3.5 0 0 1 6,919.5 L6,680.5 A3.5,3.5 0 0 1 9.5,677 " fill="none" style="stroke:#696969;stroke-width:1.0;"/><line style="stroke:#696969;stroke-width:1.0;" x1="6" x2="100" y1="699.2969" y2="699.2969"/><text fill="#000000" font-family="sans-serif" font-size="14" font-weight="bold" lengthAdjust="spacing" textLength="81" x="10" y="691.9951">user_logic</text></g><!--cluster HTML_Templates--><g id="cluster_HTML_Templates"><path d="M436.5,445 L573.5,445 A5.25,5.25 0 0 1 577,448.5 L584,467.2969 L1597.5,467.2969 A3.5,3.5 0 0 1 1601,470.7969 L1601,640.5 A3.5,3.5 0 0 1 1597.5,644 L436.5,644 A3.5,3.5 0 0 1 433,640.5 L433,448.5 A3.5,3.5 0 0 1 436.5,445 " fill="none" style="stroke:#696969;stroke-width:1.0;"/><line style="stroke:#696969;stroke-width:1.0;" x1="433" x2="584" y1="467.2969" y2="467.2969"/><text fill="#000000" font-family="sans-serif" font-size="14" font-weight="bold" lengthAdjust="spacing" textLength="138" x="437" y="459.9951">HTML_Templates</text></g><!--cluster Templates--><g id="cluster_Templates"><path d="M460.5,488 L545.5,488 A5.25,5.25 0 0 1 549,491.5 L556,510.2969 L1573.5,510.2969 A3.5,3.5 0 0 1 1577,513.7969 L1577,616.5 A3.5,3.5 0 0 1 1573.5,620 L460.5,620 A3.5,3.5 0 0 1 457,616.5 L457,491.5 A3.5,3.5 0 0 1 460.5,488 " fill="none" style="stroke:#696969;stroke-width:1.0;"/><line style="stroke:#696969;stroke-width:1.0;" x1="457" x2="556" y1="510.2969" y2="510.2969"/><text fill="#000000" font-family="sans-serif" font-size="14" font-weight="bold" lengthAdjust="spacing" textLength="86" x="461" y="502.9951">Templates</text></g><!--cluster dataHandler--><g id="cluster_dataHandler"><path d="M671.5,964 L770.5,964 A5.25,5.25 0 0 1 774,967.5 L781,986.2969 L1489.5,986.2969 A3.5,3.5 0 0 1 1493,989.7969 L1493,1656.5 A3.5,3.5 0 0 1 1489.5,1660 L671.5,1660 A3.5,3.5 0 0 1 668,1656.5 L668,967.5 A3.5,3.5 0 0 1 671.5,964 " fill="none" style="stroke:#696969;stroke-width:1.0;"/><line style="stroke:#696969;stroke-width:1.0;" x1="668" x2="781" y1="986.2969" y2="986.2969"/><text fill="#000000" font-family="sans-serif" font-size="14" font-weight="bold" lengthAdjust="spacing" textLength="100" x="672" y="978.9951">dataHandler</text></g><!--cluster Server--><g id="cluster_Server"><path d="M787.5,142 L837.5,142 A5.25,5.25 0 0 1 841,145.5 L848,164.2969 L1019.5,164.2969 A3.5,3.5 0 0 1 1023,167.7969 L1023,400.5 A3.5,3.5 0 0 1 1019.5,404 L787.5,404 A3.5,3.5 0 0 1 784,400.5 L784,145.5 A3.5,3.5 0 0 1 787.5,142 " fill="none" style="stroke:#696969;stroke-width:1.0;"/><line style="stroke:#696969;stroke-width:1.0;" x1="784" x2="848" y1="164.2969" y2="164.2969"/><text fill="#000000" font-family="sans-serif" font-size="14" font-weight="bold" lengthAdjust="spacing" textLength="51" x="788" y="156.9951">Server</text></g><!--cluster logic--><g id="cluster_logic"><path d="M1528.5,1463.5 L1566.5,1463.5 A5.25,5.25 0 0 1 1570,1467 L1577,1485.7969 L2179.5,1485.7969 A3.5,3.5 0 0 1 2183,1489.2969 L2183,1949.5 A3.5,3.5 0 0 1 2179.5,1953 L1528.5,1953 A3.5,3.5 0 0 1 1525,1949.5 L1525,1467 A3.5,3.5 0 0 1 1528.5,1463.5 " fill="none" style="stroke:#696969;stroke-width:1.0;"/><line style="stroke:#696969;stroke-width:1.0;" x1="1525" x2="1577" y1="1485.7969" y2="1485.7969"/><text fill="#000000" font-family="sans-serif" font-size="14" font-weight="bold" lengthAdjust="spacing" textLength="39" x="1529" y="1478.4951">logic</text></g><!--class session_check--><g id="elem_session_check"><rect codeLine="12" fill="#F1F1F1" height="64.2969" id="session_check" rx="3.5" ry="3.5" style="stroke:#181818;stroke-width:0.5;" width="236" x="972" y="777.5"/><ellipse cx="1034.75" cy="793.5" fill="#ADD1B2" rx="11" ry="11" style="stroke:#181818;stroke-width:1.0;"/><path d="M1037.0938,789.1719 C1036.1563,788.7344 1035.5625,788.5938 1034.6875,788.5938 C1032.0625,788.5938 1030.0625,790.6719 1030.0625,793.3906 L1030.0625,794.5156 C1030.0625,797.0938 1032.1719,798.9844 1035.0625,798.9844 C1036.2813,798.9844 1037.4375,798.6875 1038.1875,798.1406 C1038.7656,797.7344 1039.0938,797.2813 1039.0938,796.8906 C1039.0938,796.4375 1038.7031,796.0469 1038.2344,796.0469 C1038.0156,796.0469 1037.8125,796.125 1037.625,796.3125 C1037.1719,796.7969 1037.1719,796.7969 1036.9844,796.8906 C1036.5625,797.1563 1035.875,797.2813 1035.1094,797.2813 C1033.0625,797.2813 1031.7656,796.1875 1031.7656,794.4844 L1031.7656,793.3906 C1031.7656,791.6094 1033.0156,790.2969 1034.75,790.2969 C1035.3281,790.2969 1035.9375,790.4531 1036.4063,790.7031 C1036.8906,790.9844 1037.0625,791.2031 1037.1563,791.6094 C1037.2188,792.0156 1037.25,792.1406 1037.3906,792.2656 C1037.5313,792.4063 1037.7656,792.5156 1037.9844,792.5156 C1038.25,792.5156 1038.5156,792.375 1038.6875,792.1563 C1038.7969,792 1038.8281,791.8125 1038.8281,791.3906 L1038.8281,789.9688 C1038.8281,789.5313 1038.8125,789.4063 1038.7188,789.25 C1038.5625,788.9844 1038.2813,788.8438 1037.9844,788.8438 C1037.6875,788.8438 1037.4844,788.9375 1037.2656,789.25 L1037.0938,789.1719 Z " fill="#000000"/><text fill="#000000" font-family="sans-serif" font-size="14" lengthAdjust="spacing" textLength="102" x="1055.25" y="798.3467">session_check</text><line style="stroke:#181818;stroke-width:0.5;" x1="973" x2="1207" y1="809.5" y2="809.5"/><line style="stroke:#181818;stroke-width:0.5;" x1="973" x2="1207" y1="817.5" y2="817.5"/><ellipse cx="983" cy="831.1484" fill="#84BE84" rx="3" ry="3" style="stroke:#038048;stroke-width:1.0;"/><text fill="#000000" font-family="sans-serif" font-size="14" lengthAdjust="spacing" textLength="210" x="992" y="834.4951">index(session_data: dict) : str</text></g><!--class login--><g id="elem_login"><rect codeLine="16" fill="#F1F1F1" height="178.375" id="login" rx="3.5" ry="3.5" style="stroke:#181818;stroke-width:0.5;" width="521" x="415.5" y="720.5"/><ellipse cx="654.25" cy="736.5" fill="#ADD1B2" rx="11" ry="11" style="stroke:#181818;stroke-width:1.0;"/><path d="M656.5938,732.1719 C655.6563,731.7344 655.0625,731.5938 654.1875,731.5938 C651.5625,731.5938 649.5625,733.6719 649.5625,736.3906 L649.5625,737.5156 C649.5625,740.0938 651.6719,741.9844 654.5625,741.9844 C655.7813,741.9844 656.9375,741.6875 657.6875,741.1406 C658.2656,740.7344 658.5938,740.2813 658.5938,739.8906 C658.5938,739.4375 658.2031,739.0469 657.7344,739.0469 C657.5156,739.0469 657.3125,739.125 657.125,739.3125 C656.6719,739.7969 656.6719,739.7969 656.4844,739.8906 C656.0625,740.1563 655.375,740.2813 654.6094,740.2813 C652.5625,740.2813 651.2656,739.1875 651.2656,737.4844 L651.2656,736.3906 C651.2656,734.6094 652.5156,733.2969 654.25,733.2969 C654.8281,733.2969 655.4375,733.4531 655.9063,733.7031 C656.3906,733.9844 656.5625,734.2031 656.6563,734.6094 C656.7188,735.0156 656.75,735.1406 656.8906,735.2656 C657.0313,735.4063 657.2656,735.5156 657.4844,735.5156 C657.75,735.5156 658.0156,735.375 658.1875,735.1563 C658.2969,735 658.3281,734.8125 658.3281,734.3906 L658.3281,732.9688 C658.3281,732.5313 658.3125,732.4063 658.2188,732.25 C658.0625,731.9844 657.7813,731.8438 657.4844,731.8438 C657.1875,731.8438 656.9844,731.9375 656.7656,732.25 L656.5938,732.1719 Z " fill="#000000"/><text fill="#000000" font-family="sans-serif" font-size="14" lengthAdjust="spacing" textLength="35" x="674.75" y="741.3467">login</text><line style="stroke:#181818;stroke-width:0.5;" x1="416.5" x2="935.5" y1="752.5" y2="752.5"/><rect fill="none" height="6" style="stroke:#C82930;stroke-width:1.0;" width="6" x="423.5" y="763.1484"/><text fill="#000000" font-family="sans-serif" font-size="14" lengthAdjust="spacing" textLength="183" x="435.5" y="769.4951">dataHandler: dataHandler</text><rect fill="none" height="6" style="stroke:#C82930;stroke-width:1.0;" width="6" x="423.5" y="779.4453"/><text fill="#000000" font-family="sans-serif" font-size="14" lengthAdjust="spacing" textLength="76" x="435.5" y="785.792">key: bytes</text><rect fill="none" height="6" style="stroke:#C82930;stroke-width:1.0;" width="6" x="423.5" y="795.7422"/><text fill="#000000" font-family="sans-serif" font-size="14" lengthAdjust="spacing" textLength="103" x="435.5" y="802.0889">fernet: Fernet</text><line style="stroke:#181818;stroke-width:0.5;" x1="416.5" x2="935.5" y1="809.3906" y2="809.3906"/><ellipse cx="426.5" cy="823.0391" fill="#84BE84" rx="3" ry="3" style="stroke:#038048;stroke-width:1.0;"/><text fill="#000000" font-family="sans-serif" font-size="14" lengthAdjust="spacing" textLength="495" x="435.5" y="826.3857">verify_password(stored_password: str, provided_password: str) : bool</text><ellipse cx="426.5" cy="839.3359" fill="#84BE84" rx="3" ry="3" style="stroke:#038048;stroke-width:1.0;"/><text fill="#000000" font-family="sans-serif" font-size="14" lengthAdjust="spacing" textLength="121" x="435.5" y="842.6826">login_page() : str</text><ellipse cx="426.5" cy="855.6328" fill="#84BE84" rx="3" ry="3" style="stroke:#038048;stroke-width:1.0;"/><text fill="#000000" font-family="sans-serif" font-size="14" lengthAdjust="spacing" textLength="293" x="435.5" y="858.9795">login(username: str, password: str) : bool</text><ellipse cx="426.5" cy="871.9297" fill="#84BE84" rx="3" ry="3" style="stroke:#038048;stroke-width:1.0;"/><text fill="#000000" font-family="sans-serif" font-size="14" lengthAdjust="spacing" textLength="291" x="435.5" y="875.2764">do_login(session_data: dict) : str or None</text><ellipse cx="426.5" cy="888.2266" fill="#84BE84" rx="3" ry="3" style="stroke:#038048;stroke-width:1.0;"/><text fill="#000000" font-family="sans-serif" font-size="14" lengthAdjust="spacing" textLength="234" x="435.5" y="891.5732">logout(session_data: dict) : None</text></g><!--class signin--><g id="elem_signin"><rect codeLine="28" fill="#F1F1F1" height="194.6719" id="signin" rx="3.5" ry="3.5" style="stroke:#181818;stroke-width:0.5;" width="358" x="22" y="712"/><ellipse cx="175.75" cy="728" fill="#ADD1B2" rx="11" ry="11" style="stroke:#181818;stroke-width:1.0;"/><path d="M178.0938,723.6719 C177.1563,723.2344 176.5625,723.0938 175.6875,723.0938 C173.0625,723.0938 171.0625,725.1719 171.0625,727.8906 L171.0625,729.0156 C171.0625,731.5938 173.1719,733.4844 176.0625,733.4844 C177.2813,733.4844 178.4375,733.1875 179.1875,732.6406 C179.7656,732.2344 180.0938,731.7813 180.0938,731.3906 C180.0938,730.9375 179.7031,730.5469 179.2344,730.5469 C179.0156,730.5469 178.8125,730.625 178.625,730.8125 C178.1719,731.2969 178.1719,731.2969 177.9844,731.3906 C177.5625,731.6563 176.875,731.7813 176.1094,731.7813 C174.0625,731.7813 172.7656,730.6875 172.7656,728.9844 L172.7656,727.8906 C172.7656,726.1094 174.0156,724.7969 175.75,724.7969 C176.3281,724.7969 176.9375,724.9531 177.4063,725.2031 C177.8906,725.4844 178.0625,725.7031 178.1563,726.1094 C178.2188,726.5156 178.25,726.6406 178.3906,726.7656 C178.5313,726.9063 178.7656,727.0156 178.9844,727.0156 C179.25,727.0156 179.5156,726.875 179.6875,726.6563 C179.7969,726.5 179.8281,726.3125 179.8281,725.8906 L179.8281,724.4688 C179.8281,724.0313 179.8125,723.9063 179.7188,723.75 C179.5625,723.4844 179.2813,723.3438 178.9844,723.3438 C178.6875,723.3438 178.4844,723.4375 178.2656,723.75 L178.0938,723.6719 Z " fill="#000000"/><text fill="#000000" font-family="sans-serif" font-size="14" lengthAdjust="spacing" textLength="42" x="196.25" y="732.8467">signin</text><line style="stroke:#181818;stroke-width:0.5;" x1="23" x2="379" y1="744" y2="744"/><rect fill="none" height="6" style="stroke:#C82930;stroke-width:1.0;" width="6" x="30" y="754.6484"/><text fill="#000000" font-family="sans-serif" font-size="14" lengthAdjust="spacing" textLength="183" x="42" y="760.9951">dataHandler: dataHandler</text><rect fill="none" height="6" style="stroke:#C82930;stroke-width:1.0;" width="6" x="30" y="770.9453"/><text fill="#000000" font-family="sans-serif" font-size="14" lengthAdjust="spacing" textLength="76" x="42" y="777.292">key: bytes</text><rect fill="none" height="6" style="stroke:#C82930;stroke-width:1.0;" width="6" x="30" y="787.2422"/><text fill="#000000" font-family="sans-serif" font-size="14" lengthAdjust="spacing" textLength="103" x="42" y="793.5889">fernet: Fernet</text><line style="stroke:#181818;stroke-width:0.5;" x1="23" x2="379" y1="800.8906" y2="800.8906"/><ellipse cx="33" cy="814.5391" fill="#84BE84" rx="3" ry="3" style="stroke:#038048;stroke-width:1.0;"/><text fill="#000000" font-family="sans-serif" font-size="14" lengthAdjust="spacing" textLength="256" x="42" y="817.8857">is_user_id_unique(user_id: str) : bool</text><ellipse cx="33" cy="830.8359" fill="#84BE84" rx="3" ry="3" style="stroke:#038048;stroke-width:1.0;"/><text fill="#000000" font-family="sans-serif" font-size="14" lengthAdjust="spacing" textLength="296" x="42" y="834.1826">generate_unique_user_id(length: int) : str</text><ellipse cx="33" cy="847.1328" fill="#84BE84" rx="3" ry="3" style="stroke:#038048;stroke-width:1.0;"/><text fill="#000000" font-family="sans-serif" font-size="14" lengthAdjust="spacing" textLength="294" x="42" y="850.4795">username_available(username: str) : bool</text><ellipse cx="33" cy="863.4297" fill="#84BE84" rx="3" ry="3" style="stroke:#038048;stroke-width:1.0;"/><text fill="#000000" font-family="sans-serif" font-size="14" lengthAdjust="spacing" textLength="332" x="42" y="866.7764">save_user(username: str, password: str) : None</text><ellipse cx="33" cy="879.7266" fill="#84BE84" rx="3" ry="3" style="stroke:#038048;stroke-width:1.0;"/><text fill="#000000" font-family="sans-serif" font-size="14" lengthAdjust="spacing" textLength="133" x="42" y="883.0732">signup_page() : str</text><ellipse cx="33" cy="896.0234" fill="#84BE84" rx="3" ry="3" style="stroke:#038048;stroke-width:1.0;"/><text fill="#000000" font-family="sans-serif" font-size="14" lengthAdjust="spacing" textLength="278" x="42" y="899.3701">signup(session_data: dict) : str or None</text></g><!--class login_page--><g id="elem_login_page"><rect codeLine="75" fill="#F1F1F1" height="80.5938" id="login_page" rx="3.5" ry="3.5" style="stroke:#181818;stroke-width:0.5;" width="189" x="697.5" y="523"/><ellipse cx="748.75" cy="539" fill="#ADD1B2" rx="11" ry="11" style="stroke:#181818;stroke-width:1.0;"/><path d="M751.0938,534.6719 C750.1563,534.2344 749.5625,534.0938 748.6875,534.0938 C746.0625,534.0938 744.0625,536.1719 744.0625,538.8906 L744.0625,540.0156 C744.0625,542.5938 746.1719,544.4844 749.0625,544.4844 C750.2813,544.4844 751.4375,544.1875 752.1875,543.6406 C752.7656,543.2344 753.0938,542.7813 753.0938,542.3906 C753.0938,541.9375 752.7031,541.5469 752.2344,541.5469 C752.0156,541.5469 751.8125,541.625 751.625,541.8125 C751.1719,542.2969 751.1719,542.2969 750.9844,542.3906 C750.5625,542.6563 749.875,542.7813 749.1094,542.7813 C747.0625,542.7813 745.7656,541.6875 745.7656,539.9844 L745.7656,538.8906 C745.7656,537.1094 747.0156,535.7969 748.75,535.7969 C749.3281,535.7969 749.9375,535.9531 750.4063,536.2031 C750.8906,536.4844 751.0625,536.7031 751.1563,537.1094 C751.2188,537.5156 751.25,537.6406 751.3906,537.7656 C751.5313,537.9063 751.7656,538.0156 751.9844,538.0156 C752.25,538.0156 752.5156,537.875 752.6875,537.6563 C752.7969,537.5 752.8281,537.3125 752.8281,536.8906 L752.8281,535.4688 C752.8281,535.0313 752.8125,534.9063 752.7188,534.75 C752.5625,534.4844 752.2813,534.3438 751.9844,534.3438 C751.6875,534.3438 751.4844,534.4375 751.2656,534.75 L751.0938,534.6719 Z " fill="#000000"/><text fill="#000000" font-family="sans-serif" font-size="14" lengthAdjust="spacing" textLength="78" x="769.25" y="543.8467">login_page</text><line style="stroke:#181818;stroke-width:0.5;" x1="698.5" x2="885.5" y1="555" y2="555"/><line style="stroke:#181818;stroke-width:0.5;" x1="698.5" x2="885.5" y1="563" y2="563"/><ellipse cx="708.5" cy="576.6484" fill="#84BE84" rx="3" ry="3" style="stroke:#038048;stroke-width:1.0;"/><text fill="#000000" font-family="sans-serif" font-size="14" lengthAdjust="spacing" textLength="163" x="717.5" y="579.9951">return_template() : str</text><ellipse cx="708.5" cy="592.9453" fill="#84BE84" rx="3" ry="3" style="stroke:#038048;stroke-width:1.0;"/><text fill="#000000" font-family="sans-serif" font-size="14" lengthAdjust="spacing" textLength="163" x="717.5" y="596.292">return_template() : str</text></g><!--class sign_in_page--><g id="elem_sign_in_page"><rect codeLine="61" fill="#F1F1F1" height="64.2969" id="sign_in_page" rx="3.5" ry="3.5" style="stroke:#181818;stroke-width:0.5;" width="189" x="473.5" y="531.5"/><ellipse cx="517.75" cy="547.5" fill="#ADD1B2" rx="11" ry="11" style="stroke:#181818;stroke-width:1.0;"/><path d="M520.0938,543.1719 C519.1563,542.7344 518.5625,542.5938 517.6875,542.5938 C515.0625,542.5938 513.0625,544.6719 513.0625,547.3906 L513.0625,548.5156 C513.0625,551.0938 515.1719,552.9844 518.0625,552.9844 C519.2813,552.9844 520.4375,552.6875 521.1875,552.1406 C521.7656,551.7344 522.0938,551.2813 522.0938,550.8906 C522.0938,550.4375 521.7031,550.0469 521.2344,550.0469 C521.0156,550.0469 520.8125,550.125 520.625,550.3125 C520.1719,550.7969 520.1719,550.7969 519.9844,550.8906 C519.5625,551.1563 518.875,551.2813 518.1094,551.2813 C516.0625,551.2813 514.7656,550.1875 514.7656,548.4844 L514.7656,547.3906 C514.7656,545.6094 516.0156,544.2969 517.75,544.2969 C518.3281,544.2969 518.9375,544.4531 519.4063,544.7031 C519.8906,544.9844 520.0625,545.2031 520.1563,545.6094 C520.2188,546.0156 520.25,546.1406 520.3906,546.2656 C520.5313,546.4063 520.7656,546.5156 520.9844,546.5156 C521.25,546.5156 521.5156,546.375 521.6875,546.1563 C521.7969,546 521.8281,545.8125 521.8281,545.3906 L521.8281,543.9688 C521.8281,543.5313 521.8125,543.4063 521.7188,543.25 C521.5625,542.9844 521.2813,542.8438 520.9844,542.8438 C520.6875,542.8438 520.4844,542.9375 520.2656,543.25 L520.0938,543.1719 Z " fill="#000000"/><text fill="#000000" font-family="sans-serif" font-size="14" lengthAdjust="spacing" textLength="92" x="538.25" y="552.3467">sign_in_page</text><line style="stroke:#181818;stroke-width:0.5;" x1="474.5" x2="661.5" y1="563.5" y2="563.5"/><line style="stroke:#181818;stroke-width:0.5;" x1="474.5" x2="661.5" y1="571.5" y2="571.5"/><ellipse cx="484.5" cy="585.1484" fill="#84BE84" rx="3" ry="3" style="stroke:#038048;stroke-width:1.0;"/><text fill="#000000" font-family="sans-serif" font-size="14" lengthAdjust="spacing" textLength="163" x="493.5" y="588.4951">return_template() : str</text></g><!--class home_page--><g id="elem_home_page"><rect codeLine="71" fill="#F1F1F1" height="64.2969" id="home_page" rx="3.5" ry="3.5" style="stroke:#181818;stroke-width:0.5;" width="248" x="922" y="531.5"/><ellipse cx="999.75" cy="547.5" fill="#ADD1B2" rx="11" ry="11" style="stroke:#181818;stroke-width:1.0;"/><path d="M1002.0938,543.1719 C1001.1563,542.7344 1000.5625,542.5938 999.6875,542.5938 C997.0625,542.5938 995.0625,544.6719 995.0625,547.3906 L995.0625,548.5156 C995.0625,551.0938 997.1719,552.9844 1000.0625,552.9844 C1001.2813,552.9844 1002.4375,552.6875 1003.1875,552.1406 C1003.7656,551.7344 1004.0938,551.2813 1004.0938,550.8906 C1004.0938,550.4375 1003.7031,550.0469 1003.2344,550.0469 C1003.0156,550.0469 1002.8125,550.125 1002.625,550.3125 C1002.1719,550.7969 1002.1719,550.7969 1001.9844,550.8906 C1001.5625,551.1563 1000.875,551.2813 1000.1094,551.2813 C998.0625,551.2813 996.7656,550.1875 996.7656,548.4844 L996.7656,547.3906 C996.7656,545.6094 998.0156,544.2969 999.75,544.2969 C1000.3281,544.2969 1000.9375,544.4531 1001.4063,544.7031 C1001.8906,544.9844 1002.0625,545.2031 1002.1563,545.6094 C1002.2188,546.0156 1002.25,546.1406 1002.3906,546.2656 C1002.5313,546.4063 1002.7656,546.5156 1002.9844,546.5156 C1003.25,546.5156 1003.5156,546.375 1003.6875,546.1563 C1003.7969,546 1003.8281,545.8125 1003.8281,545.3906 L1003.8281,543.9688 C1003.8281,543.5313 1003.8125,543.4063 1003.7188,543.25 C1003.5625,542.9844 1003.2813,542.8438 1002.9844,542.8438 C1002.6875,542.8438 1002.4844,542.9375 1002.2656,543.25 L1002.0938,543.1719 Z " fill="#000000"/><text fill="#000000" font-family="sans-serif" font-size="14" lengthAdjust="spacing" textLength="84" x="1020.25" y="552.3467">home_page</text><line style="stroke:#181818;stroke-width:0.5;" x1="923" x2="1169" y1="563.5" y2="563.5"/><line style="stroke:#181818;stroke-width:0.5;" x1="923" x2="1169" y1="571.5" y2="571.5"/><ellipse cx="933" cy="585.1484" fill="#84BE84" rx="3" ry="3" style="stroke:#038048;stroke-width:1.0;"/><text fill="#000000" font-family="sans-serif" font-size="14" lengthAdjust="spacing" textLength="222" x="942" y="588.4951">return_template(user: str) : str</text></g><!--class search_page--><g id="elem_search_page"><rect codeLine="84" fill="#F1F1F1" height="64.2969" id="search_page" rx="3.5" ry="3.5" style="stroke:#181818;stroke-width:0.5;" width="356" x="1205" y="531.5"/><ellipse cx="1333.75" cy="547.5" fill="#ADD1B2" rx="11" ry="11" style="stroke:#181818;stroke-width:1.0;"/><path d="M1336.0938,543.1719 C1335.1563,542.7344 1334.5625,542.5938 1333.6875,542.5938 C1331.0625,542.5938 1329.0625,544.6719 1329.0625,547.3906 L1329.0625,548.5156 C1329.0625,551.0938 1331.1719,552.9844 1334.0625,552.9844 C1335.2813,552.9844 1336.4375,552.6875 1337.1875,552.1406 C1337.7656,551.7344 1338.0938,551.2813 1338.0938,550.8906 C1338.0938,550.4375 1337.7031,550.0469 1337.2344,550.0469 C1337.0156,550.0469 1336.8125,550.125 1336.625,550.3125 C1336.1719,550.7969 1336.1719,550.7969 1335.9844,550.8906 C1335.5625,551.1563 1334.875,551.2813 1334.1094,551.2813 C1332.0625,551.2813 1330.7656,550.1875 1330.7656,548.4844 L1330.7656,547.3906 C1330.7656,545.6094 1332.0156,544.2969 1333.75,544.2969 C1334.3281,544.2969 1334.9375,544.4531 1335.4063,544.7031 C1335.8906,544.9844 1336.0625,545.2031 1336.1563,545.6094 C1336.2188,546.0156 1336.25,546.1406 1336.3906,546.2656 C1336.5313,546.4063 1336.7656,546.5156 1336.9844,546.5156 C1337.25,546.5156 1337.5156,546.375 1337.6875,546.1563 C1337.7969,546 1337.8281,545.8125 1337.8281,545.3906 L1337.8281,543.9688 C1337.8281,543.5313 1337.8125,543.4063 1337.7188,543.25 C1337.5625,542.9844 1337.2813,542.8438 1336.9844,542.8438 C1336.6875,542.8438 1336.4844,542.9375 1336.2656,543.25 L1336.0938,543.1719 Z " fill="#000000"/><text fill="#000000" font-family="sans-serif" font-size="14" lengthAdjust="spacing" textLength="90" x="1354.25" y="552.3467">search_page</text><line style="stroke:#181818;stroke-width:0.5;" x1="1206" x2="1560" y1="563.5" y2="563.5"/><line style="stroke:#181818;stroke-width:0.5;" x1="1206" x2="1560" y1="571.5" y2="571.5"/><ellipse cx="1216" cy="585.1484" fill="#84BE84" rx="3" ry="3" style="stroke:#038048;stroke-width:1.0;"/><text fill="#000000" font-family="sans-serif" font-size="14" lengthAdjust="spacing" textLength="330" x="1225" y="588.4951">return_template(search_results: List[str]) : str</text></g><!--class dataBaseHandler--><g id="elem_dataBaseHandler"><rect codeLine="89" fill="#F1F1F1" height="390.2344" id="dataBaseHandler" rx="3.5" ry="3.5" style="stroke:#181818;stroke-width:0.5;" width="758" x="711" y="1007"/><ellipse cx="1025.25" cy="1023" fill="#ADD1B2" rx="11" ry="11" style="stroke:#181818;stroke-width:1.0;"/><path d="M1027.5938,1018.6719 C1026.6563,1018.2344 1026.0625,1018.0938 1025.1875,1018.0938 C1022.5625,1018.0938 1020.5625,1020.1719 1020.5625,1022.8906 L1020.5625,1024.0156 C1020.5625,1026.5938 1022.6719,1028.4844 1025.5625,1028.4844 C1026.7813,1028.4844 1027.9375,1028.1875 1028.6875,1027.6406 C1029.2656,1027.2344 1029.5938,1026.7813 1029.5938,1026.3906 C1029.5938,1025.9375 1029.2031,1025.5469 1028.7344,1025.5469 C1028.5156,1025.5469 1028.3125,1025.625 1028.125,1025.8125 C1027.6719,1026.2969 1027.6719,1026.2969 1027.4844,1026.3906 C1027.0625,1026.6563 1026.375,1026.7813 1025.6094,1026.7813 C1023.5625,1026.7813 1022.2656,1025.6875 1022.2656,1023.9844 L1022.2656,1022.8906 C1022.2656,1021.1094 1023.5156,1019.7969 1025.25,1019.7969 C1025.8281,1019.7969 1026.4375,1019.9531 1026.9063,1020.2031 C1027.3906,1020.4844 1027.5625,1020.7031 1027.6563,1021.1094 C1027.7188,1021.5156 1027.75,1021.6406 1027.8906,1021.7656 C1028.0313,1021.9063 1028.2656,1022.0156 1028.4844,1022.0156 C1028.75,1022.0156 1029.0156,1021.875 1029.1875,1021.6563 C1029.2969,1021.5 1029.3281,1021.3125 1029.3281,1020.8906 L1029.3281,1019.4688 C1029.3281,1019.0313 1029.3125,1018.9063 1029.2188,1018.75 C1029.0625,1018.4844 1028.7813,1018.3438 1028.4844,1018.3438 C1028.1875,1018.3438 1027.9844,1018.4375 1027.7656,1018.75 L1027.5938,1018.6719 Z " fill="#000000"/><text fill="#000000" font-family="sans-serif" font-size="14" lengthAdjust="spacing" textLength="121" x="1045.75" y="1027.8467">dataBaseHandler</text><line style="stroke:#181818;stroke-width:0.5;" x1="712" x2="1468" y1="1039" y2="1039"/><text fill="#000000" font-family="sans-serif" font-size="14" lengthAdjust="spacing" textLength="109" x="717" y="1055.9951">_userItems: list</text><text fill="#000000" font-family="sans-serif" font-size="14" lengthAdjust="spacing" textLength="117" x="717" y="1072.292">_topicItems: list</text><line style="stroke:#181818;stroke-width:0.5;" x1="712" x2="1468" y1="1079.5938" y2="1079.5938"/><ellipse cx="722" cy="1093.2422" fill="#84BE84" rx="3" ry="3" style="stroke:#038048;stroke-width:1.0;"/><text fill="#000000" font-family="sans-serif" font-size="14" lengthAdjust="spacing" textLength="34" x="731" y="1096.5889">init()</text><ellipse cx="722" cy="1109.5391" fill="#84BE84" rx="3" ry="3" style="stroke:#038048;stroke-width:1.0;"/><text fill="#000000" font-family="sans-serif" font-size="14" lengthAdjust="spacing" textLength="32" x="731" y="1112.8857">len()</text><ellipse cx="722" cy="1125.8359" fill="#84BE84" rx="3" ry="3" style="stroke:#038048;stroke-width:1.0;"/><text fill="#000000" font-family="sans-serif" font-size="14" lengthAdjust="spacing" textLength="36" x="731" y="1129.1826">iter()</text><ellipse cx="722" cy="1142.1328" fill="#84BE84" rx="3" ry="3" style="stroke:#038048;stroke-width:1.0;"/><text fill="#000000" font-family="sans-serif" font-size="14" lengthAdjust="spacing" textLength="186" x="731" y="1145.4795">addUser(new_item: Tuple)</text><ellipse cx="722" cy="1158.4297" fill="#84BE84" rx="3" ry="3" style="stroke:#038048;stroke-width:1.0;"/><text fill="#000000" font-family="sans-serif" font-size="14" lengthAdjust="spacing" textLength="161" x="731" y="1161.7764">lookUpUserID(key: int)</text><ellipse cx="722" cy="1174.7266" fill="#84BE84" rx="3" ry="3" style="stroke:#038048;stroke-width:1.0;"/><text fill="#000000" font-family="sans-serif" font-size="14" lengthAdjust="spacing" textLength="232" x="731" y="1178.0732">lookUpUserName(userName: str)</text><ellipse cx="722" cy="1191.0234" fill="#84BE84" rx="3" ry="3" style="stroke:#038048;stroke-width:1.0;"/><text fill="#000000" font-family="sans-serif" font-size="14" lengthAdjust="spacing" textLength="151" x="731" y="1194.3701">removeUser(key: int)</text><ellipse cx="722" cy="1207.3203" fill="#84BE84" rx="3" ry="3" style="stroke:#038048;stroke-width:1.0;"/><text fill="#000000" font-family="sans-serif" font-size="14" lengthAdjust="spacing" textLength="135" x="731" y="1210.667">deleteTableUsers()</text><ellipse cx="722" cy="1223.6172" fill="#84BE84" rx="3" ry="3" style="stroke:#038048;stroke-width:1.0;"/><text fill="#000000" font-family="sans-serif" font-size="14" lengthAdjust="spacing" textLength="138" x="731" y="1226.9639">displayTableUsers()</text><ellipse cx="722" cy="1239.9141" fill="#84BE84" rx="3" ry="3" style="stroke:#038048;stroke-width:1.0;"/><text fill="#000000" font-family="sans-serif" font-size="14" lengthAdjust="spacing" textLength="193" x="731" y="1243.2607">addtopic(new_item: Tuple)</text><ellipse cx="722" cy="1256.2109" fill="#84BE84" rx="3" ry="3" style="stroke:#038048;stroke-width:1.0;"/><text fill="#000000" font-family="sans-serif" font-size="14" lengthAdjust="spacing" textLength="235" x="731" y="1259.5576">lookUpusertopics(userName: str)</text><ellipse cx="722" cy="1272.5078" fill="#84BE84" rx="3" ry="3" style="stroke:#038048;stroke-width:1.0;"/><text fill="#000000" font-family="sans-serif" font-size="14" lengthAdjust="spacing" textLength="346" x="731" y="1275.8545">lookUpSpecifictopic(userName: str, topicID: int)</text><ellipse cx="722" cy="1288.8047" fill="#84BE84" rx="3" ry="3" style="stroke:#038048;stroke-width:1.0;"/><text fill="#000000" font-family="sans-serif" font-size="14" lengthAdjust="spacing" textLength="223" x="731" y="1292.1514">lookUpSpecificSubstring(s: str)</text><ellipse cx="722" cy="1305.1016" fill="#84BE84" rx="3" ry="3" style="stroke:#038048;stroke-width:1.0;"/><text fill="#000000" font-family="sans-serif" font-size="14" lengthAdjust="spacing" textLength="732" x="731" y="1308.4482">updatetopicRating(userName: str, topicID: int, structure: int, quality: int, likeStat: int, dislikeStat: int)</text><ellipse cx="722" cy="1321.3984" fill="#84BE84" rx="3" ry="3" style="stroke:#038048;stroke-width:1.0;"/><text fill="#000000" font-family="sans-serif" font-size="14" lengthAdjust="spacing" textLength="375" x="731" y="1324.7451">getSpecifictopicRatings(userName: str, topicID: int)</text><ellipse cx="722" cy="1337.6953" fill="#84BE84" rx="3" ry="3" style="stroke:#038048;stroke-width:1.0;"/><text fill="#000000" font-family="sans-serif" font-size="14" lengthAdjust="spacing" textLength="285" x="731" y="1341.042">deletetopic(userName: str, topicID: int)</text><ellipse cx="722" cy="1353.9922" fill="#84BE84" rx="3" ry="3" style="stroke:#038048;stroke-width:1.0;"/><text fill="#000000" font-family="sans-serif" font-size="14" lengthAdjust="spacing" textLength="142" x="731" y="1357.3389">deleteTabletopics()</text><ellipse cx="722" cy="1370.2891" fill="#84BE84" rx="3" ry="3" style="stroke:#038048;stroke-width:1.0;"/><text fill="#000000" font-family="sans-serif" font-size="14" lengthAdjust="spacing" textLength="145" x="731" y="1373.6357">displayTabletopics()</text><ellipse cx="722" cy="1386.5859" fill="#84BE84" rx="3" ry="3" style="stroke:#038048;stroke-width:1.0;"/><text fill="#000000" font-family="sans-serif" font-size="14" lengthAdjust="spacing" textLength="192" x="731" y="1389.9326">displayTabletopicRatings()</text></g><!--class users--><g id="elem_users"><rect codeLine="115" fill="#F1F1F1" height="129.4844" id="users" rx="3.5" ry="3.5" style="stroke:#181818;stroke-width:0.5;" width="145" x="1200.5" y="1482.5"/><ellipse cx="1250.25" cy="1498.5" fill="#ADD1B2" rx="11" ry="11" style="stroke:#181818;stroke-width:1.0;"/><path d="M1252.5938,1494.1719 C1251.6563,1493.7344 1251.0625,1493.5938 1250.1875,1493.5938 C1247.5625,1493.5938 1245.5625,1495.6719 1245.5625,1498.3906 L1245.5625,1499.5156 C1245.5625,1502.0938 1247.6719,1503.9844 1250.5625,1503.9844 C1251.7813,1503.9844 1252.9375,1503.6875 1253.6875,1503.1406 C1254.2656,1502.7344 1254.5938,1502.2813 1254.5938,1501.8906 C1254.5938,1501.4375 1254.2031,1501.0469 1253.7344,1501.0469 C1253.5156,1501.0469 1253.3125,1501.125 1253.125,1501.3125 C1252.6719,1501.7969 1252.6719,1501.7969 1252.4844,1501.8906 C1252.0625,1502.1563 1251.375,1502.2813 1250.6094,1502.2813 C1248.5625,1502.2813 1247.2656,1501.1875 1247.2656,1499.4844 L1247.2656,1498.3906 C1247.2656,1496.6094 1248.5156,1495.2969 1250.25,1495.2969 C1250.8281,1495.2969 1251.4375,1495.4531 1251.9063,1495.7031 C1252.3906,1495.9844 1252.5625,1496.2031 1252.6563,1496.6094 C1252.7188,1497.0156 1252.75,1497.1406 1252.8906,1497.2656 C1253.0313,1497.4063 1253.2656,1497.5156 1253.4844,1497.5156 C1253.75,1497.5156 1254.0156,1497.375 1254.1875,1497.1563 C1254.2969,1497 1254.3281,1496.8125 1254.3281,1496.3906 L1254.3281,1494.9688 C1254.3281,1494.5313 1254.3125,1494.4063 1254.2188,1494.25 C1254.0625,1493.9844 1253.7813,1493.8438 1253.4844,1493.8438 C1253.1875,1493.8438 1252.9844,1493.9375 1252.7656,1494.25 L1252.5938,1494.1719 Z " fill="#000000"/><text fill="#000000" font-family="sans-serif" font-size="14" lengthAdjust="spacing" textLength="37" x="1270.75" y="1503.3467">users</text><line style="stroke:#181818;stroke-width:0.5;" x1="1201.5" x2="1344.5" y1="1514.5" y2="1514.5"/><text fill="#000000" font-family="sans-serif" font-size="14" lengthAdjust="spacing" textLength="81" x="1206.5" y="1531.4951">user_ID: int</text><text fill="#000000" font-family="sans-serif" font-size="14" lengthAdjust="spacing" textLength="133" x="1206.5" y="1547.792">userName: varchar</text><text fill="#000000" font-family="sans-serif" font-size="14" lengthAdjust="spacing" textLength="129" x="1206.5" y="1564.0889">password: varchar</text><line style="stroke:#181818;stroke-width:0.5;" x1="1201.5" x2="1344.5" y1="1571.3906" y2="1571.3906"/><ellipse cx="1211.5" cy="1585.0391" fill="#84BE84" rx="3" ry="3" style="stroke:#038048;stroke-width:1.0;"/><text fill="#000000" font-family="sans-serif" font-size="14" lengthAdjust="spacing" textLength="34" x="1220.5" y="1588.3857">init()</text><ellipse cx="1211.5" cy="1601.3359" fill="#84BE84" rx="3" ry="3" style="stroke:#038048;stroke-width:1.0;"/><text fill="#000000" font-family="sans-serif" font-size="14" lengthAdjust="spacing" textLength="30" x="1220.5" y="1604.6826">str()</text></g><!--class topics--><g id="elem_topics"><rect codeLine="125" fill="#F1F1F1" height="145.7813" id="topics" rx="3.5" ry="3.5" style="stroke:#181818;stroke-width:0.5;" width="145" x="834.5" y="1474"/><ellipse cx="880.25" cy="1490" fill="#ADD1B2" rx="11" ry="11" style="stroke:#181818;stroke-width:1.0;"/><path d="M882.5938,1485.6719 C881.6563,1485.2344 881.0625,1485.0938 880.1875,1485.0938 C877.5625,1485.0938 875.5625,1487.1719 875.5625,1489.8906 L875.5625,1491.0156 C875.5625,1493.5938 877.6719,1495.4844 880.5625,1495.4844 C881.7813,1495.4844 882.9375,1495.1875 883.6875,1494.6406 C884.2656,1494.2344 884.5938,1493.7813 884.5938,1493.3906 C884.5938,1492.9375 884.2031,1492.5469 883.7344,1492.5469 C883.5156,1492.5469 883.3125,1492.625 883.125,1492.8125 C882.6719,1493.2969 882.6719,1493.2969 882.4844,1493.3906 C882.0625,1493.6563 881.375,1493.7813 880.6094,1493.7813 C878.5625,1493.7813 877.2656,1492.6875 877.2656,1490.9844 L877.2656,1489.8906 C877.2656,1488.1094 878.5156,1486.7969 880.25,1486.7969 C880.8281,1486.7969 881.4375,1486.9531 881.9063,1487.2031 C882.3906,1487.4844 882.5625,1487.7031 882.6563,1488.1094 C882.7188,1488.5156 882.75,1488.6406 882.8906,1488.7656 C883.0313,1488.9063 883.2656,1489.0156 883.4844,1489.0156 C883.75,1489.0156 884.0156,1488.875 884.1875,1488.6563 C884.2969,1488.5 884.3281,1488.3125 884.3281,1487.8906 L884.3281,1486.4688 C884.3281,1486.0313 884.3125,1485.9063 884.2188,1485.75 C884.0625,1485.4844 883.7813,1485.3438 883.4844,1485.3438 C883.1875,1485.3438 882.9844,1485.4375 882.7656,1485.75 L882.5938,1485.6719 Z " fill="#000000"/><text fill="#000000" font-family="sans-serif" font-size="14" lengthAdjust="spacing" textLength="45" x="900.75" y="1494.8467">topics</text><line style="stroke:#181818;stroke-width:0.5;" x1="835.5" x2="978.5" y1="1506" y2="1506"/><text fill="#000000" font-family="sans-serif" font-size="14" lengthAdjust="spacing" textLength="95" x="840.5" y="1522.9951">date: varchar</text><text fill="#000000" font-family="sans-serif" font-size="14" lengthAdjust="spacing" textLength="133" x="840.5" y="1539.292">userName: varchar</text><text fill="#000000" font-family="sans-serif" font-size="14" lengthAdjust="spacing" textLength="100" x="840.5" y="1555.5889">topic: varchar</text><text fill="#000000" font-family="sans-serif" font-size="14" lengthAdjust="spacing" textLength="89" x="840.5" y="1571.8857">topic_ID: int</text><line style="stroke:#181818;stroke-width:0.5;" x1="835.5" x2="978.5" y1="1579.1875" y2="1579.1875"/><ellipse cx="845.5" cy="1592.8359" fill="#84BE84" rx="3" ry="3" style="stroke:#038048;stroke-width:1.0;"/><text fill="#000000" font-family="sans-serif" font-size="14" lengthAdjust="spacing" textLength="34" x="854.5" y="1596.1826">init()</text><ellipse cx="845.5" cy="1609.1328" fill="#84BE84" rx="3" ry="3" style="stroke:#038048;stroke-width:1.0;"/><text fill="#000000" font-family="sans-serif" font-size="14" lengthAdjust="spacing" textLength="30" x="854.5" y="1612.4795">str()</text></g><!--class topicRatingData--><g id="elem_topicRatingData"><rect codeLine="136" fill="#F1F1F1" height="178.375" id="topicRatingData" rx="3.5" ry="3.5" style="stroke:#181818;stroke-width:0.5;" width="151" x="1014.5" y="1458"/><ellipse cx="1029.5" cy="1474" fill="#ADD1B2" rx="11" ry="11" style="stroke:#181818;stroke-width:1.0;"/><path d="M1031.8438,1469.6719 C1030.9063,1469.2344 1030.3125,1469.0938 1029.4375,1469.0938 C1026.8125,1469.0938 1024.8125,1471.1719 1024.8125,1473.8906 L1024.8125,1475.0156 C1024.8125,1477.5938 1026.9219,1479.4844 1029.8125,1479.4844 C1031.0313,1479.4844 1032.1875,1479.1875 1032.9375,1478.6406 C1033.5156,1478.2344 1033.8438,1477.7813 1033.8438,1477.3906 C1033.8438,1476.9375 1033.4531,1476.5469 1032.9844,1476.5469 C1032.7656,1476.5469 1032.5625,1476.625 1032.375,1476.8125 C1031.9219,1477.2969 1031.9219,1477.2969 1031.7344,1477.3906 C1031.3125,1477.6563 1030.625,1477.7813 1029.8594,1477.7813 C1027.8125,1477.7813 1026.5156,1476.6875 1026.5156,1474.9844 L1026.5156,1473.8906 C1026.5156,1472.1094 1027.7656,1470.7969 1029.5,1470.7969 C1030.0781,1470.7969 1030.6875,1470.9531 1031.1563,1471.2031 C1031.6406,1471.4844 1031.8125,1471.7031 1031.9063,1472.1094 C1031.9688,1472.5156 1032,1472.6406 1032.1406,1472.7656 C1032.2813,1472.9063 1032.5156,1473.0156 1032.7344,1473.0156 C1033,1473.0156 1033.2656,1472.875 1033.4375,1472.6563 C1033.5469,1472.5 1033.5781,1472.3125 1033.5781,1471.8906 L1033.5781,1470.4688 C1033.5781,1470.0313 1033.5625,1469.9063 1033.4688,1469.75 C1033.3125,1469.4844 1033.0313,1469.3438 1032.7344,1469.3438 C1032.4375,1469.3438 1032.2344,1469.4375 1032.0156,1469.75 L1031.8438,1469.6719 Z " fill="#000000"/><text fill="#000000" font-family="sans-serif" font-size="14" lengthAdjust="spacing" textLength="119" x="1043.5" y="1478.8467">topicRatingData</text><line style="stroke:#181818;stroke-width:0.5;" x1="1015.5" x2="1164.5" y1="1490" y2="1490"/><text fill="#000000" font-family="sans-serif" font-size="14" lengthAdjust="spacing" textLength="133" x="1020.5" y="1506.9951">userName: varchar</text><text fill="#000000" font-family="sans-serif" font-size="14" lengthAdjust="spacing" textLength="89" x="1020.5" y="1523.292">topic_ID: int</text><text fill="#000000" font-family="sans-serif" font-size="14" lengthAdjust="spacing" textLength="95" x="1020.5" y="1539.5889">structure: int</text><text fill="#000000" font-family="sans-serif" font-size="14" lengthAdjust="spacing" textLength="77" x="1020.5" y="1555.8857">quality: int</text><text fill="#000000" font-family="sans-serif" font-size="14" lengthAdjust="spacing" textLength="86" x="1020.5" y="1572.1826">likeStat: int</text><text fill="#000000" font-family="sans-serif" font-size="14" lengthAdjust="spacing" textLength="106" x="1020.5" y="1588.4795">dislikeStat: int</text><line style="stroke:#181818;stroke-width:0.5;" x1="1015.5" x2="1164.5" y1="1595.7813" y2="1595.7813"/><ellipse cx="1025.5" cy="1609.4297" fill="#84BE84" rx="3" ry="3" style="stroke:#038048;stroke-width:1.0;"/><text fill="#000000" font-family="sans-serif" font-size="14" lengthAdjust="spacing" textLength="34" x="1034.5" y="1612.7764">init()</text><ellipse cx="1025.5" cy="1625.7266" fill="#84BE84" rx="3" ry="3" style="stroke:#038048;stroke-width:1.0;"/><text fill="#000000" font-family="sans-serif" font-size="14" lengthAdjust="spacing" textLength="30" x="1034.5" y="1629.0732">str()</text></g><!--class Server--><g id="elem_Server"><rect codeLine="155" fill="#F1F1F1" height="194.6719" id="Server" rx="3.5" ry="3.5" style="stroke:#181818;stroke-width:0.5;" width="171" x="827.5" y="185"/><ellipse cx="885.25" cy="201" fill="#ADD1B2" rx="11" ry="11" style="stroke:#181818;stroke-width:1.0;"/><path d="M887.5938,196.6719 C886.6563,196.2344 886.0625,196.0938 885.1875,196.0938 C882.5625,196.0938 880.5625,198.1719 880.5625,200.8906 L880.5625,202.0156 C880.5625,204.5938 882.6719,206.4844 885.5625,206.4844 C886.7813,206.4844 887.9375,206.1875 888.6875,205.6406 C889.2656,205.2344 889.5938,204.7813 889.5938,204.3906 C889.5938,203.9375 889.2031,203.5469 888.7344,203.5469 C888.5156,203.5469 888.3125,203.625 888.125,203.8125 C887.6719,204.2969 887.6719,204.2969 887.4844,204.3906 C887.0625,204.6563 886.375,204.7813 885.6094,204.7813 C883.5625,204.7813 882.2656,203.6875 882.2656,201.9844 L882.2656,200.8906 C882.2656,199.1094 883.5156,197.7969 885.25,197.7969 C885.8281,197.7969 886.4375,197.9531 886.9063,198.2031 C887.3906,198.4844 887.5625,198.7031 887.6563,199.1094 C887.7188,199.5156 887.75,199.6406 887.8906,199.7656 C888.0313,199.9063 888.2656,200.0156 888.4844,200.0156 C888.75,200.0156 889.0156,199.875 889.1875,199.6563 C889.2969,199.5 889.3281,199.3125 889.3281,198.8906 L889.3281,197.4688 C889.3281,197.0313 889.3125,196.9063 889.2188,196.75 C889.0625,196.4844 888.7813,196.3438 888.4844,196.3438 C888.1875,196.3438 887.9844,196.4375 887.7656,196.75 L887.5938,196.6719 Z " fill="#000000"/><text fill="#000000" font-family="sans-serif" font-size="14" lengthAdjust="spacing" textLength="47" x="905.75" y="205.8467">Server</text><line style="stroke:#181818;stroke-width:0.5;" x1="828.5" x2="997.5" y1="217" y2="217"/><line style="stroke:#181818;stroke-width:0.5;" x1="828.5" x2="997.5" y1="225" y2="225"/><ellipse cx="838.5" cy="238.6484" fill="#84BE84" rx="3" ry="3" style="stroke:#038048;stroke-width:1.0;"/><text fill="#000000" font-family="sans-serif" font-size="14" lengthAdjust="spacing" textLength="121" x="847.5" y="241.9951">login_page() : str</text><ellipse cx="838.5" cy="254.9453" fill="#84BE84" rx="3" ry="3" style="stroke:#038048;stroke-width:1.0;"/><text fill="#000000" font-family="sans-serif" font-size="14" lengthAdjust="spacing" textLength="103" x="847.5" y="258.292">do_login() : str</text><ellipse cx="838.5" cy="271.2422" fill="#84BE84" rx="3" ry="3" style="stroke:#038048;stroke-width:1.0;"/><text fill="#000000" font-family="sans-serif" font-size="14" lengthAdjust="spacing" textLength="133" x="847.5" y="274.5889">signup_page() : str</text><ellipse cx="838.5" cy="287.5391" fill="#84BE84" rx="3" ry="3" style="stroke:#038048;stroke-width:1.0;"/><text fill="#000000" font-family="sans-serif" font-size="14" lengthAdjust="spacing" textLength="90" x="847.5" y="290.8857">signup() : str</text><ellipse cx="838.5" cy="303.8359" fill="#84BE84" rx="3" ry="3" style="stroke:#038048;stroke-width:1.0;"/><text fill="#000000" font-family="sans-serif" font-size="14" lengthAdjust="spacing" textLength="84" x="847.5" y="307.1826">home() : str</text><ellipse cx="838.5" cy="320.1328" fill="#84BE84" rx="3" ry="3" style="stroke:#038048;stroke-width:1.0;"/><text fill="#000000" font-family="sans-serif" font-size="14" lengthAdjust="spacing" textLength="89" x="847.5" y="323.4795">logout() : str</text><ellipse cx="838.5" cy="336.4297" fill="#84BE84" rx="3" ry="3" style="stroke:#038048;stroke-width:1.0;"/><text fill="#000000" font-family="sans-serif" font-size="14" lengthAdjust="spacing" textLength="109" x="847.5" y="339.7764">add_post() : str</text><ellipse cx="838.5" cy="352.7266" fill="#84BE84" rx="3" ry="3" style="stroke:#038048;stroke-width:1.0;"/><text fill="#000000" font-family="sans-serif" font-size="14" lengthAdjust="spacing" textLength="145" x="847.5" y="356.0732">search_results() : str</text><ellipse cx="838.5" cy="369.0234" fill="#84BE84" rx="3" ry="3" style="stroke:#038048;stroke-width:1.0;"/><text fill="#000000" font-family="sans-serif" font-size="14" lengthAdjust="spacing" textLength="33" x="847.5" y="372.3701">run()</text></g><!--class fetching--><g id="elem_fetching"><rect codeLine="183" fill="#F1F1F1" height="64.2969" id="fetching" rx="3.5" ry="3.5" style="stroke:#181818;stroke-width:0.5;" width="381" x="1541.5" y="1515"/><ellipse cx="1697.25" cy="1531" fill="#ADD1B2" rx="11" ry="11" style="stroke:#181818;stroke-width:1.0;"/><path d="M1699.5938,1526.6719 C1698.6563,1526.2344 1698.0625,1526.0938 1697.1875,1526.0938 C1694.5625,1526.0938 1692.5625,1528.1719 1692.5625,1530.8906 L1692.5625,1532.0156 C1692.5625,1534.5938 1694.6719,1536.4844 1697.5625,1536.4844 C1698.7813,1536.4844 1699.9375,1536.1875 1700.6875,1535.6406 C1701.2656,1535.2344 1701.5938,1534.7813 1701.5938,1534.3906 C1701.5938,1533.9375 1701.2031,1533.5469 1700.7344,1533.5469 C1700.5156,1533.5469 1700.3125,1533.625 1700.125,1533.8125 C1699.6719,1534.2969 1699.6719,1534.2969 1699.4844,1534.3906 C1699.0625,1534.6563 1698.375,1534.7813 1697.6094,1534.7813 C1695.5625,1534.7813 1694.2656,1533.6875 1694.2656,1531.9844 L1694.2656,1530.8906 C1694.2656,1529.1094 1695.5156,1527.7969 1697.25,1527.7969 C1697.8281,1527.7969 1698.4375,1527.9531 1698.9063,1528.2031 C1699.3906,1528.4844 1699.5625,1528.7031 1699.6563,1529.1094 C1699.7188,1529.5156 1699.75,1529.6406 1699.8906,1529.7656 C1700.0313,1529.9063 1700.2656,1530.0156 1700.4844,1530.0156 C1700.75,1530.0156 1701.0156,1529.875 1701.1875,1529.6563 C1701.2969,1529.5 1701.3281,1529.3125 1701.3281,1528.8906 L1701.3281,1527.4688 C1701.3281,1527.0313 1701.3125,1526.9063 1701.2188,1526.75 C1701.0625,1526.4844 1700.7813,1526.3438 1700.4844,1526.3438 C1700.1875,1526.3438 1699.9844,1526.4375 1699.7656,1526.75 L1699.5938,1526.6719 Z " fill="#000000"/><text fill="#000000" font-family="sans-serif" font-size="14" lengthAdjust="spacing" textLength="61" x="1717.75" y="1535.8467">fetching</text><line style="stroke:#181818;stroke-width:0.5;" x1="1542.5" x2="1921.5" y1="1547" y2="1547"/><line style="stroke:#181818;stroke-width:0.5;" x1="1542.5" x2="1921.5" y1="1555" y2="1555"/><ellipse cx="1552.5" cy="1568.6484" fill="#84BE84" rx="3" ry="3" style="stroke:#038048;stroke-width:1.0;"/><text fill="#000000" font-family="sans-serif" font-size="14" lengthAdjust="spacing" textLength="355" x="1561.5" y="1571.9951">post_data_formatter(message_table: Tuple): dict</text></g><!--class post--><g id="elem_post"><rect codeLine="187" fill="#F1F1F1" height="96.8906" id="post" rx="3.5" ry="3.5" style="stroke:#181818;stroke-width:0.5;" width="290" x="1877" y="1715"/><ellipse cx="2001.25" cy="1731" fill="#ADD1B2" rx="11" ry="11" style="stroke:#181818;stroke-width:1.0;"/><path d="M2003.5938,1726.6719 C2002.6563,1726.2344 2002.0625,1726.0938 2001.1875,1726.0938 C1998.5625,1726.0938 1996.5625,1728.1719 1996.5625,1730.8906 L1996.5625,1732.0156 C1996.5625,1734.5938 1998.6719,1736.4844 2001.5625,1736.4844 C2002.7813,1736.4844 2003.9375,1736.1875 2004.6875,1735.6406 C2005.2656,1735.2344 2005.5938,1734.7813 2005.5938,1734.3906 C2005.5938,1733.9375 2005.2031,1733.5469 2004.7344,1733.5469 C2004.5156,1733.5469 2004.3125,1733.625 2004.125,1733.8125 C2003.6719,1734.2969 2003.6719,1734.2969 2003.4844,1734.3906 C2003.0625,1734.6563 2002.375,1734.7813 2001.6094,1734.7813 C1999.5625,1734.7813 1998.2656,1733.6875 1998.2656,1731.9844 L1998.2656,1730.8906 C1998.2656,1729.1094 1999.5156,1727.7969 2001.25,1727.7969 C2001.8281,1727.7969 2002.4375,1727.9531 2002.9063,1728.2031 C2003.3906,1728.4844 2003.5625,1728.7031 2003.6563,1729.1094 C2003.7188,1729.5156 2003.75,1729.6406 2003.8906,1729.7656 C2004.0313,1729.9063 2004.2656,1730.0156 2004.4844,1730.0156 C2004.75,1730.0156 2005.0156,1729.875 2005.1875,1729.6563 C2005.2969,1729.5 2005.3281,1729.3125 2005.3281,1728.8906 L2005.3281,1727.4688 C2005.3281,1727.0313 2005.3125,1726.9063 2005.2188,1726.75 C2005.0625,1726.4844 2004.7813,1726.3438 2004.4844,1726.3438 C2004.1875,1726.3438 2003.9844,1726.4375 2003.7656,1726.75 L2003.5938,1726.6719 Z " fill="#000000"/><text fill="#000000" font-family="sans-serif" font-size="14" lengthAdjust="spacing" textLength="33" x="2021.75" y="1735.8467">post</text><line style="stroke:#181818;stroke-width:0.5;" x1="1878" x2="2166" y1="1747" y2="1747"/><line style="stroke:#181818;stroke-width:0.5;" x1="1878" x2="2166" y1="1755" y2="1755"/><ellipse cx="1888" cy="1768.6484" fill="#84BE84" rx="3" ry="3" style="stroke:#038048;stroke-width:1.0;"/><text fill="#000000" font-family="sans-serif" font-size="14" lengthAdjust="spacing" textLength="264" x="1897" y="1771.9951">make_post(session_data: dict): None</text><ellipse cx="1888" cy="1784.9453" fill="#84BE84" rx="3" ry="3" style="stroke:#038048;stroke-width:1.0;"/><text fill="#000000" font-family="sans-serif" font-size="14" lengthAdjust="spacing" textLength="172" x="1897" y="1788.292">display_posts(): List[str]</text><ellipse cx="1888" cy="1801.2422" fill="#84BE84" rx="3" ry="3" style="stroke:#038048;stroke-width:1.0;"/><text fill="#000000" font-family="sans-serif" font-size="14" lengthAdjust="spacing" textLength="220" x="1897" y="1804.5889">post_formatter(data: dict): str</text></g><!--class ratings--><g id="elem_ratings"><rect codeLine="193" fill="#F1F1F1" height="64.2969" id="ratings" rx="3.5" ry="3.5" style="stroke:#181818;stroke-width:0.5;" width="108" x="2036" y="1873"/><ellipse cx="2062.7" cy="1889" fill="#ADD1B2" rx="11" ry="11" style="stroke:#181818;stroke-width:1.0;"/><path d="M2065.0438,1884.6719 C2064.1063,1884.2344 2063.5125,1884.0938 2062.6375,1884.0938 C2060.0125,1884.0938 2058.0125,1886.1719 2058.0125,1888.8906 L2058.0125,1890.0156 C2058.0125,1892.5938 2060.1219,1894.4844 2063.0125,1894.4844 C2064.2313,1894.4844 2065.3875,1894.1875 2066.1375,1893.6406 C2066.7156,1893.2344 2067.0438,1892.7813 2067.0438,1892.3906 C2067.0438,1891.9375 2066.6531,1891.5469 2066.1844,1891.5469 C2065.9656,1891.5469 2065.7625,1891.625 2065.575,1891.8125 C2065.1219,1892.2969 2065.1219,1892.2969 2064.9344,1892.3906 C2064.5125,1892.6563 2063.825,1892.7813 2063.0594,1892.7813 C2061.0125,1892.7813 2059.7156,1891.6875 2059.7156,1889.9844 L2059.7156,1888.8906 C2059.7156,1887.1094 2060.9656,1885.7969 2062.7,1885.7969 C2063.2781,1885.7969 2063.8875,1885.9531 2064.3563,1886.2031 C2064.8406,1886.4844 2065.0125,1886.7031 2065.1063,1887.1094 C2065.1688,1887.5156 2065.2,1887.6406 2065.3406,1887.7656 C2065.4813,1887.9063 2065.7156,1888.0156 2065.9344,1888.0156 C2066.2,1888.0156 2066.4656,1887.875 2066.6375,1887.6563 C2066.7469,1887.5 2066.7781,1887.3125 2066.7781,1886.8906 L2066.7781,1885.4688 C2066.7781,1885.0313 2066.7625,1884.9063 2066.6688,1884.75 C2066.5125,1884.4844 2066.2313,1884.3438 2065.9344,1884.3438 C2065.6375,1884.3438 2065.4344,1884.4375 2065.2156,1884.75 L2065.0438,1884.6719 Z " fill="#000000"/><text fill="#000000" font-family="sans-serif" font-size="14" lengthAdjust="spacing" textLength="50" x="2079.3" y="1893.8467">ratings</text><line style="stroke:#181818;stroke-width:0.5;" x1="2037" x2="2143" y1="1905" y2="1905"/><line style="stroke:#181818;stroke-width:0.5;" x1="2037" x2="2143" y1="1913" y2="1913"/><ellipse cx="2047" cy="1926.6484" fill="#84BE84" rx="3" ry="3" style="stroke:#038048;stroke-width:1.0;"/><text fill="#000000" font-family="sans-serif" font-size="14" lengthAdjust="spacing" textLength="82" x="2056" y="1929.9951">like(): None</text></g><!--class search--><g id="elem_search"><rect codeLine="197" fill="#F1F1F1" height="96.8906" id="search" rx="3.5" ry="3.5" style="stroke:#181818;stroke-width:0.5;" width="209" x="1957.5" y="1498.5"/><ellipse cx="2034.25" cy="1514.5" fill="#ADD1B2" rx="11" ry="11" style="stroke:#181818;stroke-width:1.0;"/><path d="M2036.5938,1510.1719 C2035.6563,1509.7344 2035.0625,1509.5938 2034.1875,1509.5938 C2031.5625,1509.5938 2029.5625,1511.6719 2029.5625,1514.3906 L2029.5625,1515.5156 C2029.5625,1518.0938 2031.6719,1519.9844 2034.5625,1519.9844 C2035.7813,1519.9844 2036.9375,1519.6875 2037.6875,1519.1406 C2038.2656,1518.7344 2038.5938,1518.2813 2038.5938,1517.8906 C2038.5938,1517.4375 2038.2031,1517.0469 2037.7344,1517.0469 C2037.5156,1517.0469 2037.3125,1517.125 2037.125,1517.3125 C2036.6719,1517.7969 2036.6719,1517.7969 2036.4844,1517.8906 C2036.0625,1518.1563 2035.375,1518.2813 2034.6094,1518.2813 C2032.5625,1518.2813 2031.2656,1517.1875 2031.2656,1515.4844 L2031.2656,1514.3906 C2031.2656,1512.6094 2032.5156,1511.2969 2034.25,1511.2969 C2034.8281,1511.2969 2035.4375,1511.4531 2035.9063,1511.7031 C2036.3906,1511.9844 2036.5625,1512.2031 2036.6563,1512.6094 C2036.7188,1513.0156 2036.75,1513.1406 2036.8906,1513.2656 C2037.0313,1513.4063 2037.2656,1513.5156 2037.4844,1513.5156 C2037.75,1513.5156 2038.0156,1513.375 2038.1875,1513.1563 C2038.2969,1513 2038.3281,1512.8125 2038.3281,1512.3906 L2038.3281,1510.9688 C2038.3281,1510.5313 2038.3125,1510.4063 2038.2188,1510.25 C2038.0625,1509.9844 2037.7813,1509.8438 2037.4844,1509.8438 C2037.1875,1509.8438 2036.9844,1509.9375 2036.7656,1510.25 L2036.5938,1510.1719 Z " fill="#000000"/><text fill="#000000" font-family="sans-serif" font-size="14" lengthAdjust="spacing" textLength="47" x="2054.75" y="1519.3467">search</text><line style="stroke:#181818;stroke-width:0.5;" x1="1958.5" x2="2165.5" y1="1530.5" y2="1530.5"/><rect fill="none" height="6" style="stroke:#C82930;stroke-width:1.0;" width="6" x="1965.5" y="1541.1484"/><text fill="#000000" font-family="sans-serif" font-size="14" lengthAdjust="spacing" textLength="183" x="1977.5" y="1547.4951">dataHandler: dataHandler</text><line style="stroke:#181818;stroke-width:0.5;" x1="1958.5" x2="2165.5" y1="1554.7969" y2="1554.7969"/><ellipse cx="1968.5" cy="1568.4453" fill="#84BE84" rx="3" ry="3" style="stroke:#038048;stroke-width:1.0;"/><text fill="#000000" font-family="sans-serif" font-size="14" lengthAdjust="spacing" textLength="177" x="1977.5" y="1571.792">search_results(): List[str]</text><ellipse cx="1968.5" cy="1584.7422" fill="#84BE84" rx="3" ry="3" style="stroke:#038048;stroke-width:1.0;"/><text fill="#000000" font-family="sans-serif" font-size="14" lengthAdjust="spacing" textLength="181" x="1977.5" y="1588.0889">return_search_page(): str</text></g><!--class Fernet--><g id="elem_Fernet"><rect codeLine="3" fill="#F1F1F1" height="96.8906" id="Fernet" rx="3.5" ry="3.5" style="stroke:#181818;stroke-width:0.5;" width="240" x="168" y="515"/><ellipse cx="259.75" cy="531" fill="#ADD1B2" rx="11" ry="11" style="stroke:#181818;stroke-width:1.0;"/><path d="M262.0938,526.6719 C261.1563,526.2344 260.5625,526.0938 259.6875,526.0938 C257.0625,526.0938 255.0625,528.1719 255.0625,530.8906 L255.0625,532.0156 C255.0625,534.5938 257.1719,536.4844 260.0625,536.4844 C261.2813,536.4844 262.4375,536.1875 263.1875,535.6406 C263.7656,535.2344 264.0938,534.7813 264.0938,534.3906 C264.0938,533.9375 263.7031,533.5469 263.2344,533.5469 C263.0156,533.5469 262.8125,533.625 262.625,533.8125 C262.1719,534.2969 262.1719,534.2969 261.9844,534.3906 C261.5625,534.6563 260.875,534.7813 260.1094,534.7813 C258.0625,534.7813 256.7656,533.6875 256.7656,531.9844 L256.7656,530.8906 C256.7656,529.1094 258.0156,527.7969 259.75,527.7969 C260.3281,527.7969 260.9375,527.9531 261.4063,528.2031 C261.8906,528.4844 262.0625,528.7031 262.1563,529.1094 C262.2188,529.5156 262.25,529.6406 262.3906,529.7656 C262.5313,529.9063 262.7656,530.0156 262.9844,530.0156 C263.25,530.0156 263.5156,529.875 263.6875,529.6563 C263.7969,529.5 263.8281,529.3125 263.8281,528.8906 L263.8281,527.4688 C263.8281,527.0313 263.8125,526.9063 263.7188,526.75 C263.5625,526.4844 263.2813,526.3438 262.9844,526.3438 C262.6875,526.3438 262.4844,526.4375 262.2656,526.75 L262.0938,526.6719 Z " fill="#000000"/><text fill="#000000" font-family="sans-serif" font-size="14" lengthAdjust="spacing" textLength="48" x="280.25" y="535.8467">Fernet</text><line style="stroke:#181818;stroke-width:0.5;" x1="169" x2="407" y1="547" y2="547"/><line style="stroke:#181818;stroke-width:0.5;" x1="169" x2="407" y1="555" y2="555"/><ellipse cx="179" cy="568.6484" fill="#84BE84" rx="3" ry="3" style="stroke:#038048;stroke-width:1.0;"/><text fill="#000000" font-family="sans-serif" font-size="14" lengthAdjust="spacing" textLength="134" x="188" y="571.9951">Fernet(key: bytes)</text><ellipse cx="179" cy="584.9453" fill="#84BE84" rx="3" ry="3" style="stroke:#038048;stroke-width:1.0;"/><text fill="#000000" font-family="sans-serif" font-size="14" lengthAdjust="spacing" textLength="203" x="188" y="588.292">encrypt(data: bytes) : bytes</text><ellipse cx="179" cy="601.2422" fill="#84BE84" rx="3" ry="3" style="stroke:#038048;stroke-width:1.0;"/><text fill="#000000" font-family="sans-serif" font-size="14" lengthAdjust="spacing" textLength="214" x="188" y="604.5889">decrypt(token: bytes) : bytes</text></g><!--class Bottle--><g id="elem_Bottle"><rect codeLine="49" fill="#F1F1F1" height="80.5938" id="Bottle" rx="3.5" ry="3.5" style="stroke:#181818;stroke-width:0.5;" width="181" x="459.5" y="1161.5"/><ellipse cx="522.75" cy="1177.5" fill="#ADD1B2" rx="11" ry="11" style="stroke:#181818;stroke-width:1.0;"/><path d="M525.0938,1173.1719 C524.1563,1172.7344 523.5625,1172.5938 522.6875,1172.5938 C520.0625,1172.5938 518.0625,1174.6719 518.0625,1177.3906 L518.0625,1178.5156 C518.0625,1181.0938 520.1719,1182.9844 523.0625,1182.9844 C524.2813,1182.9844 525.4375,1182.6875 526.1875,1182.1406 C526.7656,1181.7344 527.0938,1181.2813 527.0938,1180.8906 C527.0938,1180.4375 526.7031,1180.0469 526.2344,1180.0469 C526.0156,1180.0469 525.8125,1180.125 525.625,1180.3125 C525.1719,1180.7969 525.1719,1180.7969 524.9844,1180.8906 C524.5625,1181.1563 523.875,1181.2813 523.1094,1181.2813 C521.0625,1181.2813 519.7656,1180.1875 519.7656,1178.4844 L519.7656,1177.3906 C519.7656,1175.6094 521.0156,1174.2969 522.75,1174.2969 C523.3281,1174.2969 523.9375,1174.4531 524.4063,1174.7031 C524.8906,1174.9844 525.0625,1175.2031 525.1563,1175.6094 C525.2188,1176.0156 525.25,1176.1406 525.3906,1176.2656 C525.5313,1176.4063 525.7656,1176.5156 525.9844,1176.5156 C526.25,1176.5156 526.5156,1176.375 526.6875,1176.1563 C526.7969,1176 526.8281,1175.8125 526.8281,1175.3906 L526.8281,1173.9688 C526.8281,1173.5313 526.8125,1173.4063 526.7188,1173.25 C526.5625,1172.9844 526.2813,1172.8438 525.9844,1172.8438 C525.6875,1172.8438 525.4844,1172.9375 525.2656,1173.25 L525.0938,1173.1719 Z " fill="#000000"/><text fill="#000000" font-family="sans-serif" font-size="14" lengthAdjust="spacing" textLength="46" x="543.25" y="1182.3467">Bottle</text><line style="stroke:#181818;stroke-width:0.5;" x1="460.5" x2="639.5" y1="1193.5" y2="1193.5"/><ellipse cx="470.5" cy="1207.1484" fill="none" rx="3" ry="3" style="stroke:#038048;stroke-width:1.0;"/><text fill="#000000" font-family="sans-serif" font-size="14" lengthAdjust="spacing" textLength="55" x="479.5" y="1210.4951">request</text><line style="stroke:#181818;stroke-width:0.5;" x1="460.5" x2="639.5" y1="1217.7969" y2="1217.7969"/><ellipse cx="470.5" cy="1231.4453" fill="#84BE84" rx="3" ry="3" style="stroke:#038048;stroke-width:1.0;"/><text fill="#000000" font-family="sans-serif" font-size="14" lengthAdjust="spacing" textLength="155" x="479.5" y="1234.792">redirect(location: str)</text></g><!--class Main--><g id="elem_Main"><rect codeLine="174" fill="#F1F1F1" height="64.2969" id="Main" rx="3.5" ry="3.5" style="stroke:#181818;stroke-width:0.5;" width="71" x="756.5" y="7"/><ellipse cx="774.2" cy="23" fill="#ADD1B2" rx="11" ry="11" style="stroke:#181818;stroke-width:1.0;"/><path d="M776.5438,18.6719 C775.6063,18.2344 775.0125,18.0938 774.1375,18.0938 C771.5125,18.0938 769.5125,20.1719 769.5125,22.8906 L769.5125,24.0156 C769.5125,26.5938 771.6219,28.4844 774.5125,28.4844 C775.7313,28.4844 776.8875,28.1875 777.6375,27.6406 C778.2156,27.2344 778.5438,26.7813 778.5438,26.3906 C778.5438,25.9375 778.1531,25.5469 777.6844,25.5469 C777.4656,25.5469 777.2625,25.625 777.075,25.8125 C776.6219,26.2969 776.6219,26.2969 776.4344,26.3906 C776.0125,26.6563 775.325,26.7813 774.5594,26.7813 C772.5125,26.7813 771.2156,25.6875 771.2156,23.9844 L771.2156,22.8906 C771.2156,21.1094 772.4656,19.7969 774.2,19.7969 C774.7781,19.7969 775.3875,19.9531 775.8563,20.2031 C776.3406,20.4844 776.5125,20.7031 776.6063,21.1094 C776.6688,21.5156 776.7,21.6406 776.8406,21.7656 C776.9813,21.9063 777.2156,22.0156 777.4344,22.0156 C777.7,22.0156 777.9656,21.875 778.1375,21.6563 C778.2469,21.5 778.2781,21.3125 778.2781,20.8906 L778.2781,19.4688 C778.2781,19.0313 778.2625,18.9063 778.1688,18.75 C778.0125,18.4844 777.7313,18.3438 777.4344,18.3438 C777.1375,18.3438 776.9344,18.4375 776.7156,18.75 L776.5438,18.6719 Z " fill="#000000"/><text fill="#000000" font-family="sans-serif" font-size="14" lengthAdjust="spacing" textLength="33" x="788.8" y="27.8467">Main</text><line style="stroke:#181818;stroke-width:0.5;" x1="757.5" x2="826.5" y1="39" y2="39"/><line style="stroke:#181818;stroke-width:0.5;" x1="757.5" x2="826.5" y1="47" y2="47"/><ellipse cx="767.5" cy="60.6484" fill="#84BE84" rx="3" ry="3" style="stroke:#038048;stroke-width:1.0;"/><text fill="#000000" font-family="sans-serif" font-size="14" lengthAdjust="spacing" textLength="45" x="776.5" y="63.9951">main()</text></g><!--reverse link login to Fernet--><g id="link_login_Fernet"><path codeLine="55" d="M525.906,714.1114 C467.743,677.5314 412.691,642.91 363.731,612.12 " fill="none" id="login-backto-Fernet" style="stroke:#454645;stroke-width:1.0;"/><polygon fill="#454645" points="536.064,720.5,533.1145,713.9197,525.906,714.1114,528.8554,720.6917,536.064,720.5" style="stroke:#454645;stroke-width:1.0;"/></g><!--reverse link login to dataHandler--><g id="link_login_dataHandler"><path codeLine="56" d="M676,910.62 C676,924.7921 676,928.0548 676,943.925 C676,947.8925 676,951.8981 676,955.934 C676,957.952 676,959.9776 676,962.0098 C676,962.5179 676,963.0264 676,963.5352 " fill="none" id="login-backto-dataHandler" style="stroke:#454645;stroke-width:1.0;"/><polygon fill="#454645" points="676,898.62,672,904.62,676,910.62,680,904.62,676,898.62" style="stroke:#454645;stroke-width:1.0;"/></g><!--reverse link login to login_page--><g id="link_login_login_page"><path codeLine="57" d="M723.0259,709.5822 C741.9359,669.8022 758.178,635.64 773.104,604.25 " fill="none" id="login-backto-login_page" style="stroke:#454645;stroke-width:1.0;"/><polygon fill="#454645" points="717.874,720.42,724.0626,716.7184,723.0259,709.5822,716.8374,713.2838,717.874,720.42" style="stroke:#454645;stroke-width:1.0;"/></g><!--reverse link login to Bottle--><g id="link_login_Bottle"><path codeLine="58" d="M643.8813,910.0403 C617.3163,992.3743 582.559,1100.093 562.796,1161.344 " fill="none" id="login-backto-Bottle" style="stroke:#454645;stroke-width:1.0;"/><polygon fill="#454645" points="647.566,898.62,641.9169,903.1019,643.8813,910.0403,649.5304,905.5584,647.566,898.62" style="stroke:#454645;stroke-width:1.0;"/></g><!--link Fernet to signin--><g id="link_Fernet_signin"><path codeLine="67" d="M271.019,612.12 C260.906,640.49 253.7481,660.5658 241.5341,694.8158 " fill="none" id="Fernet-to-signin" style="stroke:#454645;stroke-width:1.0;"/><polygon fill="none" points="235.488,711.77,247.1855,696.8312,235.8827,692.8004,235.488,711.77" style="stroke:#454645;stroke-width:1.0;"/></g><!--link dataHandler to signin--><g id="link_dataHandler_signin"><path codeLine="68" d="M667.8842,963.9278 C667.7734,963.6605 667.6617,963.3951 667.5492,963.1318 C666.6494,961.0255 665.6982,959.0496 664.6934,957.2153 C662.6837,953.5468 660.4591,950.445 658,948 C637.47,927.59 425.596,939.75 398,931 C378.796,924.91 375.5685,924.7626 357.0225,915.2826 " fill="none" id="dataHandler-to-signin" style="stroke:#454645;stroke-width:1.0;"/><polygon fill="none" points="340.995,907.09,354.2916,920.6251,359.7534,909.9401,340.995,907.09" style="stroke:#454645;stroke-width:1.0;"/></g><!--link sign_in_page to signin--><g id="link_sign_in_page_signin"><path codeLine="69" d="M516.92,595.67 C471.107,623.66 409.383,661.48 398,669 C377.455,682.57 370.7347,686.9728 349.8147,701.5428 " fill="none" id="sign_in_page-to-signin" style="stroke:#454645;stroke-width:1.0;"/><polygon fill="none" points="335.044,711.83,353.2438,706.4663,346.3856,696.6192,335.044,711.83" style="stroke:#454645;stroke-width:1.0;"/></g><!--link home_page to session_check--><g id="link_home_page_session_check"><path codeLine="81" d="M1051.66,595.9 C1060.11,642.75 1072.7241,712.726 1081.1641,759.506 " fill="none" id="home_page-to-session_check" style="stroke:#454645;stroke-width:1.0;"/><polygon fill="none" points="1084.36,777.22,1087.0687,758.4407,1075.2594,760.5713,1084.36,777.22" style="stroke:#454645;stroke-width:1.0;"/></g><!--link login_page to session_check--><g id="link_login_page_session_check"><path codeLine="82" d="M835.633,604.16 C855.429,620.63 879.796,638.92 904,652 C924.649,663.16 934.15,656.47 954,669 C1000.2,698.15 1031.0858,731.9047 1055.8258,763.2847 " fill="none" id="login_page-to-session_check" style="stroke:#454645;stroke-width:1.0;"/><polygon fill="none" points="1066.97,777.42,1060.5375,759.57,1051.114,766.9995,1066.97,777.42" style="stroke:#454645;stroke-width:1.0;"/></g><!--link dataBaseHandler to users--><g id="link_dataBaseHandler_users"><path codeLine="150" d="M1193.53,1397.052 C1209.95,1427.822 1217.3678,1441.7265 1230.5678,1466.4705 " fill="none" id="dataBaseHandler-to-users" style="stroke:#454645;stroke-width:1.0;"/><polygon fill="none" points="1239.04,1482.352,1235.8616,1463.6464,1225.274,1469.2946,1239.04,1482.352" style="stroke:#454645;stroke-width:1.0;"/></g><!--link dataBaseHandler to topics--><g id="link_dataBaseHandler_topics"><path codeLine="151" d="M986.468,1397.052 C971.911,1424.336 966.2397,1434.9648 954.0187,1457.8718 " fill="none" id="dataBaseHandler-to-topics" style="stroke:#454645;stroke-width:1.0;"/><polygon fill="none" points="945.546,1473.753,959.3125,1460.696,948.725,1455.0475,945.546,1473.753" style="stroke:#454645;stroke-width:1.0;"/></g><!--link dataBaseHandler to topicRatingData--><g id="link_dataBaseHandler_topicRatingData"><path codeLine="152" d="M1090,1397.052 C1090,1418.273 1090,1421.025 1090,1439.979 " fill="none" id="dataBaseHandler-to-topicRatingData" style="stroke:#454645;stroke-width:1.0;"/><polygon fill="none" points="1090,1457.979,1096,1439.979,1084,1439.979,1090,1457.979" style="stroke:#454645;stroke-width:1.0;"/></g><!--link Server to login_page--><g id="link_Server_login_page"><path codeLine="169" d="M792,404.6252 C792,407.8902 792,411.1688 792,414.4537 C792,427.5935 792,440.8348 792,453.7091 C792,479.4575 792,497.7375 792,516.8 " fill="none" id="Server-to-login_page" style="stroke:#454645;stroke-width:1.0;"/><polygon fill="#454645" points="792,522.8,796,513.8,792,517.8,788,513.8,792,522.8" style="stroke:#454645;stroke-width:1.0;"/></g><!--link Server to search_page--><g id="link_Server_search_page"><path codeLine="170" d="M798.386,404.3944 C798.5034,404.5921 798.6217,404.7894 798.741,404.986 C799.2179,405.7727 799.7092,406.5504 800.2153,407.3185 C801.2275,408.8548 802.2989,410.3531 803.4324,411.8089 C805.6992,414.7205 808.2142,417.4625 811,420 C841.916,448.16 1147.14,424.35 1187,437 C1248.81,456.62 1305.5131,497.1745 1342.6831,527.5345 " fill="none" id="Server-to-search_page" style="stroke:#454645;stroke-width:1.0;"/><polygon fill="#454645" points="1347.33,531.33,1342.89,522.5387,1343.4576,528.167,1337.8293,528.7346,1347.33,531.33" style="stroke:#454645;stroke-width:1.0;"/></g><!--link Server to sign_in_page--><g id="link_Server_sign_in_page"><path codeLine="171" d="M783.7784,293.741 C783.6385,293.9153 783.497,294.0916 783.3539,294.2699 C782.7814,294.983 782.1831,295.7282 781.5599,296.5044 C780.3136,298.0568 778.9677,299.7333 777.5289,301.5255 C774.6511,305.11 771.4014,309.1577 767.8327,313.6028 C753.5578,331.3831 734.1781,355.5213 713.0776,381.8025 C670.8768,434.365 625.5493,490.8213 596.6553,526.8113 " fill="none" id="Server-to-sign_in_page" style="stroke:#454645;stroke-width:1.0;"/><polygon fill="#454645" points="592.899,531.49,601.6525,526.9761,596.0292,527.5911,595.4142,521.9677,592.899,531.49" style="stroke:#454645;stroke-width:1.0;"/></g><!--link Main to Server--><g id="link_Main_Server"><path codeLine="178" d="M792,71.08 C792,87.13 792,108.0237 792,130.4052 C792,133.2028 792,136.0238 792,138.8614 C792,139.5708 792,134.2812 792,134.9926 " fill="none" id="Main-to-Server" style="stroke:#454645;stroke-width:1.0;"/><polygon fill="#454645" points="792,140.9926,796,131.9926,792,135.9926,788,131.9926,792,140.9926" style="stroke:#454645;stroke-width:1.0;"/><text fill="#000000" font-family="sans-serif" font-size="13" lengthAdjust="spacing" textLength="48" x="793" y="114.0669">creates</text></g><!--link dataBaseHandler to fetching--><g id="link_dataBaseHandler_fetching"><path codeLine="205" d="M1453.21,1397.052 C1539.32,1443.056 1621.3,1486.858 1673.8,1514.903 " fill="none" id="dataBaseHandler-fetching" style="stroke:#454645;stroke-width:1.0;"/></g><!--link dataBaseHandler to post--><g id="link_dataBaseHandler_post"><path codeLine="206" d="M1469.02,1240.553 C1748.51,1276.993 2094.96,1343.57 2184,1455.5 C2245.01,1532.194 2234.4,1591.954 2184,1676 C2174.74,1691.449 2161.67,1704.292 2146.93,1714.927 " fill="none" id="dataBaseHandler-post" style="stroke:#454645;stroke-width:1.0;"/></g><!--link dataBaseHandler to ratings--><g id="link_dataBaseHandler_ratings"><path codeLine="207" d="M1469.13,1228.596 C1770.46,1258.77 2153.66,1322.779 2230,1455.5 C2309.63,1593.934 2269.9,1676.734 2185,1812 C2170.6,1834.947 2149.29,1856.286 2130.5,1872.6246 " fill="none" id="dataBaseHandler-ratings" style="stroke:#454645;stroke-width:1.0;"/></g><!--link dataBaseHandler to search--><g id="link_dataBaseHandler_search"><path codeLine="208" d="M1469.18,1285.27 C1620.2,1325.73 1792.75,1381.901 1940,1455.5 C1963.12,1467.054 1986.41,1483.025 2006.37,1498.337 " fill="none" id="dataBaseHandler-search" style="stroke:#454645;stroke-width:1.0;"/></g><!--link fetching to post--><g id="link_fetching_post"><path codeLine="210" d="M1774.17,1579.19 C1822.32,1614.803 1901.63,1673.469 1957.54,1714.825 " fill="none" id="fetching-post" style="stroke:#454645;stroke-width:1.0;"/></g><!--link post to ratings--><g id="link_post_ratings"><path codeLine="212" d="M2045.21,1812.118 C2054.98,1832.166 2066.08,1854.936 2074.79,1872.7925 " fill="none" id="post-ratings" style="stroke:#454645;stroke-width:1.0;"/></g><!--SRC=[hLVDRjim3BxhARIRjpPzW1ns68fX0zOUrkuq38PgCuaGMt8bELkmzTr7_TcIuoOUC207YwJ8ZnyfIdbZTj02FV0dnOGXf6gOrlGZA066_YPNuRFOmt5Dduu6z5iKWgZKiJD5pGoBOXe-K5s3Lnkv1t6YVo6aOzMURO7s6bJPo2slC1QX57yUW0QjkHHbjODgZpfAhoWNDVmgeiQ7hdbbh6TjbFKRjrkNmcrRKMluYOcw0RLE5quvfkMM6vViEYHDNDW3ABuvbXtw_IbLNMWZ5TJ3siM-ffsI1rvFvIvfAHldo852_HQA27aG5vO9mLg8xbxrKilIxtYL22eLlPS2edVPcrUCdTLBnZlVYl_67DUbAp2lorxmvnwAi3pDQWi253CG3EE-eW6nDRirrjwad4MsIdPWl65F3UG4PhurEtY75qaUMBCqzDrfhRny0VKljXj9F4wV7k- -b8_GTWscg6_6hx4bGeyhCBqIfGaMHTBRtjK7QKmpMYDNseJlcYkeJD78YXb4vxDoECPZvYFITwjLhDIiBYtshC62ZEOtUloNcR5Cbukv8IHChDNgp_lGn2H98fClYvdkk0Hs9x4Lpo2rJ0nDbfNpltG68GkG-NpIiKgM19_PTh5qm5IrEuSzM2ZGVMFqcdxXsdp7P7uaISKh8gtYxs5EMUa7fY7Lu1Xpn_mpna6d3JebfP4ThrA9CxIN2JV5sx30AJDySuE38YvONN-pWqF0pn8LxPe-zbq3mpufzzywQ_7vrj-GTawTAEznvBWUk1_cKx1HqCe3k13JxJKqOE3HpZQhrmEcccjayJYZGRGktVDmBH1dfkSnUQk73Yg-mSdc76Q6rzIJUZkJRjpsq3-X9HVRGcVE-muh1sx_LvnIg3_Z-jgA-Wfx1yBwkMSDDyUmQlWU7WmpOOd4P98OSmicoyO7rakIyaLOp45Iiy3mND4kgI8-Qv2yQMny7HlTpTOGdOp83lPSCKN6corAvjeUyvW6yTXY55khqSLf66SzMGwe_YMYJ_aM3tMQu4ommNlU6IHj399r0PcsnGLW26qwNDmCTFJFgpnfPtHZUkDSUm1ro4PQ8dZrjPWz07Fn_9CbURJaGdinJ4JXgPWBSQQKdTHJSJx19qhLYv5C4l9QhTudEQNIvBx8nCbjFBmNxbXudLxHbbaER0Wdj5l2xZMj5DYhQ6Hx-8_X87fV6p3L3kiIAFVORQxkNLTkf6gPiRT1YzSVEYcDFQ9nflftdzlvadgr3ZAFBTk3ft3csJYyEQDrc0Pk0_AQt8rJa2E-p5yiGmPA-P6IuRA7eaW1P3jyKP8DP_uE94wdVJ6FFxm7ai8N6V9m1eF_czE3vUjv4okupDgojimoqBNCs6T1I0vf4fQCtoTX_W80]--></g></svg>